%TF.GenerationSoftware,KiCad,Pcbnew,10.0.6*%
%TF.CreationDate,2026-10-07T16:25:19+11:00*%
%TF.ProjectId,starbie,73746172-6269-4652-9e6b-696361645f70,rev?*%
%TF.SameCoordinates,Original*%
%TF.FileFunction,Soldermask,Top*%
%TF.FilePolarity,Negative*%
%FSLAX46Y46*%
G04 Gerber Fmt 4.6, Leading zero omitted, Abs format (unit mm)*
G04 Created by KiCad (PCBNEW 10.0.6) date 2026-10-07 16:25:19*
%MOMM*%
%LPD*%
G01*
G04 APERTURE LIST*
G04 Aperture macros list*
%AMRoundRect*
0 Rectangle with rounded corners*
0 $1 Rounding radius*
0 $2 $3 $4 $5 $6 $7 $8 $9 X,Y pos of 4 corners*
0 Add a 4 corners polygon primitive as box body*
4,1,4,$2,$3,$4,$5,$6,$7,$8,$9,$2,$3,0*
0 Add four circle primitives for the rounded corners*
1,1,$1+$1,$2,$3*
1,1,$1+$1,$4,$5*
1,1,$1+$1,$6,$7*
1,1,$1+$1,$8,$9*
0 Add four rect primitives between the rounded corners*
20,1,$1+$1,$2,$3,$4,$5,0*
20,1,$1+$1,$4,$5,$6,$7,0*
20,1,$1+$1,$6,$7,$8,$9,0*
20,1,$1+$1,$8,$9,$2,$3,0*%
%AMFreePoly0*
4,1,15,-0.616000,0.142500,-0.283500,0.475000,0.521000,0.475000,0.557355,0.467769,0.588175,0.447175,0.608769,0.416355,0.616000,0.380000,0.616000,-0.380000,0.608769,-0.416355,0.588175,-0.447175,0.557355,-0.467769,0.521000,-0.475000,-0.283500,-0.475000,-0.616000,-0.142500,-0.616000,0.142500,-0.616000,0.142500,$1*%
G04 Aperture macros list end*
%ADD10R,1.700000X1.700000*%
%ADD11C,1.700000*%
%ADD12R,2.000000X2.000000*%
%ADD13C,2.000000*%
%ADD14RoundRect,0.095000X0.921000X0.380000X-0.921000X0.380000X-0.921000X-0.380000X0.921000X-0.380000X0*%
%ADD15RoundRect,0.095000X-0.921000X-0.380000X0.921000X-0.380000X0.921000X0.380000X-0.921000X0.380000X0*%
%ADD16FreePoly0,180.000000*%
%ADD17FreePoly0,0.000000*%
%ADD18RoundRect,0.110000X-0.440000X1.140000X-0.440000X-1.140000X0.440000X-1.140000X0.440000X1.140000X0*%
%ADD19RoundRect,0.250000X-1.150000X-1.000000X1.150000X-1.000000X1.150000X1.000000X-1.150000X1.000000X0*%
%ADD20C,1.400000*%
%ADD21C,4.000000*%
%ADD22C,2.200000*%
%ADD23R,1.524000X1.524000*%
%ADD24C,1.524000*%
%ADD25O,3.800000X2.900000*%
%ADD26O,1.700000X1.700000*%
%ADD27C,1.600000*%
%ADD28R,1.500000X1.500000*%
%ADD29C,1.500000*%
G04 APERTURE END LIST*
D10*
%TO.C,G2x8*%
X210300000Y-112460000D03*
D11*
X210300000Y-115000000D03*
X212840000Y-112460000D03*
X212840000Y-115000000D03*
X215380000Y-112460000D03*
X215380000Y-115000000D03*
X217920000Y-112460000D03*
X217920000Y-115000000D03*
X220460000Y-112460000D03*
X220460000Y-115000000D03*
X223000000Y-112460000D03*
X223000000Y-115000000D03*
X225540000Y-112460000D03*
X225540000Y-115000000D03*
X228080000Y-112460000D03*
X228080000Y-115000000D03*
%TD*%
D12*
%TO.C,BZ1*%
X215400000Y-91500000D03*
D13*
X223000000Y-91500000D03*
%TD*%
D14*
%TO.C,U1*%
X233620000Y-63896000D03*
X233620000Y-66436000D03*
X233620000Y-68976000D03*
X233620000Y-71516000D03*
X233620000Y-74056000D03*
X233620000Y-76596000D03*
X233620000Y-79136000D03*
D15*
X250130000Y-79136000D03*
X250130000Y-76596000D03*
X250130000Y-74056000D03*
X250130000Y-71516000D03*
X250130000Y-68976000D03*
X250130000Y-66436000D03*
X250130000Y-63896000D03*
D16*
X233220000Y-65166000D03*
X233220000Y-67706000D03*
X233220000Y-70246000D03*
X233220000Y-72786000D03*
X233220000Y-75326000D03*
X233220000Y-77866000D03*
D17*
X250530000Y-77866000D03*
X250530000Y-75326000D03*
X250530000Y-72786000D03*
D11*
X240605000Y-62880000D03*
X243145000Y-62880000D03*
X240605000Y-65420000D03*
X243145000Y-65420000D03*
X240605000Y-67960000D03*
X243145000Y-67960000D03*
X240605000Y-70500000D03*
X243145000Y-70500000D03*
D18*
X240881012Y-77033823D03*
X242881012Y-77033823D03*
D19*
X243000000Y-73391000D03*
%TD*%
D20*
%TO.C,R3*%
X254690000Y-73500000D03*
X262310000Y-73500000D03*
%TD*%
D11*
%TO.C,SW1*%
X185920000Y-70500000D03*
D21*
X191000000Y-70500000D03*
D11*
X196080000Y-70500000D03*
D22*
X193540000Y-65420000D03*
X187190000Y-67960000D03*
%TD*%
D23*
%TO.C,J2*%
X228500000Y-85880000D03*
D24*
X228500000Y-88420000D03*
X228500000Y-90960000D03*
X228500000Y-93500000D03*
X228500000Y-96040000D03*
X228500000Y-98580000D03*
X228500000Y-101120000D03*
X228500000Y-103660000D03*
%TD*%
D11*
%TO.C,SW3*%
X243730000Y-117500000D03*
D21*
X248810000Y-117500000D03*
D11*
X253890000Y-117500000D03*
D22*
X251350000Y-112420000D03*
X245000000Y-114960000D03*
%TD*%
D25*
%TO.C,J1*%
X227866000Y-78865000D03*
X227866000Y-55751000D03*
X205514000Y-78865000D03*
X205514000Y-55751000D03*
D10*
X220500000Y-79500000D03*
D26*
X217960000Y-79500000D03*
X215420000Y-79500000D03*
X212880000Y-79500000D03*
%TD*%
D11*
%TO.C,SW2*%
X196340000Y-93000000D03*
D21*
X201420000Y-93000000D03*
D11*
X206500000Y-93000000D03*
D22*
X203960000Y-87920000D03*
X197610000Y-90460000D03*
%TD*%
D20*
%TO.C,R4*%
X244500000Y-86380000D03*
X244500000Y-94000000D03*
%TD*%
D27*
%TO.C,R2*%
X257060000Y-64400000D03*
X259600000Y-64400000D03*
%TD*%
D20*
%TO.C,R1*%
X223540000Y-43500000D03*
X215920000Y-43500000D03*
%TD*%
D28*
%TO.C,U2*%
X222540000Y-49500000D03*
D29*
X220000000Y-49500000D03*
X217460000Y-49500000D03*
X214920000Y-49500000D03*
%TD*%
M02*
