%TF.GenerationSoftware,KiCad,Pcbnew,10.0.6*%
%TF.CreationDate,2026-10-07T16:25:19+11:00*%
%TF.ProjectId,starbie,73746172-6269-4652-9e6b-696361645f70,rev?*%
%TF.SameCoordinates,Original*%
%TF.FileFunction,Copper,L2,Bot*%
%TF.FilePolarity,Positive*%
%FSLAX46Y46*%
G04 Gerber Fmt 4.6, Leading zero omitted, Abs format (unit mm)*
G04 Created by KiCad (PCBNEW 10.0.6) date 2026-10-07 16:25:19*
%MOMM*%
%LPD*%
G01*
G04 APERTURE LIST*
%TA.AperFunction,ComponentPad*%
%ADD10R,1.700000X1.700000*%
%TD*%
%TA.AperFunction,ComponentPad*%
%ADD11C,1.700000*%
%TD*%
%TA.AperFunction,ComponentPad*%
%ADD12R,2.000000X2.000000*%
%TD*%
%TA.AperFunction,ComponentPad*%
%ADD13C,2.000000*%
%TD*%
%TA.AperFunction,ComponentPad*%
%ADD14C,1.400000*%
%TD*%
%TA.AperFunction,ComponentPad*%
%ADD15C,2.200000*%
%TD*%
%TA.AperFunction,ComponentPad*%
%ADD16R,1.524000X1.524000*%
%TD*%
%TA.AperFunction,ComponentPad*%
%ADD17C,1.524000*%
%TD*%
%TA.AperFunction,ComponentPad*%
%ADD18O,1.700000X1.700000*%
%TD*%
%TA.AperFunction,ComponentPad*%
%ADD19C,1.600000*%
%TD*%
%TA.AperFunction,ComponentPad*%
%ADD20R,1.500000X1.500000*%
%TD*%
%TA.AperFunction,ComponentPad*%
%ADD21C,1.500000*%
%TD*%
%TA.AperFunction,ViaPad*%
%ADD22C,0.600000*%
%TD*%
%TA.AperFunction,Conductor*%
%ADD23C,0.200000*%
%TD*%
G04 APERTURE END LIST*
D10*
%TO.P,G2x8,1,Pin_1_1*%
%TO.N,/D6*%
X210300000Y-112460000D03*
D11*
%TO.P,G2x8,2,Pin_2_2*%
%TO.N,/D7*%
X210300000Y-115000000D03*
%TO.P,G2x8,3,Pin_3_3*%
%TO.N,/D10*%
X212840000Y-112460000D03*
%TO.P,G2x8,4,Pin_4_4*%
%TO.N,/D11*%
X212840000Y-115000000D03*
%TO.P,G2x8,5,Pin_5_5*%
%TO.N,/D12*%
X215380000Y-112460000D03*
%TO.P,G2x8,6,Pin_6_6*%
%TO.N,/D13*%
X215380000Y-115000000D03*
%TO.P,G2x8,7,Pin_7_7*%
%TO.N,/D14*%
X217920000Y-112460000D03*
%TO.P,G2x8,8,Pin_8_8*%
%TO.N,/D15*%
X217920000Y-115000000D03*
%TO.P,G2x8,9,Pin_9_9*%
%TO.N,/D16*%
X220460000Y-112460000D03*
%TO.P,G2x8,10,Pin_10_10*%
%TO.N,/D17*%
X220460000Y-115000000D03*
%TO.P,G2x8,11,Pin_11_11*%
%TO.N,/SDA*%
X223000000Y-112460000D03*
%TO.P,G2x8,12,Pin_12_12*%
%TO.N,/D18*%
X223000000Y-115000000D03*
%TO.P,G2x8,13,Pin_13_13*%
%TO.N,/SCL*%
X225540000Y-112460000D03*
%TO.P,G2x8,14,Pin_14_14*%
%TO.N,/D19*%
X225540000Y-115000000D03*
%TO.P,G2x8,15,Pin_15_15*%
%TO.N,+3V3*%
X228080000Y-112460000D03*
%TO.P,G2x8,16,Pin_16_16*%
%TO.N,GND*%
X228080000Y-115000000D03*
%TD*%
D12*
%TO.P,BZ1,1,+_1*%
%TO.N,Net-(BZ1-+)*%
X215400000Y-91500000D03*
D13*
%TO.P,BZ1,2,-_2*%
%TO.N,GND*%
X223000000Y-91500000D03*
%TD*%
D14*
%TO.P,R3,1*%
%TO.N,/A8*%
X254690000Y-73500000D03*
%TO.P,R3,2*%
%TO.N,GND*%
X262310000Y-73500000D03*
%TD*%
D15*
%TO.P,SW1,1,1_1*%
%TO.N,/GPIO2*%
X193540000Y-65420000D03*
%TO.P,SW1,2,2_2*%
%TO.N,GND*%
X187190000Y-67960000D03*
%TD*%
D16*
%TO.P,J2,1,Pin_1_1*%
%TO.N,+3V3*%
X228500000Y-85880000D03*
D17*
%TO.P,J2,2,Pin_2_2*%
%TO.N,GND*%
X228500000Y-88420000D03*
%TO.P,J2,3,Pin_3_3*%
%TO.N,/SCL*%
X228500000Y-90960000D03*
%TO.P,J2,4,Pin_4_4*%
%TO.N,/SDA*%
X228500000Y-93500000D03*
%TO.P,J2,5,Pin_5_5*%
%TO.N,unconnected-(J2-Pin_5-Pad5)*%
X228500000Y-96040000D03*
%TO.P,J2,6,Pin_6_6*%
%TO.N,unconnected-(J2-Pin_6-Pad6)*%
X228500000Y-98580000D03*
%TO.P,J2,7,Pin_7_7*%
%TO.N,unconnected-(J2-Pin_7-Pad7)*%
X228500000Y-101120000D03*
%TO.P,J2,8,Pin_8_8*%
%TO.N,unconnected-(J2-Pin_8-Pad8)*%
X228500000Y-103660000D03*
%TD*%
D15*
%TO.P,SW3,1,1_1*%
%TO.N,/GPIO4*%
X251350000Y-112420000D03*
%TO.P,SW3,2,2_2*%
%TO.N,GND*%
X245000000Y-114960000D03*
%TD*%
D10*
%TO.P,J1,1,Pin_1_1*%
%TO.N,GND*%
X220500000Y-79500000D03*
D18*
%TO.P,J1,2,Pin_2_2*%
%TO.N,+3V3*%
X217960000Y-79500000D03*
%TO.P,J1,3,Pin_3_3*%
%TO.N,/SCL*%
X215420000Y-79500000D03*
%TO.P,J1,4,Pin_4_4*%
%TO.N,/SDA*%
X212880000Y-79500000D03*
%TD*%
D15*
%TO.P,SW2,1,1_1*%
%TO.N,/GPIO3*%
X203960000Y-87920000D03*
%TO.P,SW2,2,2_2*%
%TO.N,GND*%
X197610000Y-90460000D03*
%TD*%
D14*
%TO.P,R4,1*%
%TO.N,/A9*%
X244500000Y-86380000D03*
%TO.P,R4,2*%
%TO.N,Net-(BZ1-+)*%
X244500000Y-94000000D03*
%TD*%
D19*
%TO.P,R2,1*%
%TO.N,+3V3*%
X257060000Y-64400000D03*
%TO.P,R2,2*%
%TO.N,/A8*%
X259600000Y-64400000D03*
%TD*%
D14*
%TO.P,R1,1*%
%TO.N,+3V3*%
X223540000Y-43500000D03*
%TO.P,R1,2*%
%TO.N,/DHT11 DATA*%
X215920000Y-43500000D03*
%TD*%
D20*
%TO.P,U2,1,VDD_1*%
%TO.N,+3V3*%
X222540000Y-49500000D03*
D21*
%TO.P,U2,2,DATA_2*%
%TO.N,/DHT11 DATA*%
X220000000Y-49500000D03*
%TO.P,U2,3,NC_3*%
%TO.N,unconnected-(U2-NC-Pad3)*%
X217460000Y-49500000D03*
%TO.P,U2,4,GND_4*%
%TO.N,GND*%
X214920000Y-49500000D03*
%TD*%
D22*
%TO.N,/SDA*%
X215500000Y-87500000D03*
X222000000Y-74000000D03*
X214500000Y-74000000D03*
%TO.N,/SCL*%
X220000000Y-76000000D03*
X215500000Y-89000000D03*
X215500000Y-76000000D03*
%TO.N,+3V3*%
X222500000Y-52000000D03*
%TO.N,/GPIO4*%
X247500000Y-104000000D03*
X236500000Y-80500000D03*
%TO.N,Net-(BZ1-+)*%
X233000000Y-105500000D03*
X224000000Y-105500000D03*
%TO.N,/D6*%
X231000000Y-82000000D03*
X217500000Y-83000000D03*
X211234313Y-88434313D03*
%TO.N,/D17*%
X250530000Y-72786000D03*
X253519265Y-75519265D03*
%TO.N,/D18*%
X250530000Y-75326000D03*
%TO.N,/D14*%
X218500000Y-85000000D03*
%TO.N,/D10*%
X233000000Y-106300003D03*
X252019265Y-77019265D03*
X224000000Y-106300003D03*
X252000000Y-74500000D03*
%TO.N,/D15*%
X219500000Y-82400000D03*
X231000000Y-77500000D03*
X220000000Y-84600000D03*
%TO.N,/D12*%
X227500000Y-64600000D03*
%TO.N,/D11*%
X194000000Y-70500000D03*
X191500000Y-64000000D03*
%TO.N,/D19*%
X228500000Y-117400000D03*
X250530000Y-77866000D03*
X249000000Y-82500000D03*
%TO.N,/D16*%
X221000000Y-84600000D03*
X228000000Y-84100000D03*
X224000000Y-84100000D03*
%TO.N,/D7*%
X217500000Y-84000000D03*
X211800000Y-89000000D03*
X230651470Y-84000000D03*
%TO.N,/D13*%
X233220000Y-70246000D03*
%TD*%
%TO.N,/SDA*%
D23*
X215500000Y-82120000D02*
X215500000Y-87500000D01*
X214500000Y-74000000D02*
X222000000Y-74000000D01*
X223000000Y-99000000D02*
X228500000Y-93500000D01*
X223000000Y-112460000D02*
X223000000Y-99000000D01*
X212880000Y-79500000D02*
X215500000Y-82120000D01*
%TO.N,/SCL*%
X216270000Y-88230000D02*
X215500000Y-89000000D01*
X216270000Y-80350000D02*
X216270000Y-88230000D01*
X215420000Y-79500000D02*
X216270000Y-80350000D01*
X215500000Y-76000000D02*
X220000000Y-76000000D01*
%TO.N,+3V3*%
X228500000Y-68960000D02*
X217960000Y-79500000D01*
X222500000Y-58751471D02*
X225748529Y-62000000D01*
X225748529Y-62000000D02*
X227000000Y-62000000D01*
X249500000Y-66000000D02*
X255460000Y-66000000D01*
X255460000Y-66000000D02*
X257060000Y-64400000D01*
X227000000Y-62000000D02*
X228500000Y-63500000D01*
X228500000Y-85880000D02*
X229620000Y-85880000D01*
X222500000Y-52000000D02*
X222500000Y-58751471D01*
X229620000Y-85880000D02*
X249500000Y-66000000D01*
X228500000Y-63500000D02*
X228500000Y-68960000D01*
%TO.N,/GPIO4*%
X247500000Y-91500000D02*
X236500000Y-80500000D01*
X247500000Y-104000000D02*
X247500000Y-91500000D01*
%TO.N,Net-(BZ1-+)*%
X224000000Y-105500000D02*
X233000000Y-105500000D01*
%TO.N,/D6*%
X210300000Y-112460000D02*
X210300000Y-89368626D01*
X230000000Y-83000000D02*
X217500000Y-83000000D01*
X210300000Y-89368626D02*
X211234313Y-88434313D01*
X231000000Y-82000000D02*
X230000000Y-83000000D01*
%TO.N,/D17*%
X251786000Y-72786000D02*
X250530000Y-72786000D01*
X253519265Y-75519265D02*
X253519265Y-74519265D01*
X253519265Y-74519265D02*
X251786000Y-72786000D01*
%TO.N,/D18*%
X239000000Y-103166346D02*
X228316346Y-113850000D01*
X239000000Y-103166346D02*
X245817817Y-103166346D01*
X247748529Y-104600000D02*
X248100000Y-104248529D01*
X247251471Y-104600000D02*
X247748529Y-104600000D01*
X245817817Y-103166346D02*
X247251471Y-104600000D01*
X224150000Y-113850000D02*
X223000000Y-115000000D01*
X228316346Y-113850000D02*
X224150000Y-113850000D01*
X248100000Y-77756000D02*
X250530000Y-75326000D01*
X248100000Y-104248529D02*
X248100000Y-77756000D01*
%TO.N,/D14*%
X217920000Y-85580000D02*
X218500000Y-85000000D01*
X217920000Y-112460000D02*
X217920000Y-85580000D01*
%TO.N,/D10*%
X252019265Y-77019265D02*
X252500000Y-76538530D01*
X224000000Y-106300003D02*
X233000000Y-106300003D01*
X252500000Y-76538530D02*
X252500000Y-75000000D01*
X252500000Y-75000000D02*
X252000000Y-74500000D01*
%TO.N,/D15*%
X219500000Y-82400000D02*
X228100000Y-82400000D01*
X228100000Y-82400000D02*
X230500000Y-80000000D01*
X219310000Y-113610000D02*
X219310000Y-85190000D01*
X219900000Y-84600000D02*
X220000000Y-84600000D01*
X219310000Y-85190000D02*
X219900000Y-84600000D01*
X217920000Y-115000000D02*
X219310000Y-113610000D01*
X230500000Y-80000000D02*
X230500000Y-78000000D01*
X230500000Y-78000000D02*
X231000000Y-77500000D01*
%TO.N,/D12*%
X195000000Y-71117056D02*
X195000000Y-71500000D01*
X212466346Y-117000000D02*
X214000000Y-115466346D01*
X208000000Y-117000000D02*
X212466346Y-117000000D01*
X195000000Y-69882944D02*
X194880000Y-70002944D01*
X227400000Y-64500000D02*
X197500000Y-64500000D01*
X195000000Y-67000000D02*
X195000000Y-69882944D01*
X197500000Y-64500000D02*
X195000000Y-67000000D01*
X195000000Y-71500000D02*
X192500000Y-74000000D01*
X227500000Y-64600000D02*
X227400000Y-64500000D01*
X194880000Y-70002944D02*
X194880000Y-70997056D01*
X214000000Y-115466346D02*
X214000000Y-113840000D01*
X192500000Y-74000000D02*
X192500000Y-101500000D01*
X214000000Y-113840000D02*
X215380000Y-112460000D01*
X194880000Y-70997056D02*
X195000000Y-71117056D01*
X192500000Y-101500000D02*
X208000000Y-117000000D01*
%TO.N,/D11*%
X194000000Y-70500000D02*
X194000000Y-69565686D01*
X194000000Y-69565686D02*
X191500000Y-67065686D01*
X191500000Y-67065686D02*
X191500000Y-64000000D01*
%TO.N,/D19*%
X249000000Y-82500000D02*
X250530000Y-80970000D01*
X250530000Y-80970000D02*
X250530000Y-77866000D01*
X228400000Y-117500000D02*
X228500000Y-117400000D01*
X228040000Y-117500000D02*
X228400000Y-117500000D01*
X225540000Y-115000000D02*
X228040000Y-117500000D01*
%TO.N,/D16*%
X220460000Y-85540000D02*
X221000000Y-85000000D01*
X224000000Y-84100000D02*
X228000000Y-84100000D01*
X221000000Y-85000000D02*
X221000000Y-84600000D01*
X220460000Y-112460000D02*
X220460000Y-85540000D01*
%TO.N,/D7*%
X211450000Y-113850000D02*
X211450000Y-89350000D01*
X211450000Y-89350000D02*
X211800000Y-89000000D01*
X210300000Y-115000000D02*
X211450000Y-113850000D01*
X230151470Y-83500000D02*
X218000000Y-83500000D01*
X230651470Y-84000000D02*
X230151470Y-83500000D01*
X218000000Y-83500000D02*
X217500000Y-84000000D01*
%TO.N,/D13*%
X215380000Y-115000000D02*
X216530000Y-113850000D01*
X233135862Y-70246000D02*
X233220000Y-70246000D01*
X222130391Y-81251471D02*
X233135862Y-70246000D01*
X218400000Y-81251471D02*
X222130391Y-81251471D01*
X216530000Y-113850000D02*
X216530000Y-95230000D01*
X217000000Y-94760000D02*
X217000000Y-84348529D01*
X216530000Y-95230000D02*
X217000000Y-94760000D01*
X217000000Y-84348529D02*
X216900000Y-84248529D01*
X216900000Y-82751471D02*
X218400000Y-81251471D01*
X216900000Y-84248529D02*
X216900000Y-82751471D01*
%TD*%
M02*
