M48
; DRILL file KiCad 10.0.6 date 2026-10-07T16:25:14
; FORMAT={-:-/ absolute / metric / decimal}
; #@! TF.CreationDate,2026-10-07T16:25:14+11:00
; #@! TF.GenerationSoftware,Kicad,Pcbnew,10.0.6
; #@! TF.FileFunction,Plated,1,2,PTH
FMAT,2
METRIC
; #@! TA.AperFunction,Plated,PTH,ViaDrill
T1C0.300
; #@! TA.AperFunction,Plated,PTH,ComponentDrill
T2C0.700
; #@! TA.AperFunction,Plated,PTH,ComponentDrill
T3C0.762
; #@! TA.AperFunction,Plated,PTH,ComponentDrill
T4C0.800
; #@! TA.AperFunction,Plated,PTH,ComponentDrill
T5C1.000
; #@! TA.AperFunction,Plated,PTH,ComponentDrill
T6C1.500
%
G90
G05
T1
X191.5Y-64.0
X194.0Y-70.5
X211.234Y-88.434
X211.8Y-89.0
X214.5Y-74.0
X215.5Y-76.0
X215.5Y-87.5
X215.5Y-89.0
X217.5Y-83.0
X217.5Y-84.0
X218.5Y-85.0
X219.5Y-82.4
X220.0Y-76.0
X220.0Y-84.6
X221.0Y-84.6
X222.0Y-74.0
X222.5Y-52.0
X224.0Y-84.1
X224.0Y-105.5
X224.0Y-106.3
X227.5Y-64.6
X228.0Y-84.1
X228.5Y-117.4
X230.651Y-84.0
X231.0Y-77.5
X231.0Y-82.0
X233.0Y-105.5
X233.0Y-106.3
X233.22Y-70.246
X236.5Y-80.5
X247.5Y-104.0
X249.0Y-82.5
X250.53Y-72.786
X250.53Y-75.326
X250.53Y-77.866
X252.0Y-74.5
X252.019Y-77.019
X253.519Y-75.519
T2
X215.92Y-43.5
X223.54Y-43.5
X244.5Y-86.38
X244.5Y-94.0
X254.69Y-73.5
X262.31Y-73.5
T3
X228.5Y-85.88
X228.5Y-88.42
X228.5Y-90.96
X228.5Y-93.5
X228.5Y-96.04
X228.5Y-98.58
X228.5Y-101.12
X228.5Y-103.66
T4
X214.92Y-49.5
X217.46Y-49.5
X220.0Y-49.5
X222.54Y-49.5
X257.06Y-64.4
X259.6Y-64.4
T5
X210.3Y-112.46
X210.3Y-115.0
X212.84Y-112.46
X212.84Y-115.0
X212.88Y-79.5
X215.38Y-112.46
X215.38Y-115.0
X215.4Y-91.5
X215.42Y-79.5
X217.92Y-112.46
X217.92Y-115.0
X217.96Y-79.5
X220.46Y-112.46
X220.46Y-115.0
X220.5Y-79.5
X223.0Y-91.5
X223.0Y-112.46
X223.0Y-115.0
X225.54Y-112.46
X225.54Y-115.0
X228.08Y-112.46
X228.08Y-115.0
T6
X187.19Y-67.96
X193.54Y-65.42
X197.61Y-90.46
X203.96Y-87.92
X245.0Y-114.96
X251.35Y-112.42
M30
