%TF.GenerationSoftware,KiCad,Pcbnew,10.0.6*%
%TF.CreationDate,2026-10-07T16:25:19+11:00*%
%TF.ProjectId,starbie,73746172-6269-4652-9e6b-696361645f70,rev?*%
%TF.SameCoordinates,Original*%
%TF.FileFunction,Soldermask,Bot*%
%TF.FilePolarity,Negative*%
%FSLAX46Y46*%
G04 Gerber Fmt 4.6, Leading zero omitted, Abs format (unit mm)*
G04 Created by KiCad (PCBNEW 10.0.6) date 2026-10-07 16:25:19*
%MOMM*%
%LPD*%
G01*
G04 APERTURE LIST*
%ADD10R,1.700000X1.700000*%
%ADD11C,1.700000*%
%ADD12R,2.000000X2.000000*%
%ADD13C,2.000000*%
%ADD14C,1.400000*%
%ADD15C,4.000000*%
%ADD16C,2.200000*%
%ADD17R,1.524000X1.524000*%
%ADD18C,1.524000*%
%ADD19O,3.800000X2.900000*%
%ADD20O,1.700000X1.700000*%
%ADD21C,1.600000*%
%ADD22R,1.500000X1.500000*%
%ADD23C,1.500000*%
G04 APERTURE END LIST*
D10*
%TO.C,G2x8*%
X210300000Y-112460000D03*
D11*
X210300000Y-115000000D03*
X212840000Y-112460000D03*
X212840000Y-115000000D03*
X215380000Y-112460000D03*
X215380000Y-115000000D03*
X217920000Y-112460000D03*
X217920000Y-115000000D03*
X220460000Y-112460000D03*
X220460000Y-115000000D03*
X223000000Y-112460000D03*
X223000000Y-115000000D03*
X225540000Y-112460000D03*
X225540000Y-115000000D03*
X228080000Y-112460000D03*
X228080000Y-115000000D03*
%TD*%
D12*
%TO.C,BZ1*%
X215400000Y-91500000D03*
D13*
X223000000Y-91500000D03*
%TD*%
D14*
%TO.C,R3*%
X254690000Y-73500000D03*
X262310000Y-73500000D03*
%TD*%
D11*
%TO.C,SW1*%
X185920000Y-70500000D03*
D15*
X191000000Y-70500000D03*
D11*
X196080000Y-70500000D03*
D16*
X193540000Y-65420000D03*
X187190000Y-67960000D03*
%TD*%
D17*
%TO.C,J2*%
X228500000Y-85880000D03*
D18*
X228500000Y-88420000D03*
X228500000Y-90960000D03*
X228500000Y-93500000D03*
X228500000Y-96040000D03*
X228500000Y-98580000D03*
X228500000Y-101120000D03*
X228500000Y-103660000D03*
%TD*%
D11*
%TO.C,SW3*%
X243730000Y-117500000D03*
D15*
X248810000Y-117500000D03*
D11*
X253890000Y-117500000D03*
D16*
X251350000Y-112420000D03*
X245000000Y-114960000D03*
%TD*%
D19*
%TO.C,J1*%
X227866000Y-78865000D03*
X227866000Y-55751000D03*
X205514000Y-78865000D03*
X205514000Y-55751000D03*
D10*
X220500000Y-79500000D03*
D20*
X217960000Y-79500000D03*
X215420000Y-79500000D03*
X212880000Y-79500000D03*
%TD*%
D11*
%TO.C,SW2*%
X196340000Y-93000000D03*
D15*
X201420000Y-93000000D03*
D11*
X206500000Y-93000000D03*
D16*
X203960000Y-87920000D03*
X197610000Y-90460000D03*
%TD*%
D14*
%TO.C,R4*%
X244500000Y-86380000D03*
X244500000Y-94000000D03*
%TD*%
D21*
%TO.C,R2*%
X257060000Y-64400000D03*
X259600000Y-64400000D03*
%TD*%
D14*
%TO.C,R1*%
X223540000Y-43500000D03*
X215920000Y-43500000D03*
%TD*%
D22*
%TO.C,U2*%
X222540000Y-49500000D03*
D23*
X220000000Y-49500000D03*
X217460000Y-49500000D03*
X214920000Y-49500000D03*
%TD*%
M02*
