%TF.GenerationSoftware,KiCad,Pcbnew,10.0.6*%
%TF.CreationDate,2026-10-07T16:25:19+11:00*%
%TF.ProjectId,starbie,73746172-6269-4652-9e6b-696361645f70,rev?*%
%TF.SameCoordinates,Original*%
%TF.FileFunction,Copper,L1,Top*%
%TF.FilePolarity,Positive*%
%FSLAX46Y46*%
G04 Gerber Fmt 4.6, Leading zero omitted, Abs format (unit mm)*
G04 Created by KiCad (PCBNEW 10.0.6) date 2026-10-07 16:25:19*
%MOMM*%
%LPD*%
G01*
G04 APERTURE LIST*
G04 Aperture macros list*
%AMRoundRect*
0 Rectangle with rounded corners*
0 $1 Rounding radius*
0 $2 $3 $4 $5 $6 $7 $8 $9 X,Y pos of 4 corners*
0 Add a 4 corners polygon primitive as box body*
4,1,4,$2,$3,$4,$5,$6,$7,$8,$9,$2,$3,0*
0 Add four circle primitives for the rounded corners*
1,1,$1+$1,$2,$3*
1,1,$1+$1,$4,$5*
1,1,$1+$1,$6,$7*
1,1,$1+$1,$8,$9*
0 Add four rect primitives between the rounded corners*
20,1,$1+$1,$2,$3,$4,$5,0*
20,1,$1+$1,$4,$5,$6,$7,0*
20,1,$1+$1,$6,$7,$8,$9,0*
20,1,$1+$1,$8,$9,$2,$3,0*%
%AMFreePoly0*
4,1,15,-0.616000,0.142500,-0.283500,0.475000,0.521000,0.475000,0.557355,0.467769,0.588175,0.447175,0.608769,0.416355,0.616000,0.380000,0.616000,-0.380000,0.608769,-0.416355,0.588175,-0.447175,0.557355,-0.467769,0.521000,-0.475000,-0.283500,-0.475000,-0.616000,-0.142500,-0.616000,0.142500,-0.616000,0.142500,$1*%
G04 Aperture macros list end*
%TA.AperFunction,ComponentPad*%
%ADD10R,1.700000X1.700000*%
%TD*%
%TA.AperFunction,ComponentPad*%
%ADD11C,1.700000*%
%TD*%
%TA.AperFunction,ComponentPad*%
%ADD12R,2.000000X2.000000*%
%TD*%
%TA.AperFunction,ComponentPad*%
%ADD13C,2.000000*%
%TD*%
%TA.AperFunction,SMDPad,CuDef*%
%ADD14RoundRect,0.095000X0.921000X0.380000X-0.921000X0.380000X-0.921000X-0.380000X0.921000X-0.380000X0*%
%TD*%
%TA.AperFunction,SMDPad,CuDef*%
%ADD15RoundRect,0.095000X-0.921000X-0.380000X0.921000X-0.380000X0.921000X0.380000X-0.921000X0.380000X0*%
%TD*%
%TA.AperFunction,SMDPad,CuDef*%
%ADD16FreePoly0,180.000000*%
%TD*%
%TA.AperFunction,SMDPad,CuDef*%
%ADD17FreePoly0,0.000000*%
%TD*%
%TA.AperFunction,SMDPad,CuDef*%
%ADD18C,1.700000*%
%TD*%
%TA.AperFunction,SMDPad,CuDef*%
%ADD19RoundRect,0.110000X-0.440000X1.140000X-0.440000X-1.140000X0.440000X-1.140000X0.440000X1.140000X0*%
%TD*%
%TA.AperFunction,SMDPad,CuDef*%
%ADD20RoundRect,0.250000X-1.150000X-1.000000X1.150000X-1.000000X1.150000X1.000000X-1.150000X1.000000X0*%
%TD*%
%TA.AperFunction,ComponentPad*%
%ADD21C,1.400000*%
%TD*%
%TA.AperFunction,ComponentPad*%
%ADD22C,2.200000*%
%TD*%
%TA.AperFunction,ComponentPad*%
%ADD23R,1.524000X1.524000*%
%TD*%
%TA.AperFunction,ComponentPad*%
%ADD24C,1.524000*%
%TD*%
%TA.AperFunction,ComponentPad*%
%ADD25O,1.700000X1.700000*%
%TD*%
%TA.AperFunction,ComponentPad*%
%ADD26C,1.600000*%
%TD*%
%TA.AperFunction,ComponentPad*%
%ADD27R,1.500000X1.500000*%
%TD*%
%TA.AperFunction,ComponentPad*%
%ADD28C,1.500000*%
%TD*%
%TA.AperFunction,ViaPad*%
%ADD29C,0.600000*%
%TD*%
%TA.AperFunction,Conductor*%
%ADD30C,0.200000*%
%TD*%
G04 APERTURE END LIST*
D10*
%TO.P,G2x8,1,Pin_1_1*%
%TO.N,/D6*%
X210300000Y-112460000D03*
D11*
%TO.P,G2x8,2,Pin_2_2*%
%TO.N,/D7*%
X210300000Y-115000000D03*
%TO.P,G2x8,3,Pin_3_3*%
%TO.N,/D10*%
X212840000Y-112460000D03*
%TO.P,G2x8,4,Pin_4_4*%
%TO.N,/D11*%
X212840000Y-115000000D03*
%TO.P,G2x8,5,Pin_5_5*%
%TO.N,/D12*%
X215380000Y-112460000D03*
%TO.P,G2x8,6,Pin_6_6*%
%TO.N,/D13*%
X215380000Y-115000000D03*
%TO.P,G2x8,7,Pin_7_7*%
%TO.N,/D14*%
X217920000Y-112460000D03*
%TO.P,G2x8,8,Pin_8_8*%
%TO.N,/D15*%
X217920000Y-115000000D03*
%TO.P,G2x8,9,Pin_9_9*%
%TO.N,/D16*%
X220460000Y-112460000D03*
%TO.P,G2x8,10,Pin_10_10*%
%TO.N,/D17*%
X220460000Y-115000000D03*
%TO.P,G2x8,11,Pin_11_11*%
%TO.N,/SDA*%
X223000000Y-112460000D03*
%TO.P,G2x8,12,Pin_12_12*%
%TO.N,/D18*%
X223000000Y-115000000D03*
%TO.P,G2x8,13,Pin_13_13*%
%TO.N,/SCL*%
X225540000Y-112460000D03*
%TO.P,G2x8,14,Pin_14_14*%
%TO.N,/D19*%
X225540000Y-115000000D03*
%TO.P,G2x8,15,Pin_15_15*%
%TO.N,+3V3*%
X228080000Y-112460000D03*
%TO.P,G2x8,16,Pin_16_16*%
%TO.N,GND*%
X228080000Y-115000000D03*
%TD*%
D12*
%TO.P,BZ1,1,+_1*%
%TO.N,Net-(BZ1-+)*%
X215400000Y-91500000D03*
D13*
%TO.P,BZ1,2,-_2*%
%TO.N,GND*%
X223000000Y-91500000D03*
%TD*%
D14*
%TO.P,U1,1,D0_1*%
%TO.N,/DHT11 DATA*%
X233620000Y-63896000D03*
%TO.P,U1,2,D1_2*%
%TO.N,/GPIO2*%
X233620000Y-66436000D03*
%TO.P,U1,3,D2_3*%
%TO.N,/GPIO3*%
X233620000Y-68976000D03*
%TO.P,U1,4,D3_4*%
%TO.N,/GPIO4*%
X233620000Y-71516000D03*
%TO.P,U1,5,D4_5*%
%TO.N,/SDA*%
X233620000Y-74056000D03*
%TO.P,U1,6,D5_6*%
%TO.N,/SCL*%
X233620000Y-76596000D03*
%TO.P,U1,7,D6_7*%
%TO.N,/D6*%
X233620000Y-79136000D03*
D15*
%TO.P,U1,8,D7_8*%
%TO.N,/D7*%
X250130000Y-79136000D03*
%TO.P,U1,9,D8_9*%
%TO.N,/A8*%
X250130000Y-76596000D03*
%TO.P,U1,10,D9_10*%
%TO.N,/A9*%
X250130000Y-74056000D03*
%TO.P,U1,11,D10_11*%
%TO.N,/D10*%
X250130000Y-71516000D03*
%TO.P,U1,12,3V3_OUT_12*%
%TO.N,+3V3*%
X250130000Y-68976000D03*
%TO.P,U1,13,GND_13*%
%TO.N,GND*%
X250130000Y-66436000D03*
%TO.P,U1,14,VBUS_14*%
%TO.N,+5V*%
X250130000Y-63896000D03*
D16*
%TO.P,U1,15,D11_15*%
%TO.N,/D11*%
X233220000Y-65166000D03*
%TO.P,U1,16,D12_16*%
%TO.N,/D12*%
X233220000Y-67706000D03*
%TO.P,U1,17,D13_17*%
%TO.N,/D13*%
X233220000Y-70246000D03*
%TO.P,U1,18,D14_18*%
%TO.N,/D14*%
X233220000Y-72786000D03*
%TO.P,U1,19,D15_19*%
%TO.N,/D15*%
X233220000Y-75326000D03*
%TO.P,U1,20,D16_20*%
%TO.N,/D16*%
X233220000Y-77866000D03*
D17*
%TO.P,U1,21,D19_21*%
%TO.N,/D19*%
X250530000Y-77866000D03*
%TO.P,U1,22,D18_22*%
%TO.N,/D18*%
X250530000Y-75326000D03*
%TO.P,U1,23,D17_23*%
%TO.N,/D17*%
X250530000Y-72786000D03*
D18*
%TO.P,U1,24,D14/MTDI_24*%
%TO.N,unconnected-(U1-D14{slash}MTDI-Pad24)*%
X240605000Y-62880000D03*
%TO.P,U1,25,D13/MTDO_25*%
%TO.N,unconnected-(U1-D13{slash}MTDO-Pad25)*%
X243145000Y-62880000D03*
%TO.P,U1,26,EN_26*%
%TO.N,unconnected-(U1-EN-Pad26)*%
X240605000Y-65420000D03*
%TO.P,U1,27,GND_27*%
%TO.N,GND*%
X243145000Y-65420000D03*
%TO.P,U1,28,D15/MTMS_28*%
%TO.N,unconnected-(U1-D15{slash}MTMS-Pad28)*%
X240605000Y-67960000D03*
%TO.P,U1,29,D12/MTCK_29*%
%TO.N,unconnected-(U1-D12{slash}MTCK-Pad29)*%
X243145000Y-67960000D03*
%TO.P,U1,30,USB_DN_30*%
%TO.N,unconnected-(U1-USB_DN-Pad30)*%
X240605000Y-70500000D03*
%TO.P,U1,31,USB_DP_31*%
%TO.N,unconnected-(U1-USB_DP-Pad31)*%
X243145000Y-70500000D03*
D19*
%TO.P,U1,32,VBAT_32*%
%TO.N,unconnected-(U1-VBAT-Pad32)*%
X240881012Y-77033823D03*
%TO.P,U1,33,GND_33*%
%TO.N,GND*%
X242881012Y-77033823D03*
D20*
%TO.P,U1,34,PAD_34*%
X243000000Y-73391000D03*
%TD*%
D21*
%TO.P,R3,1*%
%TO.N,/A8*%
X254690000Y-73500000D03*
%TO.P,R3,2*%
%TO.N,GND*%
X262310000Y-73500000D03*
%TD*%
D22*
%TO.P,SW1,1,1_1*%
%TO.N,/GPIO2*%
X193540000Y-65420000D03*
%TO.P,SW1,2,2_2*%
%TO.N,GND*%
X187190000Y-67960000D03*
%TD*%
D23*
%TO.P,J2,1,Pin_1_1*%
%TO.N,+3V3*%
X228500000Y-85880000D03*
D24*
%TO.P,J2,2,Pin_2_2*%
%TO.N,GND*%
X228500000Y-88420000D03*
%TO.P,J2,3,Pin_3_3*%
%TO.N,/SCL*%
X228500000Y-90960000D03*
%TO.P,J2,4,Pin_4_4*%
%TO.N,/SDA*%
X228500000Y-93500000D03*
%TO.P,J2,5,Pin_5_5*%
%TO.N,unconnected-(J2-Pin_5-Pad5)*%
X228500000Y-96040000D03*
%TO.P,J2,6,Pin_6_6*%
%TO.N,unconnected-(J2-Pin_6-Pad6)*%
X228500000Y-98580000D03*
%TO.P,J2,7,Pin_7_7*%
%TO.N,unconnected-(J2-Pin_7-Pad7)*%
X228500000Y-101120000D03*
%TO.P,J2,8,Pin_8_8*%
%TO.N,unconnected-(J2-Pin_8-Pad8)*%
X228500000Y-103660000D03*
%TD*%
D22*
%TO.P,SW3,1,1_1*%
%TO.N,/GPIO4*%
X251350000Y-112420000D03*
%TO.P,SW3,2,2_2*%
%TO.N,GND*%
X245000000Y-114960000D03*
%TD*%
D10*
%TO.P,J1,1,Pin_1_1*%
%TO.N,GND*%
X220500000Y-79500000D03*
D25*
%TO.P,J1,2,Pin_2_2*%
%TO.N,+3V3*%
X217960000Y-79500000D03*
%TO.P,J1,3,Pin_3_3*%
%TO.N,/SCL*%
X215420000Y-79500000D03*
%TO.P,J1,4,Pin_4_4*%
%TO.N,/SDA*%
X212880000Y-79500000D03*
%TD*%
D22*
%TO.P,SW2,1,1_1*%
%TO.N,/GPIO3*%
X203960000Y-87920000D03*
%TO.P,SW2,2,2_2*%
%TO.N,GND*%
X197610000Y-90460000D03*
%TD*%
D21*
%TO.P,R4,1*%
%TO.N,/A9*%
X244500000Y-86380000D03*
%TO.P,R4,2*%
%TO.N,Net-(BZ1-+)*%
X244500000Y-94000000D03*
%TD*%
D26*
%TO.P,R2,1*%
%TO.N,+3V3*%
X257060000Y-64400000D03*
%TO.P,R2,2*%
%TO.N,/A8*%
X259600000Y-64400000D03*
%TD*%
D21*
%TO.P,R1,1*%
%TO.N,+3V3*%
X223540000Y-43500000D03*
%TO.P,R1,2*%
%TO.N,/DHT11 DATA*%
X215920000Y-43500000D03*
%TD*%
D27*
%TO.P,U2,1,VDD_1*%
%TO.N,+3V3*%
X222540000Y-49500000D03*
D28*
%TO.P,U2,2,DATA_2*%
%TO.N,/DHT11 DATA*%
X220000000Y-49500000D03*
%TO.P,U2,3,NC_3*%
%TO.N,unconnected-(U2-NC-Pad3)*%
X217460000Y-49500000D03*
%TO.P,U2,4,GND_4*%
%TO.N,GND*%
X214920000Y-49500000D03*
%TD*%
D29*
%TO.N,/SDA*%
X215500000Y-87500000D03*
X222000000Y-74000000D03*
X214500000Y-74000000D03*
%TO.N,/SCL*%
X220000000Y-76000000D03*
X215500000Y-89000000D03*
X215500000Y-76000000D03*
%TO.N,+3V3*%
X222500000Y-52000000D03*
%TO.N,/GPIO4*%
X247500000Y-104000000D03*
X236500000Y-80500000D03*
%TO.N,Net-(BZ1-+)*%
X233000000Y-105500000D03*
X224000000Y-105500000D03*
%TO.N,/D6*%
X231000000Y-82000000D03*
X217500000Y-83000000D03*
X211234313Y-88434313D03*
%TO.N,/D17*%
X250530000Y-72786000D03*
X253519265Y-75519265D03*
%TO.N,/D18*%
X250530000Y-75326000D03*
%TO.N,/D14*%
X218500000Y-85000000D03*
%TO.N,/D10*%
X233000000Y-106300003D03*
X252019265Y-77019265D03*
X224000000Y-106300003D03*
X252000000Y-74500000D03*
%TO.N,/D15*%
X219500000Y-82400000D03*
X231000000Y-77500000D03*
X220000000Y-84600000D03*
%TO.N,/D12*%
X227500000Y-64600000D03*
%TO.N,/D11*%
X194000000Y-70500000D03*
X191500000Y-64000000D03*
%TO.N,/D19*%
X228500000Y-117400000D03*
X250530000Y-77866000D03*
X249000000Y-82500000D03*
%TO.N,/D16*%
X221000000Y-84600000D03*
X228000000Y-84100000D03*
X224000000Y-84100000D03*
%TO.N,/D7*%
X217500000Y-84000000D03*
X211800000Y-89000000D03*
X230651470Y-84000000D03*
%TO.N,/D13*%
X233220000Y-70246000D03*
%TD*%
%TO.N,/SDA*%
D30*
X230000000Y-90000000D02*
X230000000Y-92000000D01*
X212880000Y-79500000D02*
X214500000Y-77880000D01*
X222000000Y-74000000D02*
X222056000Y-74056000D01*
X229600000Y-89600000D02*
X230000000Y-90000000D01*
X222056000Y-74056000D02*
X233620000Y-74056000D01*
X215500000Y-87500000D02*
X217600000Y-89600000D01*
X230000000Y-92000000D02*
X228500000Y-93500000D01*
X217600000Y-89600000D02*
X229600000Y-89600000D01*
X214500000Y-77880000D02*
X214500000Y-74000000D01*
%TO.N,/SCL*%
X215420000Y-79500000D02*
X215420000Y-76080000D01*
X228500000Y-76000000D02*
X230600000Y-78100000D01*
X232904000Y-76596000D02*
X233620000Y-76596000D01*
X225540000Y-93920000D02*
X228500000Y-90960000D01*
X231400000Y-78100000D02*
X232904000Y-76596000D01*
X215420000Y-76080000D02*
X215500000Y-76000000D01*
X227540000Y-90000000D02*
X228500000Y-90960000D01*
X225540000Y-112460000D02*
X225540000Y-93920000D01*
X215500000Y-89000000D02*
X216400000Y-89000000D01*
X216400000Y-89000000D02*
X217400000Y-90000000D01*
X230600000Y-78100000D02*
X231400000Y-78100000D01*
X217400000Y-90000000D02*
X227540000Y-90000000D01*
X220000000Y-76000000D02*
X228500000Y-76000000D01*
%TO.N,+3V3*%
X250130000Y-68976000D02*
X253106000Y-66000000D01*
X217960000Y-79610000D02*
X219350000Y-81000000D01*
X222540000Y-49500000D02*
X222540000Y-44500000D01*
X255460000Y-66000000D02*
X257060000Y-64400000D01*
X232400000Y-108140000D02*
X232400000Y-105175736D01*
X217960000Y-79500000D02*
X217960000Y-79610000D01*
X228080000Y-112460000D02*
X232400000Y-108140000D01*
X233314314Y-85880000D02*
X228500000Y-85880000D01*
X242200000Y-95375736D02*
X242200000Y-89800000D01*
X240800000Y-88400000D02*
X235834314Y-88400000D01*
X219350000Y-81000000D02*
X222500000Y-81000000D01*
X232400000Y-105175736D02*
X242200000Y-95375736D01*
X253106000Y-66000000D02*
X255460000Y-66000000D01*
X222540000Y-51960000D02*
X222500000Y-52000000D01*
X222540000Y-49500000D02*
X222540000Y-51960000D01*
X235834314Y-88400000D02*
X233314314Y-85880000D01*
X242200000Y-89800000D02*
X240800000Y-88400000D01*
X227380000Y-85880000D02*
X228500000Y-85880000D01*
X222540000Y-44500000D02*
X223540000Y-43500000D01*
X222500000Y-81000000D02*
X227380000Y-85880000D01*
%TO.N,/DHT11 DATA*%
X233620000Y-63896000D02*
X232396000Y-63896000D01*
X220000000Y-51500000D02*
X220000000Y-49500000D01*
X215920000Y-45420000D02*
X215920000Y-43500000D01*
X220000000Y-49500000D02*
X215920000Y-45420000D01*
X232396000Y-63896000D02*
X220000000Y-51500000D01*
%TO.N,/GPIO2*%
X233620000Y-66436000D02*
X233125000Y-65941000D01*
X233125000Y-65941000D02*
X232535386Y-65941000D01*
X232535386Y-65941000D02*
X230594386Y-64000000D01*
X194960000Y-64000000D02*
X193540000Y-65420000D01*
X230594386Y-64000000D02*
X194960000Y-64000000D01*
%TO.N,/GPIO3*%
X203960000Y-81460000D02*
X202500000Y-80000000D01*
X203960000Y-87920000D02*
X203960000Y-81460000D01*
X208024000Y-68976000D02*
X233620000Y-68976000D01*
X202500000Y-80000000D02*
X202500000Y-74500000D01*
X202500000Y-74500000D02*
X208024000Y-68976000D01*
%TO.N,/A8*%
X251594000Y-76596000D02*
X250130000Y-76596000D01*
X262300000Y-67100000D02*
X259600000Y-64400000D01*
X258000000Y-73500000D02*
X262300000Y-69200000D01*
X262300000Y-69200000D02*
X262300000Y-67100000D01*
X254690000Y-73500000D02*
X258000000Y-73500000D01*
X254690000Y-73500000D02*
X251594000Y-76596000D01*
%TO.N,/GPIO4*%
X251350000Y-112420000D02*
X251350000Y-107850000D01*
X236500000Y-74396000D02*
X233620000Y-71516000D01*
X251350000Y-107850000D02*
X247500000Y-104000000D01*
X236500000Y-80500000D02*
X236500000Y-74396000D01*
%TO.N,Net-(BZ1-+)*%
X223300000Y-105500000D02*
X224000000Y-105500000D01*
X215400000Y-92800000D02*
X222600000Y-100000000D01*
X233000000Y-105500000D02*
X244500000Y-94000000D01*
X222600000Y-104800000D02*
X223300000Y-105500000D01*
X215400000Y-91500000D02*
X215400000Y-92800000D01*
X222600000Y-100000000D02*
X222600000Y-104800000D01*
%TO.N,/A9*%
X244500000Y-86380000D02*
X244500000Y-79686000D01*
X244500000Y-79686000D02*
X250130000Y-74056000D01*
%TO.N,/D6*%
X211234313Y-88434313D02*
X216668626Y-83000000D01*
X231256000Y-81744000D02*
X231256000Y-81500000D01*
X231256000Y-81500000D02*
X233620000Y-79136000D01*
X231000000Y-82000000D02*
X231256000Y-81744000D01*
X216668626Y-83000000D02*
X217500000Y-83000000D01*
%TO.N,/D17*%
X249000000Y-84151472D02*
X249000000Y-100500000D01*
X249000000Y-100500000D02*
X231500000Y-118000000D01*
X223460000Y-118000000D02*
X220460000Y-115000000D01*
X253500000Y-83400000D02*
X249751472Y-83400000D01*
X253500000Y-75538530D02*
X253500000Y-83400000D01*
X253519265Y-75519265D02*
X253500000Y-75538530D01*
X249751472Y-83400000D02*
X249000000Y-84151472D01*
X231500000Y-118000000D02*
X223460000Y-118000000D01*
%TO.N,/D14*%
X219214000Y-72786000D02*
X233220000Y-72786000D01*
X216810000Y-75190000D02*
X219214000Y-72786000D01*
X216810000Y-80216346D02*
X216810000Y-75190000D01*
X218500000Y-81906346D02*
X216810000Y-80216346D01*
X218500000Y-85000000D02*
X218500000Y-81906346D01*
%TO.N,/D10*%
X252000000Y-72796386D02*
X250719614Y-71516000D01*
X213753654Y-112460000D02*
X216213654Y-110000000D01*
X224000000Y-108600000D02*
X224000000Y-106300003D01*
X251000000Y-81500000D02*
X252019265Y-80480735D01*
X252000000Y-74500000D02*
X252000000Y-72796386D01*
X212840000Y-112460000D02*
X213753654Y-112460000D01*
X222600000Y-110000000D02*
X224000000Y-108600000D01*
X233614211Y-106300003D02*
X246400000Y-93514214D01*
X246400000Y-93514214D02*
X246400000Y-83751472D01*
X233000000Y-106300003D02*
X233614211Y-106300003D01*
X248651472Y-81500000D02*
X251000000Y-81500000D01*
X216213654Y-110000000D02*
X222600000Y-110000000D01*
X250719614Y-71516000D02*
X250130000Y-71516000D01*
X252019265Y-80480735D02*
X252019265Y-77019265D01*
X246400000Y-83751472D02*
X248651472Y-81500000D01*
%TO.N,/D15*%
X232604000Y-75326000D02*
X233220000Y-75326000D01*
X220000000Y-84600000D02*
X220000000Y-82900000D01*
X220000000Y-82900000D02*
X219500000Y-82400000D01*
X231000000Y-76930000D02*
X232604000Y-75326000D01*
X231000000Y-77500000D02*
X231000000Y-76930000D01*
%TO.N,/D12*%
X232304000Y-67406000D02*
X232304000Y-66804000D01*
X232304000Y-66804000D02*
X230100000Y-64600000D01*
X230100000Y-64600000D02*
X227500000Y-64600000D01*
X232604000Y-67706000D02*
X232304000Y-67406000D01*
X233220000Y-67706000D02*
X232604000Y-67706000D01*
%TO.N,/D11*%
X230438000Y-63000000D02*
X232604000Y-65166000D01*
X191500000Y-64000000D02*
X192000000Y-64000000D01*
X211340000Y-116500000D02*
X208000000Y-116500000D01*
X212840000Y-115000000D02*
X211340000Y-116500000D01*
X193000000Y-63000000D02*
X230438000Y-63000000D01*
X192000000Y-74000000D02*
X194000000Y-72000000D01*
X192000000Y-100500000D02*
X192000000Y-74000000D01*
X208000000Y-116500000D02*
X192000000Y-100500000D01*
X192000000Y-64000000D02*
X193000000Y-63000000D01*
X232604000Y-65166000D02*
X233220000Y-65166000D01*
X194000000Y-72000000D02*
X194000000Y-70500000D01*
%TO.N,/D19*%
X231467157Y-117467157D02*
X248600000Y-100334314D01*
X248600000Y-100334314D02*
X248600000Y-82900000D01*
X248600000Y-82900000D02*
X249000000Y-82500000D01*
X228567157Y-117467157D02*
X231467157Y-117467157D01*
X228500000Y-117400000D02*
X228567157Y-117467157D01*
%TO.N,/D16*%
X221500000Y-84100000D02*
X224000000Y-84100000D01*
X228000000Y-82500000D02*
X232634000Y-77866000D01*
X228000000Y-84100000D02*
X228000000Y-82500000D01*
X221000000Y-84600000D02*
X221500000Y-84100000D01*
X232634000Y-77866000D02*
X233220000Y-77866000D01*
%TO.N,/D7*%
X211800000Y-89000000D02*
X216800000Y-84000000D01*
X236000000Y-88000000D02*
X245000000Y-88000000D01*
X245000000Y-88000000D02*
X246000000Y-87000000D01*
X232000000Y-84000000D02*
X236000000Y-88000000D01*
X216800000Y-84000000D02*
X217500000Y-84000000D01*
X246000000Y-83266000D02*
X250130000Y-79136000D01*
X246000000Y-87000000D02*
X246000000Y-83266000D01*
X230651470Y-84000000D02*
X232000000Y-84000000D01*
%TD*%
%TA.AperFunction,Conductor*%
%TO.N,GND*%
G36*
X191342539Y-97019685D02*
G01*
X191388294Y-97072489D01*
X191399500Y-97124000D01*
X191399500Y-100413330D01*
X191399499Y-100413348D01*
X191399499Y-100579054D01*
X191399498Y-100579054D01*
X191440423Y-100731785D01*
X191469358Y-100781900D01*
X191469359Y-100781904D01*
X191469360Y-100781904D01*
X191519479Y-100868714D01*
X191519481Y-100868717D01*
X191638349Y-100987585D01*
X191638355Y-100987590D01*
X207515139Y-116864374D01*
X207515149Y-116864385D01*
X207519479Y-116868715D01*
X207519480Y-116868716D01*
X207631284Y-116980520D01*
X207701088Y-117020821D01*
X207768215Y-117059577D01*
X207920943Y-117100501D01*
X207920946Y-117100501D01*
X208086653Y-117100501D01*
X208086669Y-117100500D01*
X211253331Y-117100500D01*
X211253347Y-117100501D01*
X211260943Y-117100501D01*
X211419054Y-117100501D01*
X211419057Y-117100501D01*
X211571785Y-117059577D01*
X211638912Y-117020821D01*
X211708716Y-116980520D01*
X211820520Y-116868716D01*
X211820520Y-116868714D01*
X211830724Y-116858511D01*
X211830728Y-116858506D01*
X212355478Y-116333755D01*
X212416799Y-116300272D01*
X212481473Y-116303506D01*
X212523757Y-116317246D01*
X212733713Y-116350500D01*
X212733714Y-116350500D01*
X212946286Y-116350500D01*
X212946287Y-116350500D01*
X213156243Y-116317246D01*
X213358412Y-116251557D01*
X213547816Y-116155051D01*
X213602572Y-116115269D01*
X213719786Y-116030109D01*
X213719788Y-116030106D01*
X213719792Y-116030104D01*
X213870104Y-115879792D01*
X213870106Y-115879788D01*
X213870109Y-115879786D01*
X213979086Y-115729789D01*
X213995051Y-115707816D01*
X213999514Y-115699054D01*
X214047488Y-115648259D01*
X214115308Y-115631463D01*
X214181444Y-115653999D01*
X214220486Y-115699056D01*
X214224951Y-115707820D01*
X214349890Y-115879786D01*
X214500213Y-116030109D01*
X214672179Y-116155048D01*
X214672181Y-116155049D01*
X214672184Y-116155051D01*
X214861588Y-116251557D01*
X215063757Y-116317246D01*
X215273713Y-116350500D01*
X215273714Y-116350500D01*
X215486286Y-116350500D01*
X215486287Y-116350500D01*
X215696243Y-116317246D01*
X215898412Y-116251557D01*
X216087816Y-116155051D01*
X216142572Y-116115269D01*
X216259786Y-116030109D01*
X216259788Y-116030106D01*
X216259792Y-116030104D01*
X216410104Y-115879792D01*
X216410106Y-115879788D01*
X216410109Y-115879786D01*
X216519086Y-115729789D01*
X216535051Y-115707816D01*
X216539514Y-115699054D01*
X216587488Y-115648259D01*
X216655308Y-115631463D01*
X216721444Y-115653999D01*
X216760486Y-115699056D01*
X216764951Y-115707820D01*
X216889890Y-115879786D01*
X217040213Y-116030109D01*
X217212179Y-116155048D01*
X217212181Y-116155049D01*
X217212184Y-116155051D01*
X217401588Y-116251557D01*
X217603757Y-116317246D01*
X217813713Y-116350500D01*
X217813714Y-116350500D01*
X218026286Y-116350500D01*
X218026287Y-116350500D01*
X218236243Y-116317246D01*
X218438412Y-116251557D01*
X218627816Y-116155051D01*
X218682572Y-116115269D01*
X218799786Y-116030109D01*
X218799788Y-116030106D01*
X218799792Y-116030104D01*
X218950104Y-115879792D01*
X218950106Y-115879788D01*
X218950109Y-115879786D01*
X219059086Y-115729789D01*
X219075051Y-115707816D01*
X219079514Y-115699054D01*
X219127488Y-115648259D01*
X219195308Y-115631463D01*
X219261444Y-115653999D01*
X219300486Y-115699056D01*
X219304951Y-115707820D01*
X219429890Y-115879786D01*
X219580213Y-116030109D01*
X219752179Y-116155048D01*
X219752181Y-116155049D01*
X219752184Y-116155051D01*
X219941588Y-116251557D01*
X220143757Y-116317246D01*
X220353713Y-116350500D01*
X220353714Y-116350500D01*
X220566286Y-116350500D01*
X220566287Y-116350500D01*
X220776243Y-116317246D01*
X220818523Y-116303507D01*
X220888362Y-116301511D01*
X220944521Y-116333756D01*
X223091284Y-118480520D01*
X223091286Y-118480521D01*
X223091290Y-118480524D01*
X223228209Y-118559573D01*
X223228212Y-118559575D01*
X223228216Y-118559577D01*
X223380943Y-118600501D01*
X223380945Y-118600501D01*
X223546654Y-118600501D01*
X223546670Y-118600500D01*
X231413331Y-118600500D01*
X231413347Y-118600501D01*
X231420943Y-118600501D01*
X231579054Y-118600501D01*
X231579057Y-118600501D01*
X231731785Y-118559577D01*
X231800554Y-118519873D01*
X231868716Y-118480520D01*
X231980520Y-118368716D01*
X231980520Y-118368714D01*
X231990724Y-118358511D01*
X231990728Y-118358506D01*
X232935845Y-117413389D01*
X242629500Y-117413389D01*
X242629500Y-117586611D01*
X242656598Y-117757701D01*
X242710127Y-117922445D01*
X242788768Y-118076788D01*
X242890586Y-118216928D01*
X243013072Y-118339414D01*
X243153212Y-118441232D01*
X243307555Y-118519873D01*
X243472299Y-118573402D01*
X243643389Y-118600500D01*
X243643390Y-118600500D01*
X243816610Y-118600500D01*
X243816611Y-118600500D01*
X243987701Y-118573402D01*
X244152445Y-118519873D01*
X244306788Y-118441232D01*
X244446928Y-118339414D01*
X244569414Y-118216928D01*
X244671232Y-118076788D01*
X244749873Y-117922445D01*
X244803402Y-117757701D01*
X244830500Y-117586611D01*
X244830500Y-117413389D01*
X244820854Y-117352486D01*
X246559500Y-117352486D01*
X246559500Y-117647513D01*
X246591571Y-117891113D01*
X246598007Y-117939993D01*
X246672212Y-118216930D01*
X246674361Y-118224951D01*
X246674364Y-118224961D01*
X246787254Y-118497500D01*
X246787258Y-118497510D01*
X246934761Y-118752993D01*
X247114352Y-118987040D01*
X247114358Y-118987047D01*
X247322952Y-119195641D01*
X247322959Y-119195647D01*
X247557006Y-119375238D01*
X247812489Y-119522741D01*
X247812490Y-119522741D01*
X247812493Y-119522743D01*
X248085048Y-119635639D01*
X248370007Y-119711993D01*
X248662494Y-119750500D01*
X248662501Y-119750500D01*
X248957499Y-119750500D01*
X248957506Y-119750500D01*
X249249993Y-119711993D01*
X249534952Y-119635639D01*
X249807507Y-119522743D01*
X250062994Y-119375238D01*
X250297042Y-119195646D01*
X250505646Y-118987042D01*
X250685238Y-118752994D01*
X250832743Y-118497507D01*
X250945639Y-118224952D01*
X251021993Y-117939993D01*
X251060500Y-117647506D01*
X251060500Y-117413389D01*
X252789500Y-117413389D01*
X252789500Y-117586611D01*
X252816598Y-117757701D01*
X252870127Y-117922445D01*
X252948768Y-118076788D01*
X253050586Y-118216928D01*
X253173072Y-118339414D01*
X253313212Y-118441232D01*
X253467555Y-118519873D01*
X253632299Y-118573402D01*
X253803389Y-118600500D01*
X253803390Y-118600500D01*
X253976610Y-118600500D01*
X253976611Y-118600500D01*
X254147701Y-118573402D01*
X254312445Y-118519873D01*
X254466788Y-118441232D01*
X254606928Y-118339414D01*
X254729414Y-118216928D01*
X254831232Y-118076788D01*
X254909873Y-117922445D01*
X254963402Y-117757701D01*
X254990500Y-117586611D01*
X254990500Y-117413389D01*
X254963402Y-117242299D01*
X254909873Y-117077555D01*
X254831232Y-116923212D01*
X254729414Y-116783072D01*
X254606928Y-116660586D01*
X254466788Y-116558768D01*
X254312445Y-116480127D01*
X254147701Y-116426598D01*
X254147699Y-116426597D01*
X254147698Y-116426597D01*
X254016271Y-116405781D01*
X253976611Y-116399500D01*
X253803389Y-116399500D01*
X253763728Y-116405781D01*
X253632302Y-116426597D01*
X253467552Y-116480128D01*
X253313211Y-116558768D01*
X253257149Y-116599500D01*
X253173072Y-116660586D01*
X253173070Y-116660588D01*
X253173069Y-116660588D01*
X253050588Y-116783069D01*
X253050588Y-116783070D01*
X253050586Y-116783072D01*
X253016246Y-116830337D01*
X252948768Y-116923211D01*
X252870128Y-117077552D01*
X252816597Y-117242302D01*
X252792226Y-117396177D01*
X252789500Y-117413389D01*
X251060500Y-117413389D01*
X251060500Y-117352494D01*
X251021993Y-117060007D01*
X250945639Y-116775048D01*
X250832743Y-116502493D01*
X250791562Y-116431166D01*
X250685238Y-116247006D01*
X250505647Y-116012959D01*
X250505641Y-116012952D01*
X250297047Y-115804358D01*
X250297040Y-115804352D01*
X250062993Y-115624761D01*
X249807510Y-115477258D01*
X249807500Y-115477254D01*
X249534961Y-115364364D01*
X249534954Y-115364362D01*
X249534952Y-115364361D01*
X249249993Y-115288007D01*
X249201113Y-115281571D01*
X248957513Y-115249500D01*
X248957506Y-115249500D01*
X248662494Y-115249500D01*
X248662486Y-115249500D01*
X248384085Y-115286153D01*
X248370007Y-115288007D01*
X248195861Y-115334669D01*
X248085048Y-115364361D01*
X248085038Y-115364364D01*
X247812499Y-115477254D01*
X247812489Y-115477258D01*
X247557006Y-115624761D01*
X247322959Y-115804352D01*
X247322952Y-115804358D01*
X247114358Y-116012952D01*
X247114352Y-116012959D01*
X246934761Y-116247006D01*
X246787258Y-116502489D01*
X246787254Y-116502499D01*
X246674364Y-116775038D01*
X246674361Y-116775048D01*
X246643639Y-116889707D01*
X246598008Y-117060004D01*
X246598006Y-117060015D01*
X246559500Y-117352486D01*
X244820854Y-117352486D01*
X244803402Y-117242299D01*
X244749873Y-117077555D01*
X244671232Y-116923212D01*
X244569414Y-116783072D01*
X244516882Y-116730540D01*
X244483397Y-116669217D01*
X244488381Y-116599525D01*
X244530253Y-116543592D01*
X244595717Y-116519175D01*
X244623961Y-116520386D01*
X244874072Y-116560000D01*
X245125928Y-116560000D01*
X245374669Y-116520602D01*
X245614184Y-116442780D01*
X245838575Y-116328446D01*
X245838581Y-116328442D01*
X245940697Y-116254250D01*
X245940698Y-116254250D01*
X245324025Y-115637578D01*
X245355258Y-115624641D01*
X245478097Y-115542563D01*
X245582563Y-115438097D01*
X245664641Y-115315258D01*
X245677578Y-115284025D01*
X246294250Y-115900698D01*
X246294250Y-115900697D01*
X246368442Y-115798581D01*
X246368446Y-115798575D01*
X246482780Y-115574184D01*
X246560602Y-115334669D01*
X246600000Y-115085928D01*
X246600000Y-114834071D01*
X246560602Y-114585330D01*
X246482780Y-114345815D01*
X246368442Y-114121416D01*
X246294250Y-114019301D01*
X246294250Y-114019300D01*
X245677577Y-114635973D01*
X245664641Y-114604742D01*
X245582563Y-114481903D01*
X245478097Y-114377437D01*
X245355258Y-114295359D01*
X245324024Y-114282421D01*
X245940698Y-113665748D01*
X245838583Y-113591557D01*
X245614184Y-113477219D01*
X245374669Y-113399397D01*
X245125928Y-113360000D01*
X244874072Y-113360000D01*
X244625330Y-113399397D01*
X244385815Y-113477219D01*
X244161413Y-113591559D01*
X244059301Y-113665747D01*
X244059300Y-113665748D01*
X244675974Y-114282421D01*
X244644742Y-114295359D01*
X244521903Y-114377437D01*
X244417437Y-114481903D01*
X244335359Y-114604742D01*
X244322421Y-114635974D01*
X243705748Y-114019300D01*
X243705747Y-114019301D01*
X243631559Y-114121413D01*
X243517219Y-114345815D01*
X243439397Y-114585330D01*
X243400000Y-114834071D01*
X243400000Y-115085928D01*
X243439397Y-115334669D01*
X243517219Y-115574184D01*
X243631557Y-115798583D01*
X243705748Y-115900697D01*
X243705748Y-115900698D01*
X244322421Y-115284024D01*
X244335359Y-115315258D01*
X244417437Y-115438097D01*
X244521903Y-115542563D01*
X244644742Y-115624641D01*
X244675974Y-115637577D01*
X244059300Y-116254250D01*
X244061598Y-116283449D01*
X244047233Y-116351827D01*
X243998181Y-116401583D01*
X243930016Y-116416921D01*
X243918583Y-116415650D01*
X243816611Y-116399500D01*
X243643389Y-116399500D01*
X243603728Y-116405781D01*
X243472302Y-116426597D01*
X243307552Y-116480128D01*
X243153211Y-116558768D01*
X243097149Y-116599500D01*
X243013072Y-116660586D01*
X243013070Y-116660588D01*
X243013069Y-116660588D01*
X242890588Y-116783069D01*
X242890588Y-116783070D01*
X242890586Y-116783072D01*
X242856246Y-116830337D01*
X242788768Y-116923211D01*
X242710128Y-117077552D01*
X242656597Y-117242302D01*
X242632226Y-117396177D01*
X242629500Y-117413389D01*
X232935845Y-117413389D01*
X246487819Y-103861415D01*
X246549142Y-103827930D01*
X246618834Y-103832914D01*
X246674767Y-103874786D01*
X246699184Y-103940250D01*
X246699500Y-103949096D01*
X246699500Y-104078846D01*
X246730261Y-104233489D01*
X246730264Y-104233501D01*
X246790602Y-104379172D01*
X246790609Y-104379185D01*
X246878210Y-104510288D01*
X246878213Y-104510292D01*
X246989707Y-104621786D01*
X246989711Y-104621789D01*
X247120814Y-104709390D01*
X247120827Y-104709397D01*
X247266498Y-104769735D01*
X247266503Y-104769737D01*
X247331147Y-104782595D01*
X247421849Y-104800638D01*
X247483760Y-104833023D01*
X247485339Y-104834574D01*
X250713181Y-108062416D01*
X250746666Y-108123739D01*
X250749500Y-108150097D01*
X250749500Y-110853699D01*
X250729815Y-110920738D01*
X250681795Y-110964184D01*
X250511151Y-111051132D01*
X250307350Y-111199201D01*
X250307345Y-111199205D01*
X250129205Y-111377345D01*
X250129201Y-111377350D01*
X249981132Y-111581151D01*
X249866760Y-111805616D01*
X249788910Y-112045214D01*
X249749500Y-112294038D01*
X249749500Y-112545961D01*
X249788910Y-112794785D01*
X249866760Y-113034383D01*
X249981132Y-113258848D01*
X250129201Y-113462649D01*
X250129205Y-113462654D01*
X250307345Y-113640794D01*
X250307350Y-113640798D01*
X250462880Y-113753796D01*
X250511155Y-113788870D01*
X250654184Y-113861747D01*
X250735616Y-113903239D01*
X250735618Y-113903239D01*
X250735621Y-113903241D01*
X250975215Y-113981090D01*
X251224038Y-114020500D01*
X251224039Y-114020500D01*
X251475961Y-114020500D01*
X251475962Y-114020500D01*
X251724785Y-113981090D01*
X251964379Y-113903241D01*
X252188845Y-113788870D01*
X252392656Y-113640793D01*
X252570793Y-113462656D01*
X252718870Y-113258845D01*
X252833241Y-113034379D01*
X252911090Y-112794785D01*
X252950500Y-112545962D01*
X252950500Y-112294038D01*
X252911090Y-112045215D01*
X252833241Y-111805621D01*
X252833239Y-111805618D01*
X252833239Y-111805616D01*
X252791747Y-111724184D01*
X252718870Y-111581155D01*
X252643983Y-111478081D01*
X252570798Y-111377350D01*
X252570794Y-111377345D01*
X252392654Y-111199205D01*
X252392649Y-111199201D01*
X252188848Y-111051132D01*
X252188847Y-111051131D01*
X252188845Y-111051130D01*
X252119186Y-111015637D01*
X252018205Y-110964184D01*
X251967409Y-110916209D01*
X251950500Y-110853699D01*
X251950500Y-110124500D01*
X251970185Y-110057461D01*
X252022989Y-110011706D01*
X252074500Y-110000500D01*
X256375500Y-110000500D01*
X256442539Y-110020185D01*
X256488294Y-110072989D01*
X256499500Y-110124500D01*
X256499500Y-119570186D01*
X256500000Y-119577816D01*
X256500000Y-120000000D01*
X256922184Y-120000000D01*
X256929813Y-120000500D01*
X256934108Y-120000500D01*
X261375500Y-120000500D01*
X261442539Y-120020185D01*
X261488294Y-120072989D01*
X261499500Y-120124500D01*
X261499500Y-131875500D01*
X261479815Y-131942539D01*
X261427011Y-131988294D01*
X261375500Y-131999500D01*
X255124500Y-131999500D01*
X255057461Y-131979815D01*
X255011706Y-131927011D01*
X255000500Y-131875500D01*
X255000500Y-126929815D01*
X255000000Y-126922185D01*
X255000000Y-126500000D01*
X254577816Y-126500000D01*
X254570187Y-126499500D01*
X254565892Y-126499500D01*
X240124500Y-126499500D01*
X240057461Y-126479815D01*
X240011706Y-126427011D01*
X240000500Y-126375500D01*
X240000500Y-122429815D01*
X240000000Y-122422185D01*
X240000000Y-122000000D01*
X239577816Y-122000000D01*
X239570187Y-121999500D01*
X239565892Y-121999500D01*
X229624500Y-121999500D01*
X229557461Y-121979815D01*
X229511706Y-121927011D01*
X229500500Y-121875500D01*
X229500500Y-120429815D01*
X229500000Y-120422185D01*
X229500000Y-120000000D01*
X229077816Y-120000000D01*
X229070187Y-119999500D01*
X229065892Y-119999500D01*
X209065892Y-119999500D01*
X208934108Y-119999500D01*
X208929813Y-119999500D01*
X208922184Y-120000000D01*
X208500000Y-120000000D01*
X208500000Y-120422185D01*
X208499500Y-120429815D01*
X208499500Y-121875500D01*
X208479815Y-121942539D01*
X208427011Y-121988294D01*
X208375500Y-121999500D01*
X195929813Y-121999500D01*
X195922184Y-122000000D01*
X195500000Y-122000000D01*
X195500000Y-122422185D01*
X195499500Y-122429815D01*
X195499500Y-126375500D01*
X195479815Y-126442539D01*
X195427011Y-126488294D01*
X195375500Y-126499500D01*
X183429813Y-126499500D01*
X183422184Y-126500000D01*
X183000000Y-126500000D01*
X183000000Y-126922185D01*
X182999500Y-126929815D01*
X182999500Y-131875500D01*
X182979815Y-131942539D01*
X182927011Y-131988294D01*
X182875500Y-131999500D01*
X176624500Y-131999500D01*
X176557461Y-131979815D01*
X176511706Y-131927011D01*
X176500500Y-131875500D01*
X176500500Y-120124500D01*
X176520185Y-120057461D01*
X176572989Y-120011706D01*
X176624500Y-120000500D01*
X181070187Y-120000500D01*
X181077816Y-120000000D01*
X181500000Y-120000000D01*
X181500000Y-119577816D01*
X181500500Y-119570186D01*
X181500500Y-110124500D01*
X181520185Y-110057461D01*
X181572989Y-110011706D01*
X181624500Y-110000500D01*
X186070187Y-110000500D01*
X186077816Y-110000000D01*
X186500000Y-110000000D01*
X186500000Y-109577816D01*
X186500500Y-109570186D01*
X186500500Y-97124500D01*
X186520185Y-97057461D01*
X186572989Y-97011706D01*
X186624500Y-97000500D01*
X191070187Y-97000500D01*
X191077816Y-97000000D01*
X191275500Y-97000000D01*
X191342539Y-97019685D01*
G37*
%TD.AperFunction*%
%TA.AperFunction,Conductor*%
G36*
X247918834Y-83184387D02*
G01*
X247974767Y-83226259D01*
X247999184Y-83291723D01*
X247999500Y-83300569D01*
X247999500Y-100034217D01*
X247979815Y-100101256D01*
X247963181Y-100121898D01*
X231254741Y-116830338D01*
X231193418Y-116863823D01*
X231167060Y-116866657D01*
X229150097Y-116866657D01*
X229083058Y-116846972D01*
X229062415Y-116830337D01*
X229010292Y-116778213D01*
X229010288Y-116778210D01*
X228879185Y-116690609D01*
X228879172Y-116690602D01*
X228733501Y-116630264D01*
X228733489Y-116630261D01*
X228578845Y-116599500D01*
X228578842Y-116599500D01*
X228421158Y-116599500D01*
X228421155Y-116599500D01*
X228266510Y-116630261D01*
X228266498Y-116630264D01*
X228120827Y-116690602D01*
X228120814Y-116690609D01*
X227989711Y-116778210D01*
X227989707Y-116778213D01*
X227878213Y-116889707D01*
X227878210Y-116889711D01*
X227790609Y-117020814D01*
X227790602Y-117020827D01*
X227730264Y-117166498D01*
X227730261Y-117166508D01*
X227703769Y-117299692D01*
X227671384Y-117361603D01*
X227610668Y-117396177D01*
X227582152Y-117399500D01*
X223760098Y-117399500D01*
X223693059Y-117379815D01*
X223672417Y-117363181D01*
X222871417Y-116562181D01*
X222837932Y-116500858D01*
X222842916Y-116431166D01*
X222884788Y-116375233D01*
X222950252Y-116350816D01*
X222959098Y-116350500D01*
X223106286Y-116350500D01*
X223106287Y-116350500D01*
X223316243Y-116317246D01*
X223518412Y-116251557D01*
X223707816Y-116155051D01*
X223762572Y-116115269D01*
X223879786Y-116030109D01*
X223879788Y-116030106D01*
X223879792Y-116030104D01*
X224030104Y-115879792D01*
X224030106Y-115879788D01*
X224030109Y-115879786D01*
X224139086Y-115729789D01*
X224155051Y-115707816D01*
X224159514Y-115699054D01*
X224207488Y-115648259D01*
X224275308Y-115631463D01*
X224341444Y-115653999D01*
X224380486Y-115699056D01*
X224384951Y-115707820D01*
X224509890Y-115879786D01*
X224660213Y-116030109D01*
X224832179Y-116155048D01*
X224832181Y-116155049D01*
X224832184Y-116155051D01*
X225021588Y-116251557D01*
X225223757Y-116317246D01*
X225433713Y-116350500D01*
X225433714Y-116350500D01*
X225646286Y-116350500D01*
X225646287Y-116350500D01*
X225856243Y-116317246D01*
X226058412Y-116251557D01*
X226247816Y-116155051D01*
X226302572Y-116115269D01*
X226419786Y-116030109D01*
X226419788Y-116030106D01*
X226419792Y-116030104D01*
X226570104Y-115879792D01*
X226570106Y-115879788D01*
X226570109Y-115879786D01*
X226655890Y-115761717D01*
X226695051Y-115707816D01*
X226699793Y-115698508D01*
X226747763Y-115647711D01*
X226815583Y-115630911D01*
X226881719Y-115653445D01*
X226920763Y-115698500D01*
X226925373Y-115707547D01*
X226964728Y-115761716D01*
X227597037Y-115129408D01*
X227614075Y-115192993D01*
X227679901Y-115307007D01*
X227772993Y-115400099D01*
X227887007Y-115465925D01*
X227950590Y-115482962D01*
X227318282Y-116115269D01*
X227318282Y-116115270D01*
X227372449Y-116154624D01*
X227561782Y-116251095D01*
X227763870Y-116316757D01*
X227973754Y-116350000D01*
X228186246Y-116350000D01*
X228396127Y-116316757D01*
X228396130Y-116316757D01*
X228598217Y-116251095D01*
X228787554Y-116154622D01*
X228841716Y-116115270D01*
X228841717Y-116115270D01*
X228209408Y-115482962D01*
X228272993Y-115465925D01*
X228387007Y-115400099D01*
X228480099Y-115307007D01*
X228545925Y-115192993D01*
X228562962Y-115129408D01*
X229195270Y-115761717D01*
X229195270Y-115761716D01*
X229234622Y-115707554D01*
X229331095Y-115518217D01*
X229396757Y-115316130D01*
X229396757Y-115316127D01*
X229430000Y-115106246D01*
X229430000Y-114893753D01*
X229396757Y-114683872D01*
X229396757Y-114683869D01*
X229331095Y-114481782D01*
X229234624Y-114292449D01*
X229195270Y-114238282D01*
X229195269Y-114238282D01*
X228562962Y-114870590D01*
X228545925Y-114807007D01*
X228480099Y-114692993D01*
X228387007Y-114599901D01*
X228272993Y-114534075D01*
X228209409Y-114517037D01*
X228841716Y-113884728D01*
X228787547Y-113845373D01*
X228787547Y-113845372D01*
X228778500Y-113840763D01*
X228727706Y-113792788D01*
X228710912Y-113724966D01*
X228733451Y-113658832D01*
X228778508Y-113619793D01*
X228787816Y-113615051D01*
X228874147Y-113552328D01*
X228959786Y-113490109D01*
X228959788Y-113490106D01*
X228959792Y-113490104D01*
X229110104Y-113339792D01*
X229110106Y-113339788D01*
X229110109Y-113339786D01*
X229235048Y-113167820D01*
X229235047Y-113167820D01*
X229235051Y-113167816D01*
X229331557Y-112978412D01*
X229397246Y-112776243D01*
X229430500Y-112566287D01*
X229430500Y-112353713D01*
X229397246Y-112143757D01*
X229383506Y-112101473D01*
X229381512Y-112031635D01*
X229413755Y-111975478D01*
X232880520Y-108508716D01*
X232959577Y-108371784D01*
X233000501Y-108219057D01*
X233000501Y-108060942D01*
X233000501Y-108053347D01*
X233000500Y-108053329D01*
X233000500Y-107217850D01*
X233020185Y-107150811D01*
X233072989Y-107105056D01*
X233100309Y-107096233D01*
X233116291Y-107093053D01*
X233233497Y-107069740D01*
X233379179Y-107009397D01*
X233510289Y-106921792D01*
X233510288Y-106921792D01*
X233510873Y-106921402D01*
X233577550Y-106900524D01*
X233579764Y-106900504D01*
X233693265Y-106900504D01*
X233693268Y-106900504D01*
X233845996Y-106859580D01*
X233896115Y-106830642D01*
X233982927Y-106780523D01*
X234094731Y-106668719D01*
X234094731Y-106668717D01*
X234104939Y-106658510D01*
X234104941Y-106658507D01*
X246758506Y-94004942D01*
X246758511Y-94004938D01*
X246768714Y-93994734D01*
X246768716Y-93994734D01*
X246880520Y-93882930D01*
X246946750Y-93768215D01*
X246959577Y-93745999D01*
X247000500Y-93593272D01*
X247000500Y-93435157D01*
X247000500Y-84051569D01*
X247020185Y-83984530D01*
X247036819Y-83963888D01*
X247787819Y-83212888D01*
X247849142Y-83179403D01*
X247918834Y-83184387D01*
G37*
%TD.AperFunction*%
%TA.AperFunction,Conductor*%
G36*
X223442539Y-31020185D02*
G01*
X223488294Y-31072989D01*
X223499500Y-31124500D01*
X223499500Y-41070186D01*
X223500000Y-41077816D01*
X223500000Y-41500000D01*
X223922184Y-41500000D01*
X223929813Y-41500500D01*
X223934108Y-41500500D01*
X228375500Y-41500500D01*
X228442539Y-41520185D01*
X228488294Y-41572989D01*
X228499500Y-41624500D01*
X228499500Y-51070186D01*
X228500000Y-51077816D01*
X228500000Y-51500000D01*
X228922184Y-51500000D01*
X228929813Y-51500500D01*
X228934108Y-51500500D01*
X235875500Y-51500500D01*
X235942539Y-51520185D01*
X235988294Y-51572989D01*
X235999500Y-51624500D01*
X235999500Y-61070186D01*
X236000000Y-61077816D01*
X236000000Y-61500000D01*
X236422184Y-61500000D01*
X236429813Y-61500500D01*
X236434108Y-61500500D01*
X239824478Y-61500500D01*
X239891517Y-61520185D01*
X239937272Y-61572989D01*
X239947216Y-61642147D01*
X239918191Y-61705703D01*
X239897363Y-61724818D01*
X239725214Y-61849890D01*
X239725209Y-61849894D01*
X239574890Y-62000213D01*
X239449951Y-62172179D01*
X239353444Y-62361585D01*
X239287753Y-62563760D01*
X239254500Y-62773713D01*
X239254500Y-62986287D01*
X239287754Y-63196243D01*
X239346879Y-63378211D01*
X239353444Y-63398414D01*
X239449951Y-63587820D01*
X239574890Y-63759786D01*
X239725213Y-63910109D01*
X239897182Y-64035050D01*
X239905946Y-64039516D01*
X239956742Y-64087491D01*
X239973536Y-64155312D01*
X239950998Y-64221447D01*
X239905946Y-64260484D01*
X239897182Y-64264949D01*
X239725213Y-64389890D01*
X239574890Y-64540213D01*
X239449951Y-64712179D01*
X239353444Y-64901585D01*
X239287753Y-65103760D01*
X239254500Y-65313713D01*
X239254500Y-65526286D01*
X239287735Y-65736127D01*
X239287754Y-65736243D01*
X239341183Y-65900681D01*
X239353444Y-65938414D01*
X239449951Y-66127820D01*
X239574890Y-66299786D01*
X239725213Y-66450109D01*
X239897182Y-66575050D01*
X239905946Y-66579516D01*
X239956742Y-66627491D01*
X239973536Y-66695312D01*
X239950998Y-66761447D01*
X239905946Y-66800484D01*
X239897182Y-66804949D01*
X239725213Y-66929890D01*
X239574890Y-67080213D01*
X239449951Y-67252179D01*
X239353444Y-67441585D01*
X239353443Y-67441587D01*
X239353443Y-67441588D01*
X239287754Y-67643757D01*
X239254500Y-67853713D01*
X239254500Y-68066287D01*
X239287754Y-68276243D01*
X239341137Y-68440539D01*
X239353444Y-68478414D01*
X239449951Y-68667820D01*
X239574890Y-68839786D01*
X239725213Y-68990109D01*
X239897182Y-69115050D01*
X239905946Y-69119516D01*
X239956742Y-69167491D01*
X239973536Y-69235312D01*
X239950998Y-69301447D01*
X239905946Y-69340484D01*
X239897182Y-69344949D01*
X239725213Y-69469890D01*
X239574890Y-69620213D01*
X239449951Y-69792179D01*
X239353444Y-69981585D01*
X239287753Y-70183760D01*
X239269403Y-70299619D01*
X239254500Y-70393713D01*
X239254500Y-70606287D01*
X239261030Y-70647513D01*
X239282243Y-70781453D01*
X239287754Y-70816243D01*
X239351595Y-71012726D01*
X239353444Y-71018414D01*
X239449951Y-71207820D01*
X239574890Y-71379786D01*
X239725213Y-71530109D01*
X239897179Y-71655048D01*
X239897181Y-71655049D01*
X239897184Y-71655051D01*
X240086588Y-71751557D01*
X240288757Y-71817246D01*
X240498713Y-71850500D01*
X240498714Y-71850500D01*
X240711286Y-71850500D01*
X240711287Y-71850500D01*
X240921243Y-71817246D01*
X241102225Y-71758440D01*
X241172062Y-71756446D01*
X241231895Y-71792526D01*
X241262724Y-71855227D01*
X241254760Y-71924641D01*
X241246079Y-71941469D01*
X241165643Y-72071875D01*
X241165641Y-72071880D01*
X241110494Y-72238302D01*
X241110493Y-72238309D01*
X241100000Y-72341013D01*
X241100000Y-74440971D01*
X241100001Y-74440987D01*
X241110494Y-74543697D01*
X241165641Y-74710119D01*
X241165643Y-74710124D01*
X241227323Y-74810122D01*
X242646447Y-73391000D01*
X242646448Y-73390999D01*
X243353553Y-73390999D01*
X243353553Y-73391001D01*
X244772674Y-74810122D01*
X244772676Y-74810122D01*
X244834356Y-74710125D01*
X244889505Y-74543697D01*
X244889506Y-74543690D01*
X244899999Y-74440986D01*
X244899999Y-72341028D01*
X244899998Y-72341012D01*
X244889505Y-72238302D01*
X244834358Y-72071880D01*
X244834356Y-72071875D01*
X244772676Y-71971876D01*
X244772674Y-71971876D01*
X243353553Y-73390999D01*
X242646448Y-73390999D01*
X242785490Y-73251957D01*
X244365230Y-71672216D01*
X244302697Y-71651494D01*
X244302690Y-71651493D01*
X244200009Y-71641003D01*
X244135318Y-71614607D01*
X244095166Y-71557426D01*
X244092303Y-71487615D01*
X244124930Y-71429965D01*
X244175104Y-71379792D01*
X244175106Y-71379788D01*
X244175109Y-71379786D01*
X244284086Y-71229789D01*
X244300051Y-71207816D01*
X244396557Y-71018412D01*
X244462246Y-70816243D01*
X244495500Y-70606287D01*
X244495500Y-70393713D01*
X244462246Y-70183757D01*
X244396557Y-69981588D01*
X244300051Y-69792184D01*
X244300049Y-69792181D01*
X244300048Y-69792179D01*
X244175109Y-69620213D01*
X244024786Y-69469890D01*
X243852820Y-69344951D01*
X243852115Y-69344591D01*
X243844054Y-69340485D01*
X243793259Y-69292512D01*
X243776463Y-69224692D01*
X243798999Y-69158556D01*
X243844054Y-69119515D01*
X243852816Y-69115051D01*
X243993335Y-69012959D01*
X244024786Y-68990109D01*
X244024788Y-68990106D01*
X244024792Y-68990104D01*
X244175104Y-68839792D01*
X244175106Y-68839788D01*
X244175109Y-68839786D01*
X244300048Y-68667820D01*
X244300047Y-68667820D01*
X244300051Y-68667816D01*
X244396557Y-68478412D01*
X244462246Y-68276243D01*
X244495500Y-68066287D01*
X244495500Y-67853713D01*
X244462246Y-67643757D01*
X244396557Y-67441588D01*
X244300051Y-67252184D01*
X244300049Y-67252181D01*
X244300048Y-67252179D01*
X244175109Y-67080213D01*
X244024786Y-66929890D01*
X243852817Y-66804949D01*
X243843504Y-66800204D01*
X243792707Y-66752230D01*
X243775912Y-66684409D01*
X243798449Y-66618274D01*
X243843507Y-66579232D01*
X243852555Y-66574622D01*
X243906716Y-66535270D01*
X243906717Y-66535270D01*
X243145000Y-65773554D01*
X242383282Y-66535269D01*
X242383282Y-66535270D01*
X242437452Y-66574626D01*
X242437451Y-66574626D01*
X242446495Y-66579234D01*
X242497292Y-66627208D01*
X242514087Y-66695029D01*
X242491550Y-66761164D01*
X242446499Y-66800202D01*
X242437182Y-66804949D01*
X242265213Y-66929890D01*
X242114890Y-67080213D01*
X241989949Y-67252182D01*
X241985484Y-67260946D01*
X241937509Y-67311742D01*
X241869688Y-67328536D01*
X241803553Y-67305998D01*
X241764516Y-67260946D01*
X241760050Y-67252182D01*
X241635109Y-67080213D01*
X241484786Y-66929890D01*
X241312820Y-66804951D01*
X241312115Y-66804591D01*
X241304054Y-66800485D01*
X241253259Y-66752512D01*
X241236463Y-66684692D01*
X241258999Y-66618556D01*
X241304054Y-66579515D01*
X241312816Y-66575051D01*
X241373940Y-66530642D01*
X241484786Y-66450109D01*
X241484788Y-66450106D01*
X241484792Y-66450104D01*
X241635104Y-66299792D01*
X241635106Y-66299788D01*
X241635109Y-66299786D01*
X241720890Y-66181717D01*
X241760051Y-66127816D01*
X241764793Y-66118508D01*
X241812763Y-66067711D01*
X241880583Y-66050911D01*
X241946719Y-66073445D01*
X241985763Y-66118500D01*
X241990373Y-66127547D01*
X242029728Y-66181716D01*
X242791446Y-65420000D01*
X242791445Y-65419999D01*
X243498554Y-65419999D01*
X243498554Y-65420000D01*
X244260270Y-66181717D01*
X244260270Y-66181716D01*
X244299622Y-66127554D01*
X244355956Y-66016995D01*
X248614000Y-66016995D01*
X248614000Y-66854998D01*
X248629313Y-66971318D01*
X248629315Y-66971326D01*
X248689268Y-67116066D01*
X248784641Y-67240358D01*
X248890703Y-67321743D01*
X249776447Y-66436000D01*
X248890702Y-65550255D01*
X248784643Y-65631638D01*
X248689268Y-65755933D01*
X248629315Y-65900673D01*
X248629315Y-65900674D01*
X248614000Y-66016995D01*
X244355956Y-66016995D01*
X244386704Y-65956649D01*
X244396095Y-65938217D01*
X244461757Y-65736130D01*
X244461757Y-65736127D01*
X244495000Y-65526246D01*
X244495000Y-65461000D01*
X249508552Y-65461000D01*
X250130000Y-66082447D01*
X250130001Y-66082447D01*
X250751446Y-65461000D01*
X249508552Y-65461000D01*
X244495000Y-65461000D01*
X244495000Y-65313753D01*
X244461757Y-65103872D01*
X244461757Y-65103869D01*
X244396095Y-64901782D01*
X244299624Y-64712449D01*
X244260270Y-64658282D01*
X244260269Y-64658282D01*
X243498554Y-65419999D01*
X242791445Y-65419999D01*
X242029728Y-64658282D01*
X242029727Y-64658282D01*
X241990380Y-64712440D01*
X241990376Y-64712446D01*
X241985760Y-64721505D01*
X241937781Y-64772297D01*
X241869959Y-64789087D01*
X241803826Y-64766543D01*
X241764794Y-64721493D01*
X241760051Y-64712184D01*
X241760049Y-64712181D01*
X241760048Y-64712179D01*
X241635109Y-64540213D01*
X241484786Y-64389890D01*
X241312820Y-64264951D01*
X241304600Y-64260763D01*
X241304054Y-64260485D01*
X241253259Y-64212512D01*
X241236463Y-64144692D01*
X241258999Y-64078556D01*
X241304054Y-64039515D01*
X241312816Y-64035051D01*
X241429310Y-63950414D01*
X241484786Y-63910109D01*
X241484788Y-63910106D01*
X241484792Y-63910104D01*
X241635104Y-63759792D01*
X241635106Y-63759788D01*
X241635109Y-63759786D01*
X241760048Y-63587820D01*
X241760047Y-63587820D01*
X241760051Y-63587816D01*
X241764514Y-63579054D01*
X241812488Y-63528259D01*
X241880308Y-63511463D01*
X241946444Y-63533999D01*
X241985486Y-63579056D01*
X241989951Y-63587820D01*
X242114890Y-63759786D01*
X242265213Y-63910109D01*
X242437179Y-64035048D01*
X242437181Y-64035049D01*
X242437184Y-64035051D01*
X242446493Y-64039794D01*
X242497290Y-64087766D01*
X242514087Y-64155587D01*
X242491552Y-64221722D01*
X242446505Y-64260760D01*
X242437446Y-64265376D01*
X242437440Y-64265380D01*
X242383282Y-64304727D01*
X242383282Y-64304728D01*
X243145000Y-65066446D01*
X243145001Y-65066446D01*
X243906716Y-64304728D01*
X243852547Y-64265373D01*
X243852547Y-64265372D01*
X243843500Y-64260763D01*
X243792706Y-64212788D01*
X243775912Y-64144966D01*
X243798451Y-64078832D01*
X243843508Y-64039793D01*
X243852816Y-64035051D01*
X243969310Y-63950414D01*
X244024786Y-63910109D01*
X244024788Y-63910106D01*
X244024792Y-63910104D01*
X244175104Y-63759792D01*
X244175106Y-63759788D01*
X244175109Y-63759786D01*
X244300048Y-63587820D01*
X244300047Y-63587820D01*
X244300051Y-63587816D01*
X244356533Y-63476964D01*
X248613500Y-63476964D01*
X248613500Y-64315037D01*
X248628824Y-64431448D01*
X248628828Y-64431460D01*
X248688829Y-64576318D01*
X248688831Y-64576321D01*
X248723721Y-64621789D01*
X248784284Y-64700716D01*
X248865340Y-64762913D01*
X248908678Y-64796168D01*
X248908681Y-64796170D01*
X248998784Y-64833491D01*
X249053543Y-64856173D01*
X249169965Y-64871500D01*
X251090034Y-64871499D01*
X251090037Y-64871499D01*
X251206448Y-64856175D01*
X251206452Y-64856173D01*
X251206457Y-64856173D01*
X251340864Y-64800500D01*
X251351318Y-64796170D01*
X251351321Y-64796168D01*
X251355146Y-64793233D01*
X251475716Y-64700716D01*
X251571169Y-64576320D01*
X251571906Y-64574542D01*
X251586127Y-64540208D01*
X251631173Y-64431457D01*
X251646500Y-64315035D01*
X251646499Y-63476966D01*
X251646499Y-63476964D01*
X251646499Y-63476962D01*
X251631175Y-63360551D01*
X251631173Y-63360544D01*
X251631173Y-63360543D01*
X251609006Y-63307028D01*
X251571170Y-63215681D01*
X251571168Y-63215678D01*
X251537913Y-63172340D01*
X251475716Y-63091284D01*
X251413518Y-63043557D01*
X251351321Y-62995831D01*
X251351318Y-62995829D01*
X251206460Y-62935828D01*
X251206455Y-62935826D01*
X251090035Y-62920500D01*
X249169962Y-62920500D01*
X249053551Y-62935824D01*
X249053539Y-62935828D01*
X248908681Y-62995829D01*
X248908678Y-62995831D01*
X248784284Y-63091284D01*
X248688831Y-63215678D01*
X248688829Y-63215681D01*
X248628828Y-63360539D01*
X248628826Y-63360544D01*
X248613500Y-63476964D01*
X244356533Y-63476964D01*
X244396557Y-63398412D01*
X244462246Y-63196243D01*
X244495500Y-62986287D01*
X244495500Y-62773713D01*
X244462246Y-62563757D01*
X244396557Y-62361588D01*
X244300051Y-62172184D01*
X244300049Y-62172181D01*
X244300048Y-62172179D01*
X244175109Y-62000213D01*
X244024790Y-61849894D01*
X244024785Y-61849890D01*
X243852637Y-61724818D01*
X243809971Y-61669489D01*
X243803992Y-61599875D01*
X243836597Y-61538080D01*
X243897436Y-61503723D01*
X243925522Y-61500500D01*
X274375500Y-61500500D01*
X274442539Y-61520185D01*
X274488294Y-61572989D01*
X274499500Y-61624500D01*
X274499500Y-68375500D01*
X274479815Y-68442539D01*
X274427011Y-68488294D01*
X274375500Y-68499500D01*
X264929813Y-68499500D01*
X264922184Y-68500000D01*
X264500000Y-68500000D01*
X264500000Y-68922185D01*
X264499500Y-68929815D01*
X264499500Y-75875500D01*
X264479815Y-75942539D01*
X264427011Y-75988294D01*
X264375500Y-75999500D01*
X256929813Y-75999500D01*
X256922184Y-76000000D01*
X256500000Y-76000000D01*
X256500000Y-76422185D01*
X256499500Y-76429815D01*
X256499500Y-83375500D01*
X256479815Y-83442539D01*
X256427011Y-83488294D01*
X256375500Y-83499500D01*
X254224500Y-83499500D01*
X254157461Y-83479815D01*
X254111706Y-83427011D01*
X254100500Y-83375500D01*
X254100500Y-76121470D01*
X254120185Y-76054431D01*
X254136824Y-76033784D01*
X254137000Y-76033608D01*
X254141054Y-76029554D01*
X254228659Y-75898444D01*
X254289002Y-75752762D01*
X254319765Y-75598107D01*
X254319765Y-75440423D01*
X254319765Y-75440420D01*
X254319764Y-75440418D01*
X254307468Y-75378602D01*
X254289002Y-75285768D01*
X254274982Y-75251920D01*
X254228662Y-75140092D01*
X254228660Y-75140088D01*
X254228659Y-75140086D01*
X254153211Y-75027171D01*
X254132334Y-74960495D01*
X254150818Y-74893115D01*
X254168629Y-74870604D01*
X254329169Y-74710064D01*
X254390490Y-74676581D01*
X254436246Y-74675274D01*
X254595514Y-74700500D01*
X254595519Y-74700500D01*
X254784486Y-74700500D01*
X254971118Y-74670940D01*
X255001753Y-74660986D01*
X255150832Y-74612547D01*
X255319199Y-74526760D01*
X255345182Y-74507882D01*
X261655669Y-74507882D01*
X261655670Y-74507883D01*
X261681059Y-74526329D01*
X261849362Y-74612085D01*
X262028997Y-74670451D01*
X262215553Y-74700000D01*
X262404447Y-74700000D01*
X262591002Y-74670451D01*
X262770637Y-74612085D01*
X262938937Y-74526331D01*
X262964328Y-74507883D01*
X262964328Y-74507882D01*
X262310001Y-73853554D01*
X262310000Y-73853554D01*
X261655669Y-74507882D01*
X255345182Y-74507882D01*
X255472073Y-74415690D01*
X255605690Y-74282073D01*
X255700475Y-74151613D01*
X255755804Y-74108949D01*
X255800792Y-74100500D01*
X257913331Y-74100500D01*
X257913347Y-74100501D01*
X257920943Y-74100501D01*
X258079054Y-74100501D01*
X258079057Y-74100501D01*
X258231785Y-74059577D01*
X258287718Y-74027284D01*
X258287719Y-74027284D01*
X258368709Y-73980524D01*
X258368708Y-73980524D01*
X258368716Y-73980520D01*
X258480520Y-73868716D01*
X258480520Y-73868714D01*
X258490724Y-73858511D01*
X258490728Y-73858506D01*
X258943682Y-73405552D01*
X261110000Y-73405552D01*
X261110000Y-73594447D01*
X261139548Y-73781002D01*
X261197914Y-73960637D01*
X261283666Y-74128933D01*
X261302116Y-74154328D01*
X261956446Y-73500000D01*
X261956446Y-73499999D01*
X261910369Y-73453922D01*
X261960000Y-73453922D01*
X261960000Y-73546078D01*
X261983852Y-73635095D01*
X262029930Y-73714905D01*
X262095095Y-73780070D01*
X262174905Y-73826148D01*
X262263922Y-73850000D01*
X262356078Y-73850000D01*
X262445095Y-73826148D01*
X262524905Y-73780070D01*
X262590070Y-73714905D01*
X262636148Y-73635095D01*
X262660000Y-73546078D01*
X262660000Y-73499999D01*
X262663554Y-73499999D01*
X262663554Y-73500000D01*
X263317882Y-74154328D01*
X263317883Y-74154328D01*
X263336331Y-74128937D01*
X263422085Y-73960637D01*
X263480451Y-73781002D01*
X263510000Y-73594447D01*
X263510000Y-73405552D01*
X263480451Y-73218997D01*
X263422085Y-73039362D01*
X263336329Y-72871059D01*
X263317883Y-72845670D01*
X263317882Y-72845669D01*
X262663554Y-73499999D01*
X262660000Y-73499999D01*
X262660000Y-73453922D01*
X262636148Y-73364905D01*
X262590070Y-73285095D01*
X262524905Y-73219930D01*
X262445095Y-73173852D01*
X262356078Y-73150000D01*
X262263922Y-73150000D01*
X262174905Y-73173852D01*
X262095095Y-73219930D01*
X262029930Y-73285095D01*
X261983852Y-73364905D01*
X261960000Y-73453922D01*
X261910369Y-73453922D01*
X261302116Y-72845669D01*
X261302116Y-72845670D01*
X261283669Y-72871060D01*
X261197914Y-73039362D01*
X261139548Y-73218997D01*
X261110000Y-73405552D01*
X258943682Y-73405552D01*
X259857118Y-72492116D01*
X261655669Y-72492116D01*
X262310000Y-73146446D01*
X262310001Y-73146446D01*
X262964328Y-72492116D01*
X262938933Y-72473666D01*
X262770637Y-72387914D01*
X262591002Y-72329548D01*
X262404447Y-72300000D01*
X262215553Y-72300000D01*
X262028997Y-72329548D01*
X261849362Y-72387914D01*
X261681060Y-72473669D01*
X261655670Y-72492116D01*
X261655669Y-72492116D01*
X259857118Y-72492116D01*
X262658506Y-69690728D01*
X262658511Y-69690724D01*
X262668714Y-69680520D01*
X262668716Y-69680520D01*
X262780520Y-69568716D01*
X262845296Y-69456520D01*
X262859577Y-69431785D01*
X262900500Y-69279058D01*
X262900500Y-69120943D01*
X262900500Y-67189060D01*
X262900501Y-67189047D01*
X262900501Y-67020944D01*
X262900061Y-67019301D01*
X262859577Y-66868216D01*
X262851946Y-66854998D01*
X262780524Y-66731290D01*
X262780518Y-66731282D01*
X261844021Y-65794785D01*
X260894076Y-64844841D01*
X260860592Y-64783519D01*
X260863828Y-64718841D01*
X260865908Y-64712440D01*
X260868477Y-64704534D01*
X260900500Y-64502352D01*
X260900500Y-64297648D01*
X260877956Y-64155312D01*
X260868477Y-64095465D01*
X260805218Y-63900776D01*
X260736805Y-63766510D01*
X260712287Y-63718390D01*
X260649003Y-63631286D01*
X260591971Y-63552786D01*
X260447213Y-63408028D01*
X260281613Y-63287715D01*
X260281612Y-63287714D01*
X260281610Y-63287713D01*
X260214126Y-63253328D01*
X260099223Y-63194781D01*
X259904534Y-63131522D01*
X259729995Y-63103878D01*
X259702352Y-63099500D01*
X259497648Y-63099500D01*
X259473329Y-63103351D01*
X259295465Y-63131522D01*
X259100776Y-63194781D01*
X258918386Y-63287715D01*
X258752786Y-63408028D01*
X258608028Y-63552786D01*
X258487715Y-63718386D01*
X258440485Y-63811080D01*
X258392510Y-63861876D01*
X258324689Y-63878671D01*
X258258554Y-63856134D01*
X258219515Y-63811080D01*
X258196805Y-63766510D01*
X258172287Y-63718390D01*
X258109003Y-63631286D01*
X258051971Y-63552786D01*
X257907213Y-63408028D01*
X257741613Y-63287715D01*
X257741612Y-63287714D01*
X257741610Y-63287713D01*
X257674126Y-63253328D01*
X257559223Y-63194781D01*
X257364534Y-63131522D01*
X257189995Y-63103878D01*
X257162352Y-63099500D01*
X256957648Y-63099500D01*
X256933329Y-63103351D01*
X256755465Y-63131522D01*
X256560776Y-63194781D01*
X256378386Y-63287715D01*
X256212786Y-63408028D01*
X256068028Y-63552786D01*
X255947715Y-63718386D01*
X255854781Y-63900776D01*
X255791522Y-64095465D01*
X255759500Y-64297648D01*
X255759500Y-64502351D01*
X255791523Y-64704535D01*
X255796172Y-64718845D01*
X255798165Y-64788687D01*
X255765921Y-64844841D01*
X255247584Y-65363181D01*
X255186261Y-65396666D01*
X255159903Y-65399500D01*
X253192670Y-65399500D01*
X253192654Y-65399499D01*
X253185058Y-65399499D01*
X253026943Y-65399499D01*
X252950579Y-65419961D01*
X252874214Y-65440423D01*
X252874209Y-65440426D01*
X252737290Y-65519475D01*
X252737282Y-65519481D01*
X251857680Y-66399083D01*
X251796357Y-66432568D01*
X251726665Y-66427584D01*
X251670732Y-66385712D01*
X251646315Y-66320248D01*
X251645999Y-66311402D01*
X251645999Y-66017001D01*
X251630686Y-65900681D01*
X251630684Y-65900673D01*
X251570731Y-65755933D01*
X251475360Y-65631642D01*
X251369295Y-65550256D01*
X250483553Y-66436000D01*
X249508552Y-67410998D01*
X249508553Y-67410999D01*
X250546402Y-67410999D01*
X250613441Y-67430684D01*
X250659196Y-67483488D01*
X250669140Y-67552646D01*
X250640115Y-67616202D01*
X250634083Y-67622680D01*
X250292582Y-67964181D01*
X250231259Y-67997666D01*
X250204901Y-68000500D01*
X249169962Y-68000500D01*
X249053551Y-68015824D01*
X249053539Y-68015828D01*
X248908681Y-68075829D01*
X248908678Y-68075831D01*
X248784284Y-68171284D01*
X248688831Y-68295678D01*
X248688829Y-68295681D01*
X248628828Y-68440539D01*
X248628826Y-68440544D01*
X248613500Y-68556964D01*
X248613500Y-69395037D01*
X248628824Y-69511448D01*
X248628828Y-69511460D01*
X248688829Y-69656318D01*
X248688831Y-69656321D01*
X248698727Y-69669217D01*
X248784284Y-69780716D01*
X248865340Y-69842913D01*
X248908678Y-69876168D01*
X248908681Y-69876170D01*
X249000028Y-69914006D01*
X249053543Y-69936173D01*
X249169965Y-69951500D01*
X251090034Y-69951499D01*
X251090037Y-69951499D01*
X251206448Y-69936175D01*
X251206452Y-69936173D01*
X251206457Y-69936173D01*
X251324562Y-69887252D01*
X251351318Y-69876170D01*
X251351321Y-69876168D01*
X251361267Y-69868536D01*
X251475716Y-69780716D01*
X251571169Y-69656320D01*
X251631173Y-69511457D01*
X251646500Y-69395035D01*
X251646499Y-68556966D01*
X251646499Y-68556964D01*
X251646499Y-68556962D01*
X251631175Y-68440551D01*
X251631173Y-68440546D01*
X251631173Y-68440543D01*
X251628763Y-68434726D01*
X251621292Y-68365261D01*
X251652564Y-68302781D01*
X251655612Y-68299621D01*
X253318417Y-66636819D01*
X253379740Y-66603334D01*
X253406098Y-66600500D01*
X255373331Y-66600500D01*
X255373347Y-66600501D01*
X255380943Y-66600501D01*
X255539054Y-66600501D01*
X255539057Y-66600501D01*
X255691785Y-66559577D01*
X255741904Y-66530639D01*
X255828716Y-66480520D01*
X255940520Y-66368716D01*
X255940520Y-66368714D01*
X255950728Y-66358507D01*
X255950729Y-66358504D01*
X256615159Y-65694075D01*
X256676480Y-65660592D01*
X256741154Y-65663826D01*
X256755466Y-65668477D01*
X256957648Y-65700500D01*
X256957649Y-65700500D01*
X257162351Y-65700500D01*
X257162352Y-65700500D01*
X257364534Y-65668477D01*
X257559219Y-65605220D01*
X257741610Y-65512287D01*
X257849983Y-65433550D01*
X257907213Y-65391971D01*
X257907215Y-65391968D01*
X257907219Y-65391966D01*
X258051966Y-65247219D01*
X258051968Y-65247215D01*
X258051971Y-65247213D01*
X258172284Y-65081614D01*
X258172283Y-65081614D01*
X258172287Y-65081610D01*
X258219516Y-64988917D01*
X258267489Y-64938123D01*
X258335310Y-64921328D01*
X258401445Y-64943865D01*
X258440483Y-64988917D01*
X258469166Y-65045210D01*
X258487715Y-65081614D01*
X258608028Y-65247213D01*
X258752786Y-65391971D01*
X258868208Y-65475828D01*
X258918390Y-65512287D01*
X259034607Y-65571503D01*
X259100776Y-65605218D01*
X259100778Y-65605218D01*
X259100781Y-65605220D01*
X259180998Y-65631284D01*
X259295465Y-65668477D01*
X259396557Y-65684488D01*
X259497648Y-65700500D01*
X259497649Y-65700500D01*
X259702351Y-65700500D01*
X259702352Y-65700500D01*
X259904534Y-65668477D01*
X259918842Y-65663827D01*
X259988682Y-65661831D01*
X260044842Y-65694077D01*
X261663181Y-67312416D01*
X261696666Y-67373739D01*
X261699500Y-67400097D01*
X261699500Y-68899903D01*
X261679815Y-68966942D01*
X261663181Y-68987584D01*
X257787584Y-72863181D01*
X257726261Y-72896666D01*
X257699903Y-72899500D01*
X255800792Y-72899500D01*
X255733753Y-72879815D01*
X255700474Y-72848386D01*
X255698500Y-72845669D01*
X255605690Y-72717927D01*
X255472073Y-72584310D01*
X255319199Y-72473240D01*
X255150836Y-72387454D01*
X254971118Y-72329059D01*
X254784486Y-72299500D01*
X254784481Y-72299500D01*
X254595519Y-72299500D01*
X254595514Y-72299500D01*
X254408881Y-72329059D01*
X254229163Y-72387454D01*
X254060800Y-72473240D01*
X253973579Y-72536610D01*
X253907927Y-72584310D01*
X253907925Y-72584312D01*
X253907924Y-72584312D01*
X253774312Y-72717924D01*
X253774312Y-72717925D01*
X253774310Y-72717927D01*
X253750645Y-72750499D01*
X253663240Y-72870800D01*
X253577454Y-73039163D01*
X253519059Y-73218881D01*
X253489500Y-73405513D01*
X253489500Y-73594486D01*
X253514725Y-73753751D01*
X253505770Y-73823045D01*
X253479933Y-73860830D01*
X252984300Y-74356463D01*
X252922977Y-74389948D01*
X252853285Y-74384964D01*
X252797352Y-74343092D01*
X252775002Y-74292974D01*
X252769737Y-74266503D01*
X252755883Y-74233057D01*
X252709397Y-74120827D01*
X252709390Y-74120814D01*
X252621398Y-73989125D01*
X252600520Y-73922447D01*
X252600500Y-73920234D01*
X252600500Y-72717332D01*
X252600500Y-72717329D01*
X252582326Y-72649500D01*
X252559577Y-72564601D01*
X252517371Y-72491499D01*
X252517371Y-72491497D01*
X252480524Y-72427676D01*
X252480521Y-72427672D01*
X252480520Y-72427670D01*
X252368716Y-72315866D01*
X252368715Y-72315865D01*
X252364385Y-72311535D01*
X252364374Y-72311525D01*
X251682818Y-71629969D01*
X251649333Y-71568646D01*
X251646499Y-71542288D01*
X251646499Y-71096962D01*
X251631175Y-70980551D01*
X251631173Y-70980544D01*
X251631173Y-70980543D01*
X251589941Y-70881000D01*
X251571170Y-70835681D01*
X251571168Y-70835678D01*
X251511330Y-70757697D01*
X251475716Y-70711284D01*
X251392609Y-70647513D01*
X251351321Y-70615831D01*
X251351318Y-70615829D01*
X251206460Y-70555828D01*
X251206455Y-70555826D01*
X251090035Y-70540500D01*
X249169962Y-70540500D01*
X249053551Y-70555824D01*
X249053539Y-70555828D01*
X248908681Y-70615829D01*
X248908678Y-70615831D01*
X248784284Y-70711284D01*
X248688831Y-70835678D01*
X248688829Y-70835681D01*
X248628828Y-70980539D01*
X248628826Y-70980544D01*
X248613500Y-71096964D01*
X248613500Y-71935037D01*
X248628824Y-72051448D01*
X248628828Y-72051460D01*
X248688829Y-72196318D01*
X248688831Y-72196321D01*
X248716044Y-72231785D01*
X248784284Y-72320716D01*
X248846840Y-72368717D01*
X248908678Y-72416168D01*
X248908681Y-72416170D01*
X249000028Y-72454006D01*
X249053543Y-72476173D01*
X249169965Y-72491500D01*
X249289500Y-72491499D01*
X249356539Y-72511183D01*
X249402294Y-72563987D01*
X249413500Y-72615499D01*
X249413500Y-72956500D01*
X249393815Y-73023539D01*
X249341011Y-73069294D01*
X249289501Y-73080500D01*
X249169963Y-73080500D01*
X249053551Y-73095824D01*
X249053539Y-73095828D01*
X248908681Y-73155829D01*
X248908678Y-73155831D01*
X248784284Y-73251284D01*
X248688831Y-73375678D01*
X248688829Y-73375681D01*
X248628828Y-73520539D01*
X248628826Y-73520544D01*
X248613500Y-73636964D01*
X248613500Y-74475037D01*
X248628825Y-74591453D01*
X248628827Y-74591459D01*
X248631235Y-74597272D01*
X248638705Y-74666741D01*
X248607431Y-74729221D01*
X248604356Y-74732407D01*
X244131286Y-79205478D01*
X244019481Y-79317282D01*
X244019479Y-79317285D01*
X243990325Y-79367783D01*
X243990324Y-79367785D01*
X243940423Y-79454214D01*
X243929944Y-79493322D01*
X243899499Y-79606943D01*
X243899499Y-79606945D01*
X243899499Y-79775046D01*
X243899500Y-79775059D01*
X243899500Y-85269207D01*
X243879815Y-85336246D01*
X243848386Y-85369525D01*
X243717925Y-85464311D01*
X243584312Y-85597924D01*
X243584312Y-85597925D01*
X243584310Y-85597927D01*
X243536610Y-85663579D01*
X243473240Y-85750800D01*
X243387454Y-85919163D01*
X243329059Y-86098881D01*
X243299500Y-86285513D01*
X243299500Y-86474486D01*
X243329059Y-86661118D01*
X243387454Y-86840836D01*
X243468322Y-86999546D01*
X243473240Y-87009199D01*
X243584310Y-87162073D01*
X243584312Y-87162075D01*
X243610056Y-87187819D01*
X243643541Y-87249142D01*
X243638557Y-87318834D01*
X243596685Y-87374767D01*
X243531221Y-87399184D01*
X243522375Y-87399500D01*
X236300097Y-87399500D01*
X236233058Y-87379815D01*
X236212416Y-87363181D01*
X232487590Y-83638355D01*
X232487588Y-83638352D01*
X232368717Y-83519481D01*
X232368716Y-83519480D01*
X232264960Y-83459577D01*
X232264959Y-83459576D01*
X232231783Y-83440422D01*
X232175881Y-83425443D01*
X232079057Y-83399499D01*
X231920943Y-83399499D01*
X231913347Y-83399499D01*
X231913331Y-83399500D01*
X231231236Y-83399500D01*
X231164197Y-83379815D01*
X231162345Y-83378602D01*
X231030655Y-83290609D01*
X231030642Y-83290602D01*
X230884971Y-83230264D01*
X230884959Y-83230261D01*
X230730315Y-83199500D01*
X230730312Y-83199500D01*
X230572628Y-83199500D01*
X230572625Y-83199500D01*
X230417980Y-83230261D01*
X230417968Y-83230264D01*
X230272297Y-83290602D01*
X230272284Y-83290609D01*
X230141181Y-83378210D01*
X230141177Y-83378213D01*
X230029683Y-83489707D01*
X230029680Y-83489711D01*
X229942079Y-83620814D01*
X229942072Y-83620827D01*
X229881734Y-83766498D01*
X229881731Y-83766510D01*
X229850970Y-83921153D01*
X229850970Y-84078846D01*
X229881731Y-84233489D01*
X229881734Y-84233501D01*
X229942072Y-84379172D01*
X229942079Y-84379185D01*
X230029680Y-84510288D01*
X230029683Y-84510292D01*
X230141177Y-84621786D01*
X230141181Y-84621789D01*
X230272284Y-84709390D01*
X230272297Y-84709397D01*
X230395564Y-84760455D01*
X230417973Y-84769737D01*
X230571668Y-84800309D01*
X230572623Y-84800499D01*
X230572626Y-84800500D01*
X230572628Y-84800500D01*
X230730314Y-84800500D01*
X230730315Y-84800499D01*
X230884967Y-84769737D01*
X231030649Y-84709394D01*
X231054524Y-84693441D01*
X231162345Y-84621398D01*
X231229023Y-84600520D01*
X231231236Y-84600500D01*
X231699903Y-84600500D01*
X231766942Y-84620185D01*
X231787584Y-84636819D01*
X232218584Y-85067819D01*
X232252069Y-85129142D01*
X232247085Y-85198834D01*
X232205213Y-85254767D01*
X232139749Y-85279184D01*
X232130903Y-85279500D01*
X229886499Y-85279500D01*
X229819460Y-85259815D01*
X229773705Y-85207011D01*
X229762499Y-85155500D01*
X229762499Y-85070129D01*
X229762498Y-85070123D01*
X229762250Y-85067819D01*
X229756091Y-85010517D01*
X229749925Y-84993986D01*
X229705797Y-84875671D01*
X229705793Y-84875664D01*
X229619547Y-84760455D01*
X229619544Y-84760452D01*
X229504335Y-84674206D01*
X229504328Y-84674202D01*
X229369482Y-84623908D01*
X229369483Y-84623908D01*
X229309883Y-84617501D01*
X229309881Y-84617500D01*
X229309873Y-84617500D01*
X229309865Y-84617500D01*
X228837679Y-84617500D01*
X228770640Y-84597815D01*
X228724885Y-84545011D01*
X228714941Y-84475853D01*
X228723118Y-84446048D01*
X228769735Y-84333501D01*
X228769737Y-84333497D01*
X228800500Y-84178842D01*
X228800500Y-84021158D01*
X228800500Y-84021155D01*
X228800499Y-84021153D01*
X228789108Y-83963888D01*
X228769737Y-83866503D01*
X228756852Y-83835396D01*
X228709397Y-83720827D01*
X228709390Y-83720814D01*
X228621398Y-83589125D01*
X228600520Y-83522447D01*
X228600500Y-83520234D01*
X228600500Y-82800097D01*
X228620185Y-82733058D01*
X228636819Y-82712416D01*
X230257954Y-81091281D01*
X231891821Y-79457413D01*
X231953142Y-79423930D01*
X232022834Y-79428914D01*
X232078767Y-79470786D01*
X232103184Y-79536250D01*
X232103500Y-79545087D01*
X232103500Y-79555035D01*
X232118825Y-79671453D01*
X232118827Y-79671459D01*
X232121235Y-79677272D01*
X232128705Y-79746741D01*
X232097431Y-79809221D01*
X232094356Y-79812407D01*
X230887286Y-81019478D01*
X230775481Y-81131282D01*
X230775479Y-81131285D01*
X230736098Y-81199497D01*
X230736094Y-81199503D01*
X230724238Y-81220036D01*
X230673669Y-81268249D01*
X230664311Y-81272590D01*
X230620822Y-81290605D01*
X230620818Y-81290607D01*
X230489715Y-81378207D01*
X230489707Y-81378213D01*
X230378213Y-81489707D01*
X230378210Y-81489711D01*
X230290609Y-81620814D01*
X230290602Y-81620827D01*
X230230264Y-81766498D01*
X230230261Y-81766510D01*
X230199500Y-81921153D01*
X230199500Y-82078846D01*
X230230261Y-82233489D01*
X230230264Y-82233501D01*
X230290602Y-82379172D01*
X230290609Y-82379185D01*
X230378210Y-82510288D01*
X230378213Y-82510292D01*
X230489707Y-82621786D01*
X230489711Y-82621789D01*
X230620814Y-82709390D01*
X230620827Y-82709397D01*
X230715799Y-82748735D01*
X230766503Y-82769737D01*
X230916126Y-82799499D01*
X230921153Y-82800499D01*
X230921156Y-82800500D01*
X230921158Y-82800500D01*
X231078844Y-82800500D01*
X231078845Y-82800499D01*
X231233497Y-82769737D01*
X231379179Y-82709394D01*
X231510289Y-82621789D01*
X231621789Y-82510289D01*
X231709394Y-82379179D01*
X231769737Y-82233497D01*
X231800500Y-82078842D01*
X231800500Y-82035124D01*
X231814197Y-81984012D01*
X231812466Y-81983295D01*
X231815576Y-81975786D01*
X231830214Y-81921158D01*
X231856501Y-81823057D01*
X231856501Y-81800095D01*
X231876186Y-81733056D01*
X231892815Y-81712419D01*
X233457416Y-80147817D01*
X233518739Y-80114333D01*
X233545097Y-80111499D01*
X234580037Y-80111499D01*
X234696448Y-80096175D01*
X234696452Y-80096173D01*
X234696457Y-80096173D01*
X234841320Y-80036169D01*
X234965716Y-79940716D01*
X235061169Y-79816320D01*
X235064110Y-79809221D01*
X235078265Y-79775046D01*
X235121173Y-79671457D01*
X235136500Y-79555035D01*
X235136499Y-78716966D01*
X235136499Y-78716964D01*
X235136499Y-78716962D01*
X235121175Y-78600551D01*
X235121173Y-78600544D01*
X235121173Y-78600543D01*
X235099006Y-78547028D01*
X235061170Y-78455681D01*
X235061168Y-78455678D01*
X235016592Y-78397587D01*
X234965716Y-78331284D01*
X234885966Y-78270089D01*
X234841321Y-78235831D01*
X234841318Y-78235829D01*
X234696460Y-78175828D01*
X234696455Y-78175826D01*
X234580036Y-78160500D01*
X234580035Y-78160500D01*
X234460500Y-78160500D01*
X234393461Y-78140815D01*
X234347706Y-78088011D01*
X234336500Y-78036500D01*
X234336499Y-77695499D01*
X234356183Y-77628460D01*
X234408987Y-77582705D01*
X234460499Y-77571499D01*
X234580037Y-77571499D01*
X234696448Y-77556175D01*
X234696452Y-77556173D01*
X234696457Y-77556173D01*
X234841320Y-77496169D01*
X234965716Y-77400716D01*
X235061169Y-77276320D01*
X235121173Y-77131457D01*
X235136500Y-77015035D01*
X235136499Y-76176966D01*
X235136499Y-76176962D01*
X235121175Y-76060551D01*
X235121173Y-76060546D01*
X235121173Y-76060543D01*
X235091247Y-75988294D01*
X235061170Y-75915681D01*
X235061168Y-75915678D01*
X234997085Y-75832165D01*
X234965716Y-75791284D01*
X234903518Y-75743557D01*
X234841321Y-75695831D01*
X234841318Y-75695829D01*
X234696460Y-75635828D01*
X234696455Y-75635826D01*
X234580036Y-75620500D01*
X234580035Y-75620500D01*
X234460500Y-75620500D01*
X234393461Y-75600815D01*
X234347706Y-75548011D01*
X234336500Y-75496500D01*
X234336499Y-75155499D01*
X234356183Y-75088460D01*
X234408987Y-75042705D01*
X234460499Y-75031499D01*
X234580037Y-75031499D01*
X234696448Y-75016175D01*
X234696452Y-75016173D01*
X234696457Y-75016173D01*
X234841320Y-74956169D01*
X234965716Y-74860716D01*
X235061169Y-74736320D01*
X235064110Y-74729221D01*
X235085575Y-74677399D01*
X235121173Y-74591457D01*
X235136500Y-74475035D01*
X235136499Y-74181094D01*
X235156183Y-74114057D01*
X235208987Y-74068302D01*
X235278146Y-74058358D01*
X235341701Y-74087383D01*
X235348180Y-74093415D01*
X235863181Y-74608416D01*
X235896666Y-74669739D01*
X235899500Y-74696097D01*
X235899500Y-79920234D01*
X235879815Y-79987273D01*
X235878602Y-79989125D01*
X235790609Y-80120814D01*
X235790602Y-80120827D01*
X235730264Y-80266498D01*
X235730261Y-80266510D01*
X235699500Y-80421153D01*
X235699500Y-80578846D01*
X235730261Y-80733489D01*
X235730264Y-80733501D01*
X235790602Y-80879172D01*
X235790609Y-80879185D01*
X235878210Y-81010288D01*
X235878213Y-81010292D01*
X235989707Y-81121786D01*
X235989711Y-81121789D01*
X236120814Y-81209390D01*
X236120827Y-81209397D01*
X236266498Y-81269735D01*
X236266503Y-81269737D01*
X236421153Y-81300499D01*
X236421156Y-81300500D01*
X236421158Y-81300500D01*
X236578844Y-81300500D01*
X236578845Y-81300499D01*
X236733497Y-81269737D01*
X236879179Y-81209394D01*
X237010289Y-81121789D01*
X237121789Y-81010289D01*
X237209394Y-80879179D01*
X237269737Y-80733497D01*
X237300500Y-80578842D01*
X237300500Y-80421158D01*
X237300500Y-80421155D01*
X237300499Y-80421153D01*
X237292272Y-80379792D01*
X237269737Y-80266503D01*
X237261069Y-80245577D01*
X237209397Y-80120827D01*
X237209390Y-80120814D01*
X237121398Y-79989125D01*
X237100520Y-79922447D01*
X237100500Y-79920234D01*
X237100500Y-75832165D01*
X239830512Y-75832165D01*
X239830512Y-78235480D01*
X239833235Y-78270083D01*
X239833236Y-78270089D01*
X239876268Y-78418204D01*
X239876269Y-78418207D01*
X239954786Y-78550973D01*
X239954793Y-78550982D01*
X240063852Y-78660041D01*
X240063861Y-78660048D01*
X240087701Y-78674147D01*
X240196626Y-78738565D01*
X240235687Y-78749913D01*
X240344745Y-78781598D01*
X240344748Y-78781598D01*
X240344750Y-78781599D01*
X240379362Y-78784323D01*
X240379370Y-78784323D01*
X241382654Y-78784323D01*
X241382662Y-78784323D01*
X241417274Y-78781599D01*
X241417276Y-78781598D01*
X241417278Y-78781598D01*
X241456335Y-78770250D01*
X241565398Y-78738565D01*
X241698166Y-78660046D01*
X241793685Y-78564526D01*
X241855006Y-78531043D01*
X241924698Y-78536027D01*
X241969046Y-78564528D01*
X242064161Y-78659643D01*
X242064170Y-78659650D01*
X242196825Y-78738102D01*
X242344829Y-78781100D01*
X242344834Y-78781101D01*
X242379408Y-78783822D01*
X242379420Y-78783823D01*
X243382604Y-78783823D01*
X243382615Y-78783822D01*
X243417189Y-78781101D01*
X243417194Y-78781100D01*
X243565198Y-78738102D01*
X243697853Y-78659650D01*
X243697862Y-78659643D01*
X243806832Y-78550673D01*
X243806839Y-78550664D01*
X243885289Y-78418013D01*
X243885291Y-78418009D01*
X243891223Y-78397588D01*
X243891223Y-78397587D01*
X242917331Y-77423695D01*
X242883846Y-77362372D01*
X242881012Y-77336014D01*
X242881012Y-77033822D01*
X243234565Y-77033822D01*
X243234565Y-77033823D01*
X243931011Y-77730270D01*
X243931012Y-77730269D01*
X243931012Y-76337376D01*
X243931011Y-76337375D01*
X243234565Y-77033822D01*
X242881012Y-77033822D01*
X242881012Y-76731632D01*
X242900697Y-76664593D01*
X242917331Y-76643951D01*
X243891223Y-75670058D01*
X243885291Y-75649636D01*
X243885290Y-75649635D01*
X243806836Y-75516978D01*
X243806832Y-75516972D01*
X243697862Y-75408002D01*
X243697853Y-75407995D01*
X243636533Y-75371731D01*
X243588850Y-75320662D01*
X243576346Y-75251920D01*
X243602991Y-75187331D01*
X243660327Y-75147401D01*
X243699654Y-75140999D01*
X244199971Y-75140999D01*
X244199987Y-75140998D01*
X244302696Y-75130505D01*
X244365229Y-75109783D01*
X244365230Y-75109783D01*
X243000000Y-73744553D01*
X241641929Y-75102622D01*
X241712121Y-75132019D01*
X241800021Y-75140999D01*
X242062368Y-75140999D01*
X242129407Y-75160683D01*
X242175162Y-75213487D01*
X242185106Y-75282646D01*
X242156081Y-75346201D01*
X242125490Y-75371730D01*
X242064172Y-75407993D01*
X242064165Y-75407999D01*
X241969046Y-75503118D01*
X241948079Y-75514566D01*
X241929577Y-75529680D01*
X241917971Y-75531005D01*
X241907722Y-75536602D01*
X241883894Y-75534897D01*
X241860159Y-75537609D01*
X241849681Y-75532451D01*
X241838031Y-75531618D01*
X241805437Y-75510670D01*
X241797473Y-75506750D01*
X241795413Y-75504228D01*
X241793684Y-75503117D01*
X241698171Y-75407604D01*
X241698162Y-75407597D01*
X241625431Y-75364584D01*
X241625427Y-75364582D01*
X241565398Y-75329081D01*
X241484620Y-75305612D01*
X241484611Y-75305609D01*
X241417272Y-75286046D01*
X241382669Y-75283323D01*
X241382662Y-75283323D01*
X240379362Y-75283323D01*
X240379354Y-75283323D01*
X240344751Y-75286046D01*
X240344745Y-75286047D01*
X240196630Y-75329079D01*
X240196627Y-75329080D01*
X240063861Y-75407597D01*
X240063852Y-75407604D01*
X239954793Y-75516663D01*
X239954786Y-75516672D01*
X239876269Y-75649438D01*
X239876268Y-75649441D01*
X239833236Y-75797556D01*
X239833235Y-75797562D01*
X239830512Y-75832165D01*
X237100500Y-75832165D01*
X237100500Y-74316945D01*
X237100500Y-74316943D01*
X237059577Y-74164216D01*
X237059577Y-74164215D01*
X237014033Y-74085331D01*
X236980520Y-74027284D01*
X236868716Y-73915480D01*
X236864385Y-73911149D01*
X236864374Y-73911139D01*
X235145643Y-72192408D01*
X235112158Y-72131085D01*
X235117142Y-72061393D01*
X235118765Y-72057270D01*
X235121173Y-72051457D01*
X235136500Y-71935035D01*
X235136499Y-71096966D01*
X235136499Y-71096964D01*
X235136499Y-71096962D01*
X235121175Y-70980551D01*
X235121173Y-70980544D01*
X235121173Y-70980543D01*
X235079941Y-70881000D01*
X235061170Y-70835681D01*
X235061168Y-70835678D01*
X235001330Y-70757697D01*
X234965716Y-70711284D01*
X234882609Y-70647513D01*
X234841321Y-70615831D01*
X234841318Y-70615829D01*
X234696460Y-70555828D01*
X234696455Y-70555826D01*
X234580036Y-70540500D01*
X234580035Y-70540500D01*
X234460500Y-70540500D01*
X234393461Y-70520815D01*
X234347706Y-70468011D01*
X234336500Y-70416500D01*
X234336499Y-70075499D01*
X234356183Y-70008460D01*
X234408987Y-69962705D01*
X234460499Y-69951499D01*
X234580037Y-69951499D01*
X234696448Y-69936175D01*
X234696452Y-69936173D01*
X234696457Y-69936173D01*
X234814562Y-69887252D01*
X234841318Y-69876170D01*
X234841321Y-69876168D01*
X234851267Y-69868536D01*
X234965716Y-69780716D01*
X235061169Y-69656320D01*
X235121173Y-69511457D01*
X235136500Y-69395035D01*
X235136499Y-68556966D01*
X235136499Y-68556964D01*
X235136499Y-68556962D01*
X235121175Y-68440551D01*
X235121173Y-68440544D01*
X235121173Y-68440543D01*
X235089619Y-68364364D01*
X235061170Y-68295681D01*
X235061168Y-68295678D01*
X235019562Y-68241457D01*
X234965716Y-68171284D01*
X234854479Y-68085928D01*
X234841321Y-68075831D01*
X234841318Y-68075829D01*
X234696460Y-68015828D01*
X234696455Y-68015826D01*
X234580036Y-68000500D01*
X234580035Y-68000500D01*
X234460500Y-68000500D01*
X234393461Y-67980815D01*
X234347706Y-67928011D01*
X234336500Y-67876500D01*
X234336499Y-67535499D01*
X234356183Y-67468460D01*
X234408987Y-67422705D01*
X234460499Y-67411499D01*
X234580037Y-67411499D01*
X234696448Y-67396175D01*
X234696452Y-67396173D01*
X234696457Y-67396173D01*
X234841320Y-67336169D01*
X234965716Y-67240716D01*
X235061169Y-67116320D01*
X235121173Y-66971457D01*
X235136500Y-66855035D01*
X235136499Y-66016966D01*
X235136499Y-66016962D01*
X235121175Y-65900551D01*
X235121173Y-65900546D01*
X235121173Y-65900543D01*
X235061274Y-65755933D01*
X235061170Y-65755681D01*
X235061168Y-65755678D01*
X235027913Y-65712340D01*
X234965716Y-65631284D01*
X234903518Y-65583557D01*
X234841321Y-65535831D01*
X234841318Y-65535829D01*
X234696460Y-65475828D01*
X234696455Y-65475826D01*
X234580036Y-65460500D01*
X234580035Y-65460500D01*
X234460500Y-65460500D01*
X234393461Y-65440815D01*
X234347706Y-65388011D01*
X234336500Y-65336500D01*
X234336499Y-64995499D01*
X234356183Y-64928460D01*
X234408987Y-64882705D01*
X234460499Y-64871499D01*
X234580037Y-64871499D01*
X234696448Y-64856175D01*
X234696452Y-64856173D01*
X234696457Y-64856173D01*
X234830864Y-64800500D01*
X234841318Y-64796170D01*
X234841321Y-64796168D01*
X234845146Y-64793233D01*
X234965716Y-64700716D01*
X235061169Y-64576320D01*
X235061906Y-64574542D01*
X235076127Y-64540208D01*
X235121173Y-64431457D01*
X235136500Y-64315035D01*
X235136499Y-63476966D01*
X235136499Y-63476964D01*
X235136499Y-63476962D01*
X235121175Y-63360551D01*
X235121173Y-63360544D01*
X235121173Y-63360543D01*
X235099006Y-63307028D01*
X235061170Y-63215681D01*
X235061168Y-63215678D01*
X235027913Y-63172340D01*
X234965716Y-63091284D01*
X234903518Y-63043557D01*
X234841321Y-62995831D01*
X234841318Y-62995829D01*
X234696460Y-62935828D01*
X234696455Y-62935826D01*
X234580035Y-62920500D01*
X232659962Y-62920500D01*
X232543551Y-62935824D01*
X232543539Y-62935828D01*
X232437315Y-62979827D01*
X232367845Y-62987296D01*
X232305366Y-62956020D01*
X232302182Y-62952947D01*
X227262416Y-57913181D01*
X227228931Y-57851858D01*
X227233915Y-57782166D01*
X227275787Y-57726233D01*
X227341251Y-57701816D01*
X227350097Y-57701500D01*
X228443836Y-57701500D01*
X228443843Y-57701500D01*
X228697340Y-57668126D01*
X228944313Y-57601950D01*
X229180535Y-57504104D01*
X229401965Y-57376261D01*
X229604813Y-57220610D01*
X229785610Y-57039813D01*
X229941261Y-56836965D01*
X230069104Y-56615535D01*
X230166950Y-56379313D01*
X230233126Y-56132340D01*
X230266500Y-55878843D01*
X230266500Y-55623157D01*
X230233126Y-55369660D01*
X230166950Y-55122687D01*
X230069104Y-54886465D01*
X230069102Y-54886462D01*
X230069100Y-54886457D01*
X229941265Y-54665042D01*
X229941261Y-54665035D01*
X229785610Y-54462187D01*
X229785605Y-54462181D01*
X229604818Y-54281394D01*
X229604811Y-54281388D01*
X229401973Y-54125745D01*
X229401971Y-54125743D01*
X229401965Y-54125739D01*
X229401960Y-54125736D01*
X229401957Y-54125734D01*
X229180542Y-53997899D01*
X229180531Y-53997894D01*
X228944322Y-53900053D01*
X228944315Y-53900051D01*
X228944313Y-53900050D01*
X228697340Y-53833874D01*
X228641007Y-53826457D01*
X228443850Y-53800500D01*
X228443843Y-53800500D01*
X227288157Y-53800500D01*
X227288149Y-53800500D01*
X227062826Y-53830165D01*
X227034660Y-53833874D01*
X226787687Y-53900050D01*
X226787677Y-53900053D01*
X226551468Y-53997894D01*
X226551457Y-53997899D01*
X226330042Y-54125734D01*
X226330026Y-54125745D01*
X226127188Y-54281388D01*
X226127181Y-54281394D01*
X225946394Y-54462181D01*
X225946388Y-54462188D01*
X225790745Y-54665026D01*
X225790734Y-54665042D01*
X225662899Y-54886457D01*
X225662894Y-54886468D01*
X225565053Y-55122677D01*
X225565050Y-55122687D01*
X225498874Y-55369661D01*
X225465500Y-55623149D01*
X225465500Y-55816903D01*
X225445815Y-55883942D01*
X225393011Y-55929697D01*
X225323853Y-55939641D01*
X225260297Y-55910616D01*
X225253819Y-55904584D01*
X222361416Y-53012181D01*
X222327931Y-52950858D01*
X222332915Y-52881166D01*
X222374787Y-52825233D01*
X222440251Y-52800816D01*
X222449097Y-52800500D01*
X222578844Y-52800500D01*
X222578845Y-52800499D01*
X222733497Y-52769737D01*
X222879179Y-52709394D01*
X223010289Y-52621789D01*
X223121789Y-52510289D01*
X223209394Y-52379179D01*
X223269737Y-52233497D01*
X223300500Y-52078842D01*
X223300500Y-51921158D01*
X223300500Y-51921155D01*
X223300499Y-51921153D01*
X223269737Y-51766503D01*
X223269735Y-51766498D01*
X223209397Y-51620828D01*
X223209396Y-51620827D01*
X223209394Y-51620821D01*
X223161397Y-51548988D01*
X223140520Y-51482312D01*
X223140500Y-51480099D01*
X223140500Y-50874499D01*
X223160185Y-50807460D01*
X223212989Y-50761705D01*
X223264500Y-50750499D01*
X223337871Y-50750499D01*
X223337872Y-50750499D01*
X223397483Y-50744091D01*
X223532331Y-50693796D01*
X223647546Y-50607546D01*
X223733796Y-50492331D01*
X223784091Y-50357483D01*
X223790500Y-50297873D01*
X223790499Y-48702128D01*
X223784091Y-48642517D01*
X223748157Y-48546174D01*
X223733797Y-48507671D01*
X223733793Y-48507664D01*
X223647547Y-48392455D01*
X223647544Y-48392452D01*
X223532335Y-48306206D01*
X223532328Y-48306202D01*
X223397482Y-48255908D01*
X223397483Y-48255908D01*
X223337883Y-48249501D01*
X223337881Y-48249500D01*
X223337873Y-48249500D01*
X223337865Y-48249500D01*
X223264500Y-48249500D01*
X223197461Y-48229815D01*
X223151706Y-48177011D01*
X223140500Y-48125500D01*
X223140500Y-44800097D01*
X223160185Y-44733058D01*
X223176819Y-44712416D01*
X223179169Y-44710066D01*
X223240492Y-44676581D01*
X223286246Y-44675274D01*
X223328982Y-44682042D01*
X223445514Y-44700500D01*
X223445519Y-44700500D01*
X223634486Y-44700500D01*
X223821118Y-44670940D01*
X223851753Y-44660986D01*
X224000832Y-44612547D01*
X224169199Y-44526760D01*
X224322073Y-44415690D01*
X224455690Y-44282073D01*
X224566760Y-44129199D01*
X224652547Y-43960832D01*
X224710940Y-43781118D01*
X224740500Y-43594486D01*
X224740500Y-43405513D01*
X224710940Y-43218881D01*
X224652545Y-43039163D01*
X224566759Y-42870800D01*
X224455690Y-42717927D01*
X224322073Y-42584310D01*
X224169199Y-42473240D01*
X224000836Y-42387454D01*
X223821118Y-42329059D01*
X223634486Y-42299500D01*
X223634481Y-42299500D01*
X223445519Y-42299500D01*
X223445514Y-42299500D01*
X223258881Y-42329059D01*
X223079163Y-42387454D01*
X222910800Y-42473240D01*
X222823579Y-42536610D01*
X222757927Y-42584310D01*
X222757925Y-42584312D01*
X222757924Y-42584312D01*
X222624312Y-42717924D01*
X222624312Y-42717925D01*
X222624310Y-42717927D01*
X222576610Y-42783579D01*
X222513240Y-42870800D01*
X222427454Y-43039163D01*
X222369059Y-43218881D01*
X222339500Y-43405513D01*
X222339500Y-43594486D01*
X222364725Y-43753751D01*
X222355770Y-43823045D01*
X222329934Y-43860830D01*
X222171286Y-44019478D01*
X222171284Y-44019480D01*
X222115382Y-44075381D01*
X222059481Y-44131282D01*
X222059480Y-44131284D01*
X222042540Y-44160626D01*
X221980423Y-44268215D01*
X221939499Y-44420943D01*
X221939499Y-44420945D01*
X221939499Y-44589046D01*
X221939500Y-44589059D01*
X221939500Y-48125500D01*
X221919815Y-48192539D01*
X221867011Y-48238294D01*
X221815502Y-48249500D01*
X221742130Y-48249500D01*
X221742123Y-48249501D01*
X221682516Y-48255908D01*
X221547671Y-48306202D01*
X221547664Y-48306206D01*
X221432455Y-48392452D01*
X221432452Y-48392455D01*
X221346206Y-48507664D01*
X221346202Y-48507671D01*
X221295908Y-48642517D01*
X221291303Y-48685354D01*
X221289501Y-48702123D01*
X221289500Y-48702135D01*
X221289500Y-48765732D01*
X221269815Y-48832771D01*
X221217011Y-48878526D01*
X221147853Y-48888470D01*
X221084297Y-48859445D01*
X221065182Y-48838618D01*
X220966020Y-48702135D01*
X220953828Y-48685354D01*
X220814646Y-48546172D01*
X220655405Y-48430476D01*
X220585750Y-48394985D01*
X220480029Y-48341117D01*
X220292826Y-48280290D01*
X220098422Y-48249500D01*
X220098417Y-48249500D01*
X219901583Y-48249500D01*
X219901577Y-48249500D01*
X219702544Y-48281023D01*
X219633251Y-48272068D01*
X219595466Y-48246231D01*
X216556819Y-45207584D01*
X216523334Y-45146261D01*
X216520500Y-45119903D01*
X216520500Y-44610791D01*
X216540185Y-44543752D01*
X216571612Y-44510475D01*
X216702073Y-44415690D01*
X216835690Y-44282073D01*
X216946760Y-44129199D01*
X217032547Y-43960832D01*
X217090940Y-43781118D01*
X217120500Y-43594486D01*
X217120500Y-43405513D01*
X217090940Y-43218881D01*
X217032545Y-43039163D01*
X216946759Y-42870800D01*
X216835690Y-42717927D01*
X216702073Y-42584310D01*
X216549199Y-42473240D01*
X216380836Y-42387454D01*
X216201118Y-42329059D01*
X216014486Y-42299500D01*
X216014481Y-42299500D01*
X215825519Y-42299500D01*
X215825514Y-42299500D01*
X215638881Y-42329059D01*
X215459163Y-42387454D01*
X215290800Y-42473240D01*
X215203579Y-42536610D01*
X215137927Y-42584310D01*
X215137925Y-42584312D01*
X215137924Y-42584312D01*
X215004312Y-42717924D01*
X215004312Y-42717925D01*
X215004310Y-42717927D01*
X214956610Y-42783579D01*
X214893240Y-42870800D01*
X214807454Y-43039163D01*
X214749059Y-43218881D01*
X214719500Y-43405513D01*
X214719500Y-43594486D01*
X214749059Y-43781118D01*
X214807454Y-43960836D01*
X214893240Y-44129199D01*
X215004310Y-44282073D01*
X215137927Y-44415690D01*
X215268386Y-44510474D01*
X215311051Y-44565803D01*
X215319500Y-44610791D01*
X215319500Y-45333330D01*
X215319499Y-45333348D01*
X215319499Y-45499054D01*
X215319498Y-45499054D01*
X215360423Y-45651785D01*
X215389358Y-45701900D01*
X215389359Y-45701904D01*
X215389360Y-45701904D01*
X215439479Y-45788714D01*
X215439481Y-45788717D01*
X215558349Y-45907585D01*
X215558355Y-45907590D01*
X217694742Y-48043977D01*
X217728227Y-48105300D01*
X217723243Y-48174992D01*
X217681371Y-48230925D01*
X217615907Y-48255342D01*
X217587664Y-48254131D01*
X217558424Y-48249500D01*
X217558417Y-48249500D01*
X217361583Y-48249500D01*
X217361578Y-48249500D01*
X217167173Y-48280290D01*
X216979970Y-48341117D01*
X216804594Y-48430476D01*
X216713741Y-48496485D01*
X216645354Y-48546172D01*
X216645352Y-48546174D01*
X216645351Y-48546174D01*
X216506174Y-48685351D01*
X216506174Y-48685352D01*
X216506172Y-48685354D01*
X216493980Y-48702135D01*
X216390476Y-48844594D01*
X216300204Y-49021764D01*
X216252229Y-49072560D01*
X216184408Y-49089355D01*
X216118274Y-49066818D01*
X216079234Y-49021764D01*
X215989096Y-48844858D01*
X215963678Y-48809873D01*
X215963677Y-48809873D01*
X215320000Y-49453551D01*
X215320000Y-49447339D01*
X215292741Y-49345606D01*
X215240080Y-49254394D01*
X215165606Y-49179920D01*
X215074394Y-49127259D01*
X214972661Y-49100000D01*
X214966447Y-49100000D01*
X215610125Y-48456320D01*
X215610125Y-48456319D01*
X215575145Y-48430905D01*
X215399835Y-48341581D01*
X215212705Y-48280778D01*
X215018382Y-48250000D01*
X214821618Y-48250000D01*
X214627294Y-48280778D01*
X214440161Y-48341582D01*
X214264863Y-48430899D01*
X214264859Y-48430902D01*
X214229873Y-48456320D01*
X214229872Y-48456320D01*
X214873554Y-49100000D01*
X214867339Y-49100000D01*
X214765606Y-49127259D01*
X214674394Y-49179920D01*
X214599920Y-49254394D01*
X214547259Y-49345606D01*
X214520000Y-49447339D01*
X214520000Y-49453552D01*
X213876320Y-48809872D01*
X213876320Y-48809873D01*
X213850902Y-48844859D01*
X213850899Y-48844863D01*
X213761582Y-49020161D01*
X213700778Y-49207294D01*
X213670000Y-49401617D01*
X213670000Y-49598382D01*
X213700778Y-49792705D01*
X213761581Y-49979835D01*
X213850905Y-50155145D01*
X213876319Y-50190125D01*
X213876320Y-50190125D01*
X214520000Y-49546445D01*
X214520000Y-49552661D01*
X214547259Y-49654394D01*
X214599920Y-49745606D01*
X214674394Y-49820080D01*
X214765606Y-49872741D01*
X214867339Y-49900000D01*
X214873553Y-49900000D01*
X214229873Y-50543677D01*
X214229873Y-50543678D01*
X214264858Y-50569096D01*
X214440164Y-50658418D01*
X214627294Y-50719221D01*
X214821618Y-50750000D01*
X215018382Y-50750000D01*
X215212705Y-50719221D01*
X215399835Y-50658418D01*
X215575143Y-50569095D01*
X215610125Y-50543678D01*
X215610126Y-50543678D01*
X214966448Y-49900000D01*
X214972661Y-49900000D01*
X215074394Y-49872741D01*
X215165606Y-49820080D01*
X215240080Y-49745606D01*
X215292741Y-49654394D01*
X215320000Y-49552661D01*
X215320000Y-49546447D01*
X215963678Y-50190126D01*
X215963678Y-50190125D01*
X215989097Y-50155141D01*
X216079234Y-49978236D01*
X216127208Y-49927439D01*
X216195029Y-49910644D01*
X216261164Y-49933181D01*
X216300204Y-49978235D01*
X216301115Y-49980024D01*
X216301116Y-49980025D01*
X216390476Y-50155405D01*
X216506172Y-50314646D01*
X216645354Y-50453828D01*
X216804595Y-50569524D01*
X216863427Y-50599500D01*
X216979970Y-50658882D01*
X216979972Y-50658882D01*
X216979975Y-50658884D01*
X217080317Y-50691487D01*
X217167173Y-50719709D01*
X217361578Y-50750500D01*
X217361583Y-50750500D01*
X217558422Y-50750500D01*
X217752826Y-50719709D01*
X217832574Y-50693797D01*
X217940025Y-50658884D01*
X218115405Y-50569524D01*
X218274646Y-50453828D01*
X218413828Y-50314646D01*
X218529524Y-50155405D01*
X218618884Y-49980025D01*
X218619515Y-49978787D01*
X218667489Y-49927990D01*
X218735310Y-49911195D01*
X218801445Y-49933732D01*
X218840485Y-49978787D01*
X218930474Y-50155403D01*
X218934817Y-50161380D01*
X219046172Y-50314646D01*
X219185354Y-50453828D01*
X219344005Y-50569095D01*
X219348386Y-50572278D01*
X219391051Y-50627608D01*
X219399500Y-50672596D01*
X219399500Y-51413330D01*
X219399499Y-51413348D01*
X219399499Y-51579054D01*
X219399498Y-51579054D01*
X219440423Y-51731785D01*
X219460468Y-51766503D01*
X219499809Y-51834645D01*
X219519479Y-51868715D01*
X219638349Y-51987585D01*
X219638355Y-51987590D01*
X229838584Y-62187819D01*
X229872069Y-62249142D01*
X229867085Y-62318834D01*
X229825213Y-62374767D01*
X229759749Y-62399184D01*
X229750903Y-62399500D01*
X193086670Y-62399500D01*
X193086654Y-62399499D01*
X193079058Y-62399499D01*
X192920943Y-62399499D01*
X192844579Y-62419961D01*
X192768214Y-62440423D01*
X192768209Y-62440426D01*
X192631290Y-62519475D01*
X192631282Y-62519481D01*
X191924315Y-63226448D01*
X191862992Y-63259933D01*
X191793300Y-63254949D01*
X191789182Y-63253328D01*
X191733501Y-63230264D01*
X191733489Y-63230261D01*
X191578845Y-63199500D01*
X191578842Y-63199500D01*
X191421158Y-63199500D01*
X191421155Y-63199500D01*
X191266510Y-63230261D01*
X191266498Y-63230264D01*
X191120827Y-63290602D01*
X191120814Y-63290609D01*
X190989711Y-63378210D01*
X190989707Y-63378213D01*
X190878213Y-63489707D01*
X190878210Y-63489711D01*
X190790609Y-63620814D01*
X190790602Y-63620827D01*
X190730264Y-63766498D01*
X190730261Y-63766510D01*
X190699500Y-63921153D01*
X190699500Y-64078846D01*
X190730261Y-64233489D01*
X190730264Y-64233501D01*
X190790602Y-64379172D01*
X190790609Y-64379185D01*
X190878210Y-64510288D01*
X190878213Y-64510292D01*
X190989707Y-64621786D01*
X190989711Y-64621789D01*
X191120814Y-64709390D01*
X191120827Y-64709397D01*
X191258792Y-64766543D01*
X191266503Y-64769737D01*
X191421153Y-64800499D01*
X191421156Y-64800500D01*
X191421158Y-64800500D01*
X191578844Y-64800500D01*
X191578845Y-64800499D01*
X191733497Y-64769737D01*
X191819122Y-64734270D01*
X191872002Y-64712367D01*
X191941471Y-64704898D01*
X192003950Y-64736173D01*
X192039602Y-64796262D01*
X192037385Y-64865246D01*
X191978910Y-65045210D01*
X191978910Y-65045213D01*
X191968603Y-65110288D01*
X191939500Y-65294038D01*
X191939500Y-65545962D01*
X191972756Y-65755933D01*
X191978910Y-65794785D01*
X192056760Y-66034383D01*
X192171132Y-66258848D01*
X192319201Y-66462649D01*
X192319205Y-66462654D01*
X192497345Y-66640794D01*
X192497350Y-66640798D01*
X192650724Y-66752230D01*
X192701155Y-66788870D01*
X192830939Y-66854998D01*
X192925616Y-66903239D01*
X192925618Y-66903239D01*
X192925621Y-66903241D01*
X193165215Y-66981090D01*
X193414038Y-67020500D01*
X193414039Y-67020500D01*
X193665961Y-67020500D01*
X193665962Y-67020500D01*
X193914785Y-66981090D01*
X194154379Y-66903241D01*
X194378845Y-66788870D01*
X194582656Y-66640793D01*
X194760793Y-66462656D01*
X194908870Y-66258845D01*
X195023241Y-66034379D01*
X195101090Y-65794785D01*
X195140500Y-65545962D01*
X195140500Y-65294038D01*
X195101090Y-65045215D01*
X195101089Y-65045211D01*
X195101089Y-65045210D01*
X195041909Y-64863074D01*
X195039914Y-64793233D01*
X195072157Y-64737077D01*
X195172417Y-64636817D01*
X195233740Y-64603334D01*
X195260097Y-64600500D01*
X226582152Y-64600500D01*
X226649191Y-64620185D01*
X226694946Y-64672989D01*
X226703769Y-64700308D01*
X226730261Y-64833491D01*
X226730264Y-64833501D01*
X226790602Y-64979172D01*
X226790609Y-64979185D01*
X226878210Y-65110288D01*
X226878213Y-65110292D01*
X226989707Y-65221786D01*
X226989711Y-65221789D01*
X227120814Y-65309390D01*
X227120827Y-65309397D01*
X227250675Y-65363181D01*
X227266503Y-65369737D01*
X227416126Y-65399499D01*
X227421153Y-65400499D01*
X227421156Y-65400500D01*
X227421158Y-65400500D01*
X227578844Y-65400500D01*
X227578845Y-65400499D01*
X227733497Y-65369737D01*
X227846166Y-65323067D01*
X227879172Y-65309397D01*
X227879172Y-65309396D01*
X227879179Y-65309394D01*
X227902161Y-65294038D01*
X228010875Y-65221398D01*
X228077553Y-65200520D01*
X228079766Y-65200500D01*
X229799903Y-65200500D01*
X229866942Y-65220185D01*
X229887584Y-65236819D01*
X231667181Y-67016416D01*
X231700666Y-67077739D01*
X231703500Y-67104097D01*
X231703500Y-67319330D01*
X231703499Y-67319348D01*
X231703499Y-67485054D01*
X231703498Y-67485054D01*
X231713539Y-67522525D01*
X231730367Y-67585330D01*
X231744423Y-67637784D01*
X231744425Y-67637790D01*
X231747867Y-67643752D01*
X231747871Y-67643757D01*
X231823477Y-67774712D01*
X231823481Y-67774717D01*
X231942349Y-67893585D01*
X231942355Y-67893590D01*
X232067181Y-68018416D01*
X232100666Y-68079739D01*
X232103500Y-68106092D01*
X232103500Y-68125035D01*
X232118018Y-68235317D01*
X232107252Y-68304352D01*
X232060871Y-68356607D01*
X231995079Y-68375500D01*
X208110670Y-68375500D01*
X208110654Y-68375499D01*
X208103058Y-68375499D01*
X207944943Y-68375499D01*
X207868579Y-68395961D01*
X207792214Y-68416423D01*
X207792209Y-68416426D01*
X207655290Y-68495475D01*
X207655282Y-68495481D01*
X202019481Y-74131282D01*
X202019479Y-74131285D01*
X202000467Y-74164215D01*
X201972640Y-74212415D01*
X201969361Y-74218094D01*
X201969359Y-74218096D01*
X201940425Y-74268209D01*
X201940424Y-74268210D01*
X201931880Y-74300096D01*
X201899499Y-74420943D01*
X201899499Y-74420945D01*
X201899499Y-74589046D01*
X201899500Y-74589059D01*
X201899500Y-79913330D01*
X201899499Y-79913348D01*
X201899499Y-80079054D01*
X201899498Y-80079054D01*
X201899499Y-80079057D01*
X201940423Y-80231785D01*
X201943653Y-80237380D01*
X201948384Y-80245575D01*
X201948386Y-80245577D01*
X202019477Y-80368712D01*
X202019481Y-80368717D01*
X202138349Y-80487585D01*
X202138355Y-80487590D01*
X203323181Y-81672416D01*
X203356666Y-81733739D01*
X203359500Y-81760097D01*
X203359500Y-86353699D01*
X203339815Y-86420738D01*
X203291795Y-86464184D01*
X203121151Y-86551132D01*
X202917350Y-86699201D01*
X202917345Y-86699205D01*
X202739205Y-86877345D01*
X202739201Y-86877350D01*
X202591132Y-87081151D01*
X202476760Y-87305616D01*
X202398910Y-87545214D01*
X202371023Y-87721283D01*
X202359500Y-87794038D01*
X202359500Y-88045962D01*
X202371936Y-88124479D01*
X202398910Y-88294785D01*
X202476760Y-88534383D01*
X202520803Y-88620821D01*
X202587060Y-88750858D01*
X202591132Y-88758848D01*
X202739201Y-88962649D01*
X202739205Y-88962654D01*
X202917345Y-89140794D01*
X202917350Y-89140798D01*
X203095117Y-89269952D01*
X203121155Y-89288870D01*
X203264184Y-89361747D01*
X203345616Y-89403239D01*
X203345618Y-89403239D01*
X203345621Y-89403241D01*
X203585215Y-89481090D01*
X203834038Y-89520500D01*
X203834039Y-89520500D01*
X204085961Y-89520500D01*
X204085962Y-89520500D01*
X204334785Y-89481090D01*
X204574379Y-89403241D01*
X204798845Y-89288870D01*
X205002656Y-89140793D01*
X205180793Y-88962656D01*
X205328870Y-88758845D01*
X205443241Y-88534379D01*
X205521090Y-88294785D01*
X205560500Y-88045962D01*
X205560500Y-87794038D01*
X205521090Y-87545215D01*
X205443241Y-87305621D01*
X205443239Y-87305618D01*
X205443239Y-87305616D01*
X205383218Y-87187819D01*
X205328870Y-87081155D01*
X205276591Y-87009199D01*
X205180798Y-86877350D01*
X205180794Y-86877345D01*
X205002654Y-86699205D01*
X205002649Y-86699201D01*
X204798848Y-86551132D01*
X204798847Y-86551131D01*
X204798845Y-86551130D01*
X204682219Y-86491706D01*
X204628205Y-86464184D01*
X204577409Y-86416209D01*
X204560500Y-86353699D01*
X204560500Y-81549060D01*
X204560501Y-81549047D01*
X204560501Y-81380945D01*
X204560501Y-81380943D01*
X204519577Y-81228215D01*
X204440520Y-81091284D01*
X204244005Y-80894769D01*
X204210520Y-80833446D01*
X204215504Y-80763754D01*
X204257376Y-80707821D01*
X204322840Y-80683404D01*
X204379138Y-80692526D01*
X204435687Y-80715950D01*
X204682660Y-80782126D01*
X204936157Y-80815500D01*
X204936164Y-80815500D01*
X206091836Y-80815500D01*
X206091843Y-80815500D01*
X206345340Y-80782126D01*
X206592313Y-80715950D01*
X206828535Y-80618104D01*
X206832831Y-80615624D01*
X206895387Y-80579507D01*
X207049965Y-80490261D01*
X207252813Y-80334610D01*
X207433610Y-80153813D01*
X207589261Y-79950965D01*
X207717104Y-79729535D01*
X207814950Y-79493313D01*
X207881126Y-79246340D01*
X207914500Y-78992843D01*
X207914500Y-78737157D01*
X207881126Y-78483660D01*
X207814950Y-78236687D01*
X207814947Y-78236679D01*
X207814946Y-78236676D01*
X207737405Y-78049477D01*
X207717104Y-78000465D01*
X207717102Y-78000462D01*
X207717100Y-78000457D01*
X207589265Y-77779042D01*
X207589261Y-77779035D01*
X207544452Y-77720638D01*
X207433611Y-77576188D01*
X207433605Y-77576181D01*
X207252818Y-77395394D01*
X207252811Y-77395388D01*
X207049973Y-77239745D01*
X207049971Y-77239743D01*
X207049965Y-77239739D01*
X207049960Y-77239736D01*
X207049957Y-77239734D01*
X206828542Y-77111899D01*
X206828531Y-77111894D01*
X206592322Y-77014053D01*
X206592315Y-77014051D01*
X206592313Y-77014050D01*
X206345340Y-76947874D01*
X206288745Y-76940423D01*
X206091850Y-76914500D01*
X206091843Y-76914500D01*
X204936157Y-76914500D01*
X204936149Y-76914500D01*
X204710826Y-76944165D01*
X204682660Y-76947874D01*
X204438680Y-77013248D01*
X204435687Y-77014050D01*
X204435677Y-77014053D01*
X204199468Y-77111894D01*
X204199457Y-77111899D01*
X203978042Y-77239734D01*
X203978026Y-77239745D01*
X203775188Y-77395388D01*
X203775181Y-77395394D01*
X203594394Y-77576181D01*
X203594388Y-77576188D01*
X203438745Y-77779026D01*
X203438739Y-77779035D01*
X203331887Y-77964107D01*
X203281320Y-78012322D01*
X203212712Y-78025544D01*
X203147848Y-77999576D01*
X203107320Y-77942662D01*
X203100500Y-77902106D01*
X203100500Y-74800097D01*
X203120185Y-74733058D01*
X203136819Y-74712416D01*
X208236417Y-69612819D01*
X208297740Y-69579334D01*
X208324098Y-69576500D01*
X231995080Y-69576500D01*
X232062119Y-69596185D01*
X232107874Y-69648989D01*
X232118018Y-69716683D01*
X232103500Y-69826965D01*
X232103500Y-70665037D01*
X232118825Y-70781453D01*
X232118826Y-70781456D01*
X232140403Y-70833549D01*
X232147870Y-70903019D01*
X232140403Y-70928451D01*
X232118827Y-70980541D01*
X232103500Y-71096964D01*
X232103500Y-71935037D01*
X232118018Y-72045317D01*
X232107252Y-72114352D01*
X232060871Y-72166607D01*
X231995079Y-72185500D01*
X219134941Y-72185500D01*
X219096181Y-72195885D01*
X219096182Y-72195886D01*
X218982214Y-72226423D01*
X218982209Y-72226426D01*
X218845290Y-72305475D01*
X218845282Y-72305481D01*
X216329481Y-74821282D01*
X216329479Y-74821285D01*
X216296056Y-74879177D01*
X216296055Y-74879179D01*
X216250423Y-74958214D01*
X216250423Y-74958215D01*
X216209499Y-75110943D01*
X216209499Y-75110945D01*
X216209499Y-75279046D01*
X216209500Y-75279059D01*
X216209500Y-75279522D01*
X216189815Y-75346561D01*
X216137011Y-75392316D01*
X216067853Y-75402260D01*
X216016620Y-75379700D01*
X216015354Y-75381595D01*
X215879185Y-75290609D01*
X215879172Y-75290602D01*
X215733501Y-75230264D01*
X215733489Y-75230261D01*
X215578845Y-75199500D01*
X215578842Y-75199500D01*
X215421158Y-75199500D01*
X215421155Y-75199500D01*
X215266510Y-75230261D01*
X215260676Y-75232031D01*
X215259873Y-75229385D01*
X215202056Y-75235396D01*
X215139687Y-75203902D01*
X215104245Y-75143689D01*
X215100500Y-75113444D01*
X215100500Y-74579765D01*
X215120185Y-74512726D01*
X215121398Y-74510874D01*
X215209390Y-74379185D01*
X215209390Y-74379184D01*
X215209394Y-74379179D01*
X215211978Y-74372942D01*
X215255356Y-74268215D01*
X215269737Y-74233497D01*
X215300500Y-74078842D01*
X215300500Y-73921158D01*
X215300500Y-73921155D01*
X215300499Y-73921153D01*
X215292658Y-73881734D01*
X215269737Y-73766503D01*
X215240477Y-73695863D01*
X215209397Y-73620827D01*
X215209390Y-73620814D01*
X215121789Y-73489711D01*
X215121786Y-73489707D01*
X215010292Y-73378213D01*
X215010288Y-73378210D01*
X214879185Y-73290609D01*
X214879172Y-73290602D01*
X214733501Y-73230264D01*
X214733489Y-73230261D01*
X214578845Y-73199500D01*
X214578842Y-73199500D01*
X214421158Y-73199500D01*
X214421155Y-73199500D01*
X214266510Y-73230261D01*
X214266498Y-73230264D01*
X214120827Y-73290602D01*
X214120814Y-73290609D01*
X213989711Y-73378210D01*
X213989707Y-73378213D01*
X213878213Y-73489707D01*
X213878210Y-73489711D01*
X213790609Y-73620814D01*
X213790602Y-73620827D01*
X213730264Y-73766498D01*
X213730261Y-73766510D01*
X213699500Y-73921153D01*
X213699500Y-74078846D01*
X213730261Y-74233489D01*
X213730264Y-74233501D01*
X213790602Y-74379172D01*
X213790609Y-74379185D01*
X213878602Y-74510874D01*
X213899480Y-74577551D01*
X213899500Y-74579765D01*
X213899500Y-77579902D01*
X213879815Y-77646941D01*
X213863181Y-77667583D01*
X213364522Y-78166241D01*
X213303199Y-78199726D01*
X213238523Y-78196491D01*
X213196245Y-78182754D01*
X213055738Y-78160500D01*
X212986287Y-78149500D01*
X212773713Y-78149500D01*
X212725042Y-78157208D01*
X212563760Y-78182753D01*
X212361585Y-78248444D01*
X212172179Y-78344951D01*
X212000213Y-78469890D01*
X211849890Y-78620213D01*
X211724951Y-78792179D01*
X211628444Y-78981585D01*
X211562753Y-79183760D01*
X211529500Y-79393713D01*
X211529500Y-79606286D01*
X211561641Y-79809221D01*
X211562754Y-79816243D01*
X211626949Y-80013815D01*
X211628444Y-80018414D01*
X211724951Y-80207820D01*
X211849890Y-80379786D01*
X212000213Y-80530109D01*
X212172179Y-80655048D01*
X212172181Y-80655049D01*
X212172184Y-80655051D01*
X212361588Y-80751557D01*
X212563757Y-80817246D01*
X212773713Y-80850500D01*
X212773714Y-80850500D01*
X212986286Y-80850500D01*
X212986287Y-80850500D01*
X213196243Y-80817246D01*
X213398412Y-80751557D01*
X213587816Y-80655051D01*
X213642083Y-80615624D01*
X213759786Y-80530109D01*
X213759788Y-80530106D01*
X213759792Y-80530104D01*
X213910104Y-80379792D01*
X213910106Y-80379788D01*
X213910109Y-80379786D01*
X214035048Y-80207820D01*
X214035047Y-80207820D01*
X214035051Y-80207816D01*
X214039514Y-80199054D01*
X214087488Y-80148259D01*
X214155308Y-80131463D01*
X214221444Y-80153999D01*
X214260486Y-80199056D01*
X214264951Y-80207820D01*
X214389890Y-80379786D01*
X214540213Y-80530109D01*
X214712179Y-80655048D01*
X214712181Y-80655049D01*
X214712184Y-80655051D01*
X214901588Y-80751557D01*
X215103757Y-80817246D01*
X215313713Y-80850500D01*
X215313714Y-80850500D01*
X215526286Y-80850500D01*
X215526287Y-80850500D01*
X215736243Y-80817246D01*
X215938412Y-80751557D01*
X216127816Y-80655051D01*
X216199477Y-80602986D01*
X216265281Y-80579507D01*
X216333335Y-80595332D01*
X216360042Y-80615624D01*
X216448349Y-80703931D01*
X216448355Y-80703936D01*
X217745522Y-82001103D01*
X217779007Y-82062426D01*
X217774023Y-82132118D01*
X217732151Y-82188051D01*
X217666687Y-82212468D01*
X217633650Y-82210401D01*
X217578846Y-82199500D01*
X217578842Y-82199500D01*
X217421158Y-82199500D01*
X217421155Y-82199500D01*
X217266510Y-82230261D01*
X217266498Y-82230264D01*
X217120827Y-82290602D01*
X217120814Y-82290609D01*
X216989125Y-82378602D01*
X216922447Y-82399480D01*
X216920234Y-82399500D01*
X216747683Y-82399500D01*
X216589569Y-82399500D01*
X216436841Y-82440423D01*
X216436840Y-82440423D01*
X216436838Y-82440424D01*
X216436835Y-82440425D01*
X216392675Y-82465922D01*
X216392673Y-82465923D01*
X216299916Y-82519475D01*
X216299908Y-82519481D01*
X211219652Y-87599738D01*
X211158329Y-87633223D01*
X211156163Y-87633674D01*
X211000821Y-87664574D01*
X211000811Y-87664577D01*
X210855140Y-87724915D01*
X210855127Y-87724922D01*
X210724024Y-87812523D01*
X210724020Y-87812526D01*
X210612526Y-87924020D01*
X210612523Y-87924024D01*
X210524922Y-88055127D01*
X210524915Y-88055140D01*
X210464577Y-88200811D01*
X210464574Y-88200823D01*
X210433813Y-88355466D01*
X210433813Y-88513159D01*
X210464574Y-88667802D01*
X210464577Y-88667814D01*
X210524915Y-88813485D01*
X210524922Y-88813498D01*
X210612523Y-88944601D01*
X210612526Y-88944605D01*
X210724020Y-89056099D01*
X210724024Y-89056102D01*
X210855127Y-89143703D01*
X210855140Y-89143710D01*
X210974184Y-89193019D01*
X211028588Y-89236859D01*
X211041293Y-89260127D01*
X211090604Y-89379176D01*
X211090609Y-89379185D01*
X211178210Y-89510288D01*
X211178213Y-89510292D01*
X211289707Y-89621786D01*
X211289711Y-89621789D01*
X211420814Y-89709390D01*
X211420827Y-89709397D01*
X211562814Y-89768209D01*
X211566503Y-89769737D01*
X211689974Y-89794297D01*
X211721153Y-89800499D01*
X211721156Y-89800500D01*
X211721158Y-89800500D01*
X211878844Y-89800500D01*
X211878845Y-89800499D01*
X212033497Y-89769737D01*
X212179179Y-89709394D01*
X212310289Y-89621789D01*
X212421789Y-89510289D01*
X212509394Y-89379179D01*
X212569737Y-89233497D01*
X212592417Y-89119479D01*
X212600638Y-89078150D01*
X212633023Y-89016239D01*
X212634519Y-89014715D01*
X214535203Y-87114031D01*
X214596525Y-87080547D01*
X214666217Y-87085531D01*
X214722150Y-87127403D01*
X214746567Y-87192867D01*
X214737445Y-87249164D01*
X214730263Y-87266503D01*
X214730261Y-87266510D01*
X214699500Y-87421153D01*
X214699500Y-87578846D01*
X214730261Y-87733489D01*
X214730264Y-87733501D01*
X214790602Y-87879172D01*
X214790609Y-87879185D01*
X214878210Y-88010288D01*
X214878213Y-88010292D01*
X214989707Y-88121786D01*
X214989710Y-88121788D01*
X214989711Y-88121789D01*
X214993737Y-88124479D01*
X215027289Y-88146898D01*
X215072093Y-88200511D01*
X215080800Y-88269836D01*
X215050645Y-88332863D01*
X215027289Y-88353102D01*
X214989707Y-88378213D01*
X214878213Y-88489707D01*
X214878210Y-88489711D01*
X214790609Y-88620814D01*
X214790602Y-88620827D01*
X214730264Y-88766498D01*
X214730261Y-88766510D01*
X214699500Y-88921153D01*
X214699500Y-89078846D01*
X214730261Y-89233489D01*
X214730264Y-89233501D01*
X214790602Y-89379172D01*
X214790609Y-89379185D01*
X214878210Y-89510288D01*
X214878213Y-89510292D01*
X214989707Y-89621786D01*
X214989711Y-89621789D01*
X215120814Y-89709390D01*
X215120826Y-89709397D01*
X215245263Y-89760939D01*
X215299667Y-89804779D01*
X215321732Y-89871073D01*
X215304453Y-89938773D01*
X215253316Y-89986384D01*
X215197811Y-89999500D01*
X214352129Y-89999500D01*
X214352123Y-89999501D01*
X214292516Y-90005908D01*
X214157671Y-90056202D01*
X214157664Y-90056206D01*
X214042455Y-90142452D01*
X214042452Y-90142455D01*
X213956206Y-90257664D01*
X213956202Y-90257671D01*
X213905908Y-90392517D01*
X213899501Y-90452116D01*
X213899500Y-90452135D01*
X213899500Y-92547870D01*
X213899501Y-92547876D01*
X213905908Y-92607483D01*
X213956202Y-92742328D01*
X213956206Y-92742335D01*
X214042452Y-92857544D01*
X214042455Y-92857547D01*
X214157664Y-92943793D01*
X214157671Y-92943797D01*
X214202618Y-92960561D01*
X214292517Y-92994091D01*
X214352127Y-93000500D01*
X214750768Y-93000499D01*
X214817807Y-93020183D01*
X214858155Y-93062499D01*
X214919477Y-93168712D01*
X214919481Y-93168717D01*
X215038349Y-93287585D01*
X215038355Y-93287590D01*
X221963181Y-100212416D01*
X221996666Y-100273739D01*
X221999500Y-100300097D01*
X221999500Y-104713330D01*
X221999499Y-104713348D01*
X221999499Y-104879054D01*
X221999498Y-104879054D01*
X222040423Y-105031785D01*
X222069358Y-105081900D01*
X222069359Y-105081904D01*
X222069360Y-105081904D01*
X222119479Y-105168714D01*
X222119481Y-105168717D01*
X222238349Y-105287585D01*
X222238355Y-105287590D01*
X222815139Y-105864374D01*
X222815149Y-105864385D01*
X222819479Y-105868715D01*
X222819480Y-105868716D01*
X222931284Y-105980520D01*
X222931286Y-105980521D01*
X222931290Y-105980524D01*
X223068209Y-106059573D01*
X223068216Y-106059577D01*
X223111190Y-106071091D01*
X223170850Y-106107456D01*
X223201379Y-106170303D01*
X223200714Y-106215053D01*
X223199500Y-106221156D01*
X223199500Y-106378849D01*
X223230261Y-106533492D01*
X223230264Y-106533504D01*
X223290602Y-106679175D01*
X223290609Y-106679188D01*
X223378602Y-106810877D01*
X223399480Y-106877554D01*
X223399500Y-106879768D01*
X223399500Y-108299903D01*
X223379815Y-108366942D01*
X223363181Y-108387584D01*
X222387584Y-109363181D01*
X222326261Y-109396666D01*
X222299903Y-109399500D01*
X216134594Y-109399500D01*
X216093673Y-109410464D01*
X216093673Y-109410465D01*
X216056405Y-109420451D01*
X215981868Y-109440423D01*
X215981863Y-109440426D01*
X215844944Y-109519475D01*
X215844936Y-109519481D01*
X213914838Y-111449580D01*
X213853515Y-111483065D01*
X213783823Y-111478081D01*
X213739476Y-111449580D01*
X213719786Y-111429890D01*
X213547820Y-111304951D01*
X213358414Y-111208444D01*
X213358413Y-111208443D01*
X213358412Y-111208443D01*
X213156243Y-111142754D01*
X213156241Y-111142753D01*
X213156240Y-111142753D01*
X212994957Y-111117208D01*
X212946287Y-111109500D01*
X212733713Y-111109500D01*
X212685042Y-111117208D01*
X212523760Y-111142753D01*
X212321585Y-111208444D01*
X212132179Y-111304951D01*
X211960215Y-111429889D01*
X211846673Y-111543431D01*
X211785350Y-111576915D01*
X211715658Y-111571931D01*
X211659725Y-111530059D01*
X211642810Y-111499082D01*
X211593797Y-111367671D01*
X211593793Y-111367664D01*
X211507547Y-111252455D01*
X211507544Y-111252452D01*
X211392335Y-111166206D01*
X211392328Y-111166202D01*
X211257482Y-111115908D01*
X211257483Y-111115908D01*
X211197883Y-111109501D01*
X211197881Y-111109500D01*
X211197873Y-111109500D01*
X211197864Y-111109500D01*
X209402129Y-111109500D01*
X209402123Y-111109501D01*
X209342516Y-111115908D01*
X209207671Y-111166202D01*
X209207664Y-111166206D01*
X209092455Y-111252452D01*
X209092452Y-111252455D01*
X209006206Y-111367664D01*
X209006202Y-111367671D01*
X208955908Y-111502517D01*
X208949501Y-111562116D01*
X208949500Y-111562135D01*
X208949500Y-113357870D01*
X208949501Y-113357876D01*
X208955908Y-113417483D01*
X209006202Y-113552328D01*
X209006206Y-113552335D01*
X209092452Y-113667544D01*
X209092455Y-113667547D01*
X209207664Y-113753793D01*
X209207671Y-113753797D01*
X209339082Y-113802810D01*
X209395016Y-113844681D01*
X209419433Y-113910145D01*
X209404582Y-113978418D01*
X209383431Y-114006673D01*
X209269889Y-114120215D01*
X209144951Y-114292179D01*
X209048444Y-114481585D01*
X208982753Y-114683760D01*
X208949500Y-114893713D01*
X208949500Y-115106286D01*
X208982735Y-115316127D01*
X208982754Y-115316243D01*
X209048443Y-115518412D01*
X209144949Y-115707816D01*
X209144955Y-115707825D01*
X209146723Y-115710710D01*
X209147061Y-115711962D01*
X209147161Y-115712157D01*
X209147120Y-115712177D01*
X209164967Y-115778156D01*
X209143850Y-115844759D01*
X209090079Y-115889372D01*
X209040995Y-115899500D01*
X208300097Y-115899500D01*
X208233058Y-115879815D01*
X208212416Y-115863181D01*
X192636819Y-100287584D01*
X192603334Y-100226261D01*
X192600500Y-100199903D01*
X192600500Y-92913389D01*
X195239500Y-92913389D01*
X195239500Y-93086610D01*
X195265566Y-93251190D01*
X195266598Y-93257701D01*
X195320127Y-93422445D01*
X195398768Y-93576788D01*
X195500586Y-93716928D01*
X195623072Y-93839414D01*
X195763212Y-93941232D01*
X195917555Y-94019873D01*
X196082299Y-94073402D01*
X196253389Y-94100500D01*
X196253390Y-94100500D01*
X196426610Y-94100500D01*
X196426611Y-94100500D01*
X196597701Y-94073402D01*
X196762445Y-94019873D01*
X196916788Y-93941232D01*
X197056928Y-93839414D01*
X197179414Y-93716928D01*
X197281232Y-93576788D01*
X197359873Y-93422445D01*
X197413402Y-93257701D01*
X197440500Y-93086611D01*
X197440500Y-92913389D01*
X197430854Y-92852486D01*
X199169500Y-92852486D01*
X199169500Y-93147513D01*
X199198148Y-93365106D01*
X199208007Y-93439993D01*
X199282735Y-93718882D01*
X199284361Y-93724951D01*
X199284364Y-93724961D01*
X199397254Y-93997500D01*
X199397258Y-93997510D01*
X199544761Y-94252993D01*
X199724352Y-94487040D01*
X199724358Y-94487047D01*
X199932952Y-94695641D01*
X199932959Y-94695647D01*
X200167006Y-94875238D01*
X200422489Y-95022741D01*
X200422490Y-95022741D01*
X200422493Y-95022743D01*
X200695048Y-95135639D01*
X200980007Y-95211993D01*
X201272494Y-95250500D01*
X201272501Y-95250500D01*
X201567499Y-95250500D01*
X201567506Y-95250500D01*
X201859993Y-95211993D01*
X202144952Y-95135639D01*
X202417507Y-95022743D01*
X202672994Y-94875238D01*
X202907042Y-94695646D01*
X203115646Y-94487042D01*
X203295238Y-94252994D01*
X203442743Y-93997507D01*
X203555639Y-93724952D01*
X203631993Y-93439993D01*
X203670500Y-93147506D01*
X203670500Y-92913389D01*
X205399500Y-92913389D01*
X205399500Y-93086610D01*
X205425566Y-93251190D01*
X205426598Y-93257701D01*
X205480127Y-93422445D01*
X205558768Y-93576788D01*
X205660586Y-93716928D01*
X205783072Y-93839414D01*
X205923212Y-93941232D01*
X206077555Y-94019873D01*
X206242299Y-94073402D01*
X206413389Y-94100500D01*
X206413390Y-94100500D01*
X206586610Y-94100500D01*
X206586611Y-94100500D01*
X206757701Y-94073402D01*
X206922445Y-94019873D01*
X207076788Y-93941232D01*
X207216928Y-93839414D01*
X207339414Y-93716928D01*
X207441232Y-93576788D01*
X207519873Y-93422445D01*
X207573402Y-93257701D01*
X207600500Y-93086611D01*
X207600500Y-92913389D01*
X207573402Y-92742299D01*
X207519873Y-92577555D01*
X207441232Y-92423212D01*
X207339414Y-92283072D01*
X207216928Y-92160586D01*
X207076788Y-92058768D01*
X206922445Y-91980127D01*
X206757701Y-91926598D01*
X206757699Y-91926597D01*
X206757698Y-91926597D01*
X206626271Y-91905781D01*
X206586611Y-91899500D01*
X206413389Y-91899500D01*
X206373728Y-91905781D01*
X206242302Y-91926597D01*
X206077552Y-91980128D01*
X205923211Y-92058768D01*
X205876821Y-92092473D01*
X205783072Y-92160586D01*
X205783070Y-92160588D01*
X205783069Y-92160588D01*
X205660588Y-92283069D01*
X205660588Y-92283070D01*
X205660586Y-92283072D01*
X205655691Y-92289810D01*
X205558768Y-92423211D01*
X205480128Y-92577552D01*
X205426597Y-92742302D01*
X205399500Y-92913389D01*
X203670500Y-92913389D01*
X203670500Y-92852494D01*
X203631993Y-92560007D01*
X203555639Y-92275048D01*
X203537718Y-92231784D01*
X203474456Y-92079055D01*
X203442743Y-92002493D01*
X203392604Y-91915650D01*
X203295238Y-91747006D01*
X203115647Y-91512959D01*
X203115641Y-91512952D01*
X202907047Y-91304358D01*
X202907040Y-91304352D01*
X202672993Y-91124761D01*
X202417510Y-90977258D01*
X202417500Y-90977254D01*
X202144961Y-90864364D01*
X202144954Y-90864362D01*
X202144952Y-90864361D01*
X201859993Y-90788007D01*
X201805213Y-90780795D01*
X201567513Y-90749500D01*
X201567506Y-90749500D01*
X201272494Y-90749500D01*
X201272486Y-90749500D01*
X200994085Y-90786153D01*
X200980007Y-90788007D01*
X200805861Y-90834669D01*
X200695048Y-90864361D01*
X200695038Y-90864364D01*
X200422499Y-90977254D01*
X200422489Y-90977258D01*
X200167006Y-91124761D01*
X199932959Y-91304352D01*
X199932952Y-91304358D01*
X199724358Y-91512952D01*
X199724352Y-91512959D01*
X199544761Y-91747006D01*
X199397258Y-92002489D01*
X199397254Y-92002499D01*
X199284364Y-92275038D01*
X199284361Y-92275048D01*
X199211258Y-92547876D01*
X199208008Y-92560004D01*
X199208006Y-92560015D01*
X199169500Y-92852486D01*
X197430854Y-92852486D01*
X197413402Y-92742299D01*
X197359873Y-92577555D01*
X197281232Y-92423212D01*
X197179414Y-92283072D01*
X197126882Y-92230540D01*
X197093397Y-92169217D01*
X197098381Y-92099525D01*
X197140253Y-92043592D01*
X197205717Y-92019175D01*
X197233961Y-92020386D01*
X197484072Y-92060000D01*
X197735928Y-92060000D01*
X197984669Y-92020602D01*
X198224184Y-91942780D01*
X198448575Y-91828446D01*
X198448581Y-91828442D01*
X198550697Y-91754250D01*
X198550698Y-91754250D01*
X197934025Y-91137578D01*
X197965258Y-91124641D01*
X198088097Y-91042563D01*
X198192563Y-90938097D01*
X198274641Y-90815258D01*
X198287578Y-90784025D01*
X198904250Y-91400698D01*
X198904250Y-91400697D01*
X198978442Y-91298581D01*
X198978446Y-91298575D01*
X199092780Y-91074184D01*
X199170602Y-90834669D01*
X199210000Y-90585928D01*
X199210000Y-90334071D01*
X199170602Y-90085330D01*
X199092780Y-89845815D01*
X198978442Y-89621416D01*
X198904250Y-89519301D01*
X198904250Y-89519300D01*
X198287577Y-90135973D01*
X198274641Y-90104742D01*
X198192563Y-89981903D01*
X198088097Y-89877437D01*
X197965258Y-89795359D01*
X197934024Y-89782421D01*
X198550698Y-89165748D01*
X198448583Y-89091557D01*
X198224184Y-88977219D01*
X197984669Y-88899397D01*
X197735928Y-88860000D01*
X197484072Y-88860000D01*
X197235330Y-88899397D01*
X196995815Y-88977219D01*
X196771413Y-89091559D01*
X196669301Y-89165747D01*
X196669300Y-89165748D01*
X197285974Y-89782421D01*
X197254742Y-89795359D01*
X197131903Y-89877437D01*
X197027437Y-89981903D01*
X196945359Y-90104742D01*
X196932421Y-90135974D01*
X196315748Y-89519300D01*
X196315747Y-89519301D01*
X196241559Y-89621413D01*
X196127219Y-89845815D01*
X196049397Y-90085330D01*
X196010000Y-90334071D01*
X196010000Y-90585928D01*
X196049397Y-90834669D01*
X196127219Y-91074184D01*
X196241557Y-91298583D01*
X196315748Y-91400697D01*
X196315748Y-91400698D01*
X196932421Y-90784024D01*
X196945359Y-90815258D01*
X197027437Y-90938097D01*
X197131903Y-91042563D01*
X197254742Y-91124641D01*
X197285974Y-91137577D01*
X196669300Y-91754250D01*
X196671598Y-91783449D01*
X196657233Y-91851827D01*
X196608181Y-91901583D01*
X196540016Y-91916921D01*
X196528583Y-91915650D01*
X196426611Y-91899500D01*
X196253389Y-91899500D01*
X196213728Y-91905781D01*
X196082302Y-91926597D01*
X195917552Y-91980128D01*
X195763211Y-92058768D01*
X195716821Y-92092473D01*
X195623072Y-92160586D01*
X195623070Y-92160588D01*
X195623069Y-92160588D01*
X195500588Y-92283069D01*
X195500588Y-92283070D01*
X195500586Y-92283072D01*
X195495691Y-92289810D01*
X195398768Y-92423211D01*
X195320128Y-92577552D01*
X195266597Y-92742302D01*
X195239500Y-92913389D01*
X192600500Y-92913389D01*
X192600500Y-74300096D01*
X192620185Y-74233057D01*
X192636814Y-74212420D01*
X194358506Y-72490727D01*
X194358511Y-72490724D01*
X194368714Y-72480520D01*
X194368716Y-72480520D01*
X194480520Y-72368716D01*
X194513539Y-72311525D01*
X194556673Y-72236815D01*
X194556676Y-72236809D01*
X194559577Y-72231785D01*
X194600500Y-72079057D01*
X194600500Y-71920943D01*
X194600500Y-71079765D01*
X194620185Y-71012726D01*
X194621398Y-71010874D01*
X194709390Y-70879185D01*
X194709390Y-70879184D01*
X194709394Y-70879179D01*
X194769737Y-70733497D01*
X194769738Y-70733489D01*
X194770051Y-70732735D01*
X194813892Y-70678331D01*
X194880186Y-70656265D01*
X194947885Y-70673543D01*
X194995496Y-70724680D01*
X195004643Y-70753156D01*
X195005460Y-70752961D01*
X195006597Y-70757697D01*
X195006598Y-70757701D01*
X195060127Y-70922445D01*
X195138768Y-71076788D01*
X195240586Y-71216928D01*
X195363072Y-71339414D01*
X195503212Y-71441232D01*
X195657555Y-71519873D01*
X195822299Y-71573402D01*
X195993389Y-71600500D01*
X195993390Y-71600500D01*
X196166610Y-71600500D01*
X196166611Y-71600500D01*
X196337701Y-71573402D01*
X196502445Y-71519873D01*
X196656788Y-71441232D01*
X196796928Y-71339414D01*
X196919414Y-71216928D01*
X197021232Y-71076788D01*
X197099873Y-70922445D01*
X197153402Y-70757701D01*
X197180500Y-70586611D01*
X197180500Y-70413389D01*
X197153402Y-70242299D01*
X197099873Y-70077555D01*
X197021232Y-69923212D01*
X196919414Y-69783072D01*
X196796928Y-69660586D01*
X196656788Y-69558768D01*
X196502445Y-69480127D01*
X196337701Y-69426598D01*
X196337699Y-69426597D01*
X196337698Y-69426597D01*
X196206271Y-69405781D01*
X196166611Y-69399500D01*
X195993389Y-69399500D01*
X195953728Y-69405781D01*
X195822302Y-69426597D01*
X195657552Y-69480128D01*
X195503211Y-69558768D01*
X195474905Y-69579334D01*
X195363072Y-69660586D01*
X195363070Y-69660588D01*
X195363069Y-69660588D01*
X195240588Y-69783069D01*
X195240588Y-69783070D01*
X195240586Y-69783072D01*
X195233966Y-69792184D01*
X195138768Y-69923211D01*
X195060128Y-70077552D01*
X195006597Y-70242302D01*
X195005460Y-70247039D01*
X195003602Y-70246593D01*
X194977113Y-70302395D01*
X194917781Y-70339295D01*
X194847919Y-70338260D01*
X194789707Y-70299619D01*
X194770051Y-70267265D01*
X194769738Y-70266510D01*
X194769737Y-70266503D01*
X194709394Y-70120821D01*
X194709392Y-70120818D01*
X194709390Y-70120814D01*
X194621789Y-69989711D01*
X194621786Y-69989707D01*
X194510292Y-69878213D01*
X194510288Y-69878210D01*
X194379185Y-69790609D01*
X194379172Y-69790602D01*
X194233501Y-69730264D01*
X194233489Y-69730261D01*
X194078845Y-69699500D01*
X194078842Y-69699500D01*
X193921158Y-69699500D01*
X193921155Y-69699500D01*
X193766510Y-69730261D01*
X193766498Y-69730264D01*
X193620827Y-69790602D01*
X193620814Y-69790609D01*
X193489711Y-69878210D01*
X193384131Y-69983790D01*
X193322808Y-70017274D01*
X193253116Y-70012290D01*
X193197183Y-69970418D01*
X193176677Y-69928205D01*
X193135639Y-69775048D01*
X193022743Y-69502493D01*
X193021592Y-69500500D01*
X192875238Y-69247006D01*
X192695647Y-69012959D01*
X192695641Y-69012952D01*
X192487047Y-68804358D01*
X192487040Y-68804352D01*
X192252993Y-68624761D01*
X191997510Y-68477258D01*
X191997500Y-68477254D01*
X191724961Y-68364364D01*
X191724954Y-68364362D01*
X191724952Y-68364361D01*
X191439993Y-68288007D01*
X191391113Y-68281571D01*
X191147513Y-68249500D01*
X191147506Y-68249500D01*
X190852494Y-68249500D01*
X190852486Y-68249500D01*
X190574085Y-68286153D01*
X190560007Y-68288007D01*
X190385861Y-68334669D01*
X190275048Y-68364361D01*
X190275038Y-68364364D01*
X190002499Y-68477254D01*
X190002489Y-68477258D01*
X189747006Y-68624761D01*
X189512959Y-68804352D01*
X189512952Y-68804358D01*
X189304358Y-69012952D01*
X189304352Y-69012959D01*
X189124761Y-69247006D01*
X188977258Y-69502489D01*
X188977254Y-69502499D01*
X188864364Y-69775038D01*
X188864361Y-69775048D01*
X188788007Y-70060007D01*
X188786153Y-70074085D01*
X188749500Y-70352486D01*
X188749500Y-70647513D01*
X188774274Y-70835680D01*
X188788007Y-70939993D01*
X188862212Y-71216930D01*
X188864361Y-71224951D01*
X188864364Y-71224961D01*
X188977254Y-71497500D01*
X188977258Y-71497510D01*
X189124761Y-71752993D01*
X189304352Y-71987040D01*
X189304358Y-71987047D01*
X189512952Y-72195641D01*
X189512959Y-72195647D01*
X189747006Y-72375238D01*
X190002489Y-72522741D01*
X190002490Y-72522741D01*
X190002493Y-72522743D01*
X190275048Y-72635639D01*
X190560007Y-72711993D01*
X190852494Y-72750500D01*
X190852501Y-72750500D01*
X191147499Y-72750500D01*
X191147506Y-72750500D01*
X191439993Y-72711993D01*
X191724952Y-72635639D01*
X191997507Y-72522743D01*
X192252994Y-72375238D01*
X192487042Y-72195646D01*
X192695646Y-71987042D01*
X192875238Y-71752994D01*
X193022743Y-71497507D01*
X193135639Y-71224952D01*
X193155726Y-71149985D01*
X193192090Y-71090326D01*
X193254936Y-71059797D01*
X193324312Y-71068091D01*
X193378190Y-71112577D01*
X193399465Y-71179128D01*
X193399500Y-71182080D01*
X193399500Y-71699902D01*
X193379815Y-71766941D01*
X193363181Y-71787583D01*
X191519481Y-73631282D01*
X191519475Y-73631290D01*
X191482196Y-73695861D01*
X191482196Y-73695863D01*
X191440423Y-73768214D01*
X191428757Y-73811751D01*
X191399499Y-73920943D01*
X191399499Y-73920945D01*
X191399499Y-74089046D01*
X191399500Y-74089059D01*
X191399500Y-83376000D01*
X191379815Y-83443039D01*
X191327011Y-83488794D01*
X191275500Y-83500000D01*
X191077816Y-83500000D01*
X191070187Y-83499500D01*
X191065892Y-83499500D01*
X184124500Y-83499500D01*
X184057461Y-83479815D01*
X184011706Y-83427011D01*
X184000500Y-83375500D01*
X184000500Y-76429815D01*
X184000000Y-76422185D01*
X184000000Y-76000000D01*
X183577816Y-76000000D01*
X183570187Y-75999500D01*
X183565892Y-75999500D01*
X173624500Y-75999500D01*
X173557461Y-75979815D01*
X173511706Y-75927011D01*
X173500500Y-75875500D01*
X173500500Y-70413389D01*
X184819500Y-70413389D01*
X184819500Y-70586610D01*
X184842643Y-70732735D01*
X184846598Y-70757701D01*
X184900127Y-70922445D01*
X184978768Y-71076788D01*
X185080586Y-71216928D01*
X185203072Y-71339414D01*
X185343212Y-71441232D01*
X185497555Y-71519873D01*
X185662299Y-71573402D01*
X185833389Y-71600500D01*
X185833390Y-71600500D01*
X186006610Y-71600500D01*
X186006611Y-71600500D01*
X186177701Y-71573402D01*
X186342445Y-71519873D01*
X186496788Y-71441232D01*
X186636928Y-71339414D01*
X186759414Y-71216928D01*
X186861232Y-71076788D01*
X186939873Y-70922445D01*
X186993402Y-70757701D01*
X187020500Y-70586611D01*
X187020500Y-70413389D01*
X186993402Y-70242299D01*
X186939873Y-70077555D01*
X186861232Y-69923212D01*
X186759414Y-69783072D01*
X186706882Y-69730540D01*
X186673397Y-69669217D01*
X186678381Y-69599525D01*
X186720253Y-69543592D01*
X186785717Y-69519175D01*
X186813961Y-69520386D01*
X187064072Y-69560000D01*
X187315928Y-69560000D01*
X187564669Y-69520602D01*
X187804184Y-69442780D01*
X188028575Y-69328446D01*
X188028581Y-69328442D01*
X188130697Y-69254250D01*
X188130698Y-69254250D01*
X187514025Y-68637578D01*
X187545258Y-68624641D01*
X187668097Y-68542563D01*
X187772563Y-68438097D01*
X187854641Y-68315258D01*
X187867577Y-68284025D01*
X188484250Y-68900698D01*
X188484250Y-68900697D01*
X188558442Y-68798581D01*
X188558446Y-68798575D01*
X188672780Y-68574184D01*
X188750602Y-68334669D01*
X188790000Y-68085928D01*
X188790000Y-67834071D01*
X188750602Y-67585330D01*
X188672780Y-67345815D01*
X188558442Y-67121416D01*
X188484250Y-67019301D01*
X188484250Y-67019300D01*
X187867577Y-67635973D01*
X187854641Y-67604742D01*
X187772563Y-67481903D01*
X187668097Y-67377437D01*
X187545258Y-67295359D01*
X187514024Y-67282421D01*
X188130698Y-66665748D01*
X188028583Y-66591557D01*
X187804184Y-66477219D01*
X187564669Y-66399397D01*
X187315928Y-66360000D01*
X187064072Y-66360000D01*
X186815330Y-66399397D01*
X186575815Y-66477219D01*
X186351413Y-66591559D01*
X186249301Y-66665747D01*
X186249300Y-66665748D01*
X186865974Y-67282421D01*
X186834742Y-67295359D01*
X186711903Y-67377437D01*
X186607437Y-67481903D01*
X186525359Y-67604742D01*
X186512421Y-67635974D01*
X185895748Y-67019300D01*
X185895747Y-67019301D01*
X185821559Y-67121413D01*
X185707219Y-67345815D01*
X185629397Y-67585330D01*
X185590000Y-67834071D01*
X185590000Y-68085928D01*
X185629397Y-68334669D01*
X185707219Y-68574184D01*
X185821557Y-68798583D01*
X185895748Y-68900697D01*
X185895748Y-68900698D01*
X186512421Y-68284024D01*
X186525359Y-68315258D01*
X186607437Y-68438097D01*
X186711903Y-68542563D01*
X186834742Y-68624641D01*
X186865974Y-68637577D01*
X186249300Y-69254250D01*
X186251598Y-69283449D01*
X186237233Y-69351827D01*
X186188181Y-69401583D01*
X186120016Y-69416921D01*
X186108583Y-69415650D01*
X186006611Y-69399500D01*
X185833389Y-69399500D01*
X185793728Y-69405781D01*
X185662302Y-69426597D01*
X185497552Y-69480128D01*
X185343211Y-69558768D01*
X185314905Y-69579334D01*
X185203072Y-69660586D01*
X185203070Y-69660588D01*
X185203069Y-69660588D01*
X185080588Y-69783069D01*
X185080588Y-69783070D01*
X185080586Y-69783072D01*
X185073966Y-69792184D01*
X184978768Y-69923211D01*
X184900128Y-70077552D01*
X184846597Y-70242302D01*
X184819500Y-70413389D01*
X173500500Y-70413389D01*
X173500500Y-68929815D01*
X173500000Y-68922185D01*
X173500000Y-68500000D01*
X173077816Y-68500000D01*
X173070187Y-68499500D01*
X173065892Y-68499500D01*
X163624500Y-68499500D01*
X163557461Y-68479815D01*
X163511706Y-68427011D01*
X163500500Y-68375500D01*
X163500500Y-61624500D01*
X163520185Y-61557461D01*
X163572989Y-61511706D01*
X163624500Y-61500500D01*
X201570187Y-61500500D01*
X201577816Y-61500000D01*
X202000000Y-61500000D01*
X202000000Y-61077816D01*
X202000500Y-61070186D01*
X202000500Y-55623149D01*
X203113500Y-55623149D01*
X203113500Y-55878850D01*
X203121504Y-55939641D01*
X203146874Y-56132340D01*
X203153206Y-56155970D01*
X203213050Y-56379312D01*
X203213053Y-56379322D01*
X203310894Y-56615531D01*
X203310899Y-56615542D01*
X203438734Y-56836957D01*
X203438745Y-56836973D01*
X203594388Y-57039811D01*
X203594394Y-57039818D01*
X203775181Y-57220605D01*
X203775187Y-57220610D01*
X203978035Y-57376261D01*
X203978042Y-57376265D01*
X204199457Y-57504100D01*
X204199462Y-57504102D01*
X204199465Y-57504104D01*
X204435687Y-57601950D01*
X204682660Y-57668126D01*
X204936157Y-57701500D01*
X204936164Y-57701500D01*
X206091836Y-57701500D01*
X206091843Y-57701500D01*
X206345340Y-57668126D01*
X206592313Y-57601950D01*
X206828535Y-57504104D01*
X207049965Y-57376261D01*
X207252813Y-57220610D01*
X207433610Y-57039813D01*
X207589261Y-56836965D01*
X207717104Y-56615535D01*
X207814950Y-56379313D01*
X207881126Y-56132340D01*
X207914500Y-55878843D01*
X207914500Y-55623157D01*
X207881126Y-55369660D01*
X207814950Y-55122687D01*
X207717104Y-54886465D01*
X207717102Y-54886462D01*
X207717100Y-54886457D01*
X207589265Y-54665042D01*
X207589261Y-54665035D01*
X207433610Y-54462187D01*
X207433605Y-54462181D01*
X207252818Y-54281394D01*
X207252811Y-54281388D01*
X207049973Y-54125745D01*
X207049971Y-54125743D01*
X207049965Y-54125739D01*
X207049960Y-54125736D01*
X207049957Y-54125734D01*
X206828542Y-53997899D01*
X206828531Y-53997894D01*
X206592322Y-53900053D01*
X206592315Y-53900051D01*
X206592313Y-53900050D01*
X206345340Y-53833874D01*
X206289007Y-53826457D01*
X206091850Y-53800500D01*
X206091843Y-53800500D01*
X204936157Y-53800500D01*
X204936149Y-53800500D01*
X204710826Y-53830165D01*
X204682660Y-53833874D01*
X204435687Y-53900050D01*
X204435677Y-53900053D01*
X204199468Y-53997894D01*
X204199457Y-53997899D01*
X203978042Y-54125734D01*
X203978026Y-54125745D01*
X203775188Y-54281388D01*
X203775181Y-54281394D01*
X203594394Y-54462181D01*
X203594388Y-54462188D01*
X203438745Y-54665026D01*
X203438734Y-54665042D01*
X203310899Y-54886457D01*
X203310894Y-54886468D01*
X203213053Y-55122677D01*
X203213050Y-55122687D01*
X203146874Y-55369661D01*
X203113500Y-55623149D01*
X202000500Y-55623149D01*
X202000500Y-51624500D01*
X202020185Y-51557461D01*
X202072989Y-51511706D01*
X202124500Y-51500500D01*
X209070187Y-51500500D01*
X209077816Y-51500000D01*
X209500000Y-51500000D01*
X209500000Y-51077816D01*
X209500500Y-51070186D01*
X209500500Y-41624500D01*
X209520185Y-41557461D01*
X209572989Y-41511706D01*
X209624500Y-41500500D01*
X214070187Y-41500500D01*
X214077816Y-41500000D01*
X214500000Y-41500000D01*
X214500000Y-41077816D01*
X214500500Y-41070186D01*
X214500500Y-31124500D01*
X214520185Y-31057461D01*
X214572989Y-31011706D01*
X214624500Y-31000500D01*
X223375500Y-31000500D01*
X223442539Y-31020185D01*
G37*
%TD.AperFunction*%
%TA.AperFunction,Conductor*%
G36*
X226881444Y-113113999D02*
G01*
X226920486Y-113159056D01*
X226924951Y-113167820D01*
X227049890Y-113339786D01*
X227200213Y-113490109D01*
X227372179Y-113615048D01*
X227372181Y-113615049D01*
X227372184Y-113615051D01*
X227381493Y-113619794D01*
X227432290Y-113667766D01*
X227449087Y-113735587D01*
X227426552Y-113801722D01*
X227381505Y-113840760D01*
X227372446Y-113845376D01*
X227372440Y-113845380D01*
X227318282Y-113884727D01*
X227318282Y-113884728D01*
X227950591Y-114517037D01*
X227887007Y-114534075D01*
X227772993Y-114599901D01*
X227679901Y-114692993D01*
X227614075Y-114807007D01*
X227597037Y-114870591D01*
X226964728Y-114238282D01*
X226964727Y-114238282D01*
X226925380Y-114292440D01*
X226925376Y-114292446D01*
X226920760Y-114301505D01*
X226872781Y-114352297D01*
X226804959Y-114369087D01*
X226738826Y-114346543D01*
X226699794Y-114301493D01*
X226695051Y-114292184D01*
X226695049Y-114292181D01*
X226695048Y-114292179D01*
X226570109Y-114120213D01*
X226419786Y-113969890D01*
X226247820Y-113844951D01*
X226239600Y-113840763D01*
X226239054Y-113840485D01*
X226188259Y-113792512D01*
X226171463Y-113724692D01*
X226193999Y-113658556D01*
X226239054Y-113619515D01*
X226247816Y-113615051D01*
X226334138Y-113552335D01*
X226419786Y-113490109D01*
X226419788Y-113490106D01*
X226419792Y-113490104D01*
X226570104Y-113339792D01*
X226570106Y-113339788D01*
X226570109Y-113339786D01*
X226695048Y-113167820D01*
X226695047Y-113167820D01*
X226695051Y-113167816D01*
X226699514Y-113159054D01*
X226747488Y-113108259D01*
X226815308Y-113091463D01*
X226881444Y-113113999D01*
G37*
%TD.AperFunction*%
%TA.AperFunction,Conductor*%
G36*
X233081256Y-86500185D02*
G01*
X233101898Y-86516819D01*
X235349453Y-88764374D01*
X235349463Y-88764385D01*
X235353793Y-88768715D01*
X235353794Y-88768716D01*
X235465598Y-88880520D01*
X235465600Y-88880521D01*
X235465604Y-88880524D01*
X235535981Y-88921156D01*
X235535985Y-88921157D01*
X235535986Y-88921158D01*
X235569257Y-88940367D01*
X235602526Y-88959576D01*
X235602528Y-88959576D01*
X235602529Y-88959577D01*
X235755257Y-89000500D01*
X235913371Y-89000500D01*
X240499903Y-89000500D01*
X240566942Y-89020185D01*
X240587584Y-89036819D01*
X241563181Y-90012416D01*
X241596666Y-90073739D01*
X241599500Y-90100097D01*
X241599500Y-95075638D01*
X241579815Y-95142677D01*
X241563181Y-95163319D01*
X231919481Y-104807018D01*
X231919475Y-104807026D01*
X231878378Y-104878210D01*
X231878378Y-104878211D01*
X231840423Y-104943951D01*
X231799499Y-105096679D01*
X231799499Y-105096681D01*
X231799499Y-105264782D01*
X231799500Y-105264795D01*
X231799500Y-107839902D01*
X231779815Y-107906941D01*
X231763181Y-107927583D01*
X228564522Y-111126241D01*
X228503199Y-111159726D01*
X228438523Y-111156491D01*
X228396245Y-111142754D01*
X228256272Y-111120584D01*
X228186287Y-111109500D01*
X227973713Y-111109500D01*
X227925042Y-111117208D01*
X227763760Y-111142753D01*
X227561585Y-111208444D01*
X227372179Y-111304951D01*
X227200213Y-111429890D01*
X227049890Y-111580213D01*
X226924949Y-111752182D01*
X226920484Y-111760946D01*
X226872509Y-111811742D01*
X226804688Y-111828536D01*
X226738553Y-111805998D01*
X226699516Y-111760946D01*
X226695050Y-111752182D01*
X226570109Y-111580213D01*
X226419786Y-111429890D01*
X226247815Y-111304948D01*
X226247814Y-111304947D01*
X226208205Y-111284765D01*
X226157409Y-111236791D01*
X226140500Y-111174281D01*
X226140500Y-94220096D01*
X226160185Y-94153057D01*
X226176814Y-94132419D01*
X227029544Y-93279689D01*
X227090865Y-93246206D01*
X227160556Y-93251190D01*
X227216490Y-93293062D01*
X227240907Y-93358526D01*
X227239697Y-93386765D01*
X227237500Y-93400639D01*
X227237500Y-93599360D01*
X227268587Y-93795637D01*
X227329993Y-93984629D01*
X227329994Y-93984632D01*
X227415812Y-94153057D01*
X227420213Y-94161694D01*
X227537019Y-94322464D01*
X227677536Y-94462981D01*
X227838306Y-94579787D01*
X227927459Y-94625213D01*
X227994780Y-94659515D01*
X228045576Y-94707490D01*
X228062371Y-94775311D01*
X228039833Y-94841446D01*
X227994780Y-94880485D01*
X227838305Y-94960213D01*
X227677533Y-95077021D01*
X227537021Y-95217533D01*
X227420213Y-95378305D01*
X227329994Y-95555367D01*
X227329993Y-95555370D01*
X227268587Y-95744362D01*
X227237500Y-95940639D01*
X227237500Y-96139360D01*
X227268587Y-96335637D01*
X227329993Y-96524629D01*
X227329994Y-96524632D01*
X227420213Y-96701694D01*
X227537019Y-96862464D01*
X227677536Y-97002981D01*
X227838306Y-97119787D01*
X227956832Y-97180179D01*
X227994780Y-97199515D01*
X228045576Y-97247490D01*
X228062371Y-97315311D01*
X228039833Y-97381446D01*
X227994780Y-97420485D01*
X227838305Y-97500213D01*
X227677533Y-97617021D01*
X227537021Y-97757533D01*
X227420213Y-97918305D01*
X227329994Y-98095367D01*
X227329993Y-98095370D01*
X227268587Y-98284362D01*
X227237500Y-98480639D01*
X227237500Y-98679360D01*
X227268587Y-98875637D01*
X227329993Y-99064629D01*
X227329994Y-99064632D01*
X227420213Y-99241694D01*
X227537019Y-99402464D01*
X227677536Y-99542981D01*
X227838306Y-99659787D01*
X227956832Y-99720179D01*
X227994780Y-99739515D01*
X228045576Y-99787490D01*
X228062371Y-99855311D01*
X228039833Y-99921446D01*
X227994780Y-99960485D01*
X227838305Y-100040213D01*
X227677533Y-100157021D01*
X227537021Y-100297533D01*
X227420213Y-100458305D01*
X227329994Y-100635367D01*
X227329993Y-100635370D01*
X227268587Y-100824362D01*
X227237500Y-101020639D01*
X227237500Y-101219360D01*
X227268587Y-101415637D01*
X227329993Y-101604629D01*
X227329994Y-101604632D01*
X227420213Y-101781694D01*
X227537019Y-101942464D01*
X227677536Y-102082981D01*
X227838306Y-102199787D01*
X227956832Y-102260179D01*
X227994780Y-102279515D01*
X228045576Y-102327490D01*
X228062371Y-102395311D01*
X228039833Y-102461446D01*
X227994780Y-102500485D01*
X227838305Y-102580213D01*
X227677533Y-102697021D01*
X227537021Y-102837533D01*
X227420213Y-102998305D01*
X227329994Y-103175367D01*
X227329993Y-103175370D01*
X227268587Y-103364362D01*
X227248734Y-103489711D01*
X227237500Y-103560639D01*
X227237500Y-103759361D01*
X227238631Y-103766503D01*
X227268587Y-103955637D01*
X227329993Y-104144629D01*
X227329994Y-104144632D01*
X227375270Y-104233489D01*
X227420213Y-104321694D01*
X227537019Y-104482464D01*
X227677536Y-104622981D01*
X227838306Y-104739787D01*
X227897082Y-104769735D01*
X228015367Y-104830005D01*
X228015370Y-104830006D01*
X228109866Y-104860709D01*
X228204364Y-104891413D01*
X228400639Y-104922500D01*
X228400640Y-104922500D01*
X228599360Y-104922500D01*
X228599361Y-104922500D01*
X228795636Y-104891413D01*
X228984632Y-104830005D01*
X229161694Y-104739787D01*
X229322464Y-104622981D01*
X229462981Y-104482464D01*
X229579787Y-104321694D01*
X229670005Y-104144632D01*
X229731413Y-103955636D01*
X229762500Y-103759361D01*
X229762500Y-103560639D01*
X229731413Y-103364364D01*
X229670005Y-103175368D01*
X229670005Y-103175367D01*
X229579786Y-102998305D01*
X229576874Y-102994297D01*
X229462981Y-102837536D01*
X229322464Y-102697019D01*
X229161694Y-102580213D01*
X229005218Y-102500484D01*
X228954423Y-102452510D01*
X228937628Y-102384689D01*
X228960165Y-102318554D01*
X229005218Y-102279515D01*
X229161694Y-102199787D01*
X229322464Y-102082981D01*
X229462981Y-101942464D01*
X229579787Y-101781694D01*
X229670005Y-101604632D01*
X229731413Y-101415636D01*
X229762500Y-101219361D01*
X229762500Y-101020639D01*
X229731413Y-100824364D01*
X229670005Y-100635368D01*
X229670005Y-100635367D01*
X229579786Y-100458305D01*
X229547110Y-100413330D01*
X229462981Y-100297536D01*
X229322464Y-100157019D01*
X229161694Y-100040213D01*
X229005218Y-99960484D01*
X228954423Y-99912510D01*
X228937628Y-99844689D01*
X228960165Y-99778554D01*
X229005218Y-99739515D01*
X229161694Y-99659787D01*
X229322464Y-99542981D01*
X229462981Y-99402464D01*
X229579787Y-99241694D01*
X229670005Y-99064632D01*
X229731413Y-98875636D01*
X229762500Y-98679361D01*
X229762500Y-98480639D01*
X229731413Y-98284364D01*
X229670005Y-98095368D01*
X229670005Y-98095367D01*
X229579786Y-97918305D01*
X229462981Y-97757536D01*
X229322464Y-97617019D01*
X229161694Y-97500213D01*
X229005218Y-97420484D01*
X228954423Y-97372510D01*
X228937628Y-97304689D01*
X228960165Y-97238554D01*
X229005218Y-97199515D01*
X229161694Y-97119787D01*
X229322464Y-97002981D01*
X229462981Y-96862464D01*
X229579787Y-96701694D01*
X229670005Y-96524632D01*
X229731413Y-96335636D01*
X229762500Y-96139361D01*
X229762500Y-95940639D01*
X229731413Y-95744364D01*
X229670005Y-95555368D01*
X229670005Y-95555367D01*
X229579786Y-95378305D01*
X229462981Y-95217536D01*
X229322464Y-95077019D01*
X229161694Y-94960213D01*
X229005218Y-94880484D01*
X228954423Y-94832510D01*
X228937628Y-94764689D01*
X228960165Y-94698554D01*
X229005218Y-94659515D01*
X229161694Y-94579787D01*
X229322464Y-94462981D01*
X229462981Y-94322464D01*
X229579787Y-94161694D01*
X229670005Y-93984632D01*
X229731413Y-93795636D01*
X229762500Y-93599361D01*
X229762500Y-93400639D01*
X229731413Y-93204364D01*
X229731409Y-93204352D01*
X229730869Y-93202099D01*
X229730913Y-93201209D01*
X229730651Y-93199552D01*
X229730999Y-93199496D01*
X229734360Y-93132316D01*
X229763760Y-93085473D01*
X230358506Y-92490728D01*
X230358511Y-92490724D01*
X230368714Y-92480520D01*
X230368716Y-92480520D01*
X230480520Y-92368716D01*
X230559577Y-92231784D01*
X230600500Y-92079057D01*
X230600500Y-89920943D01*
X230559577Y-89768216D01*
X230542607Y-89738822D01*
X230480524Y-89631290D01*
X230480521Y-89631286D01*
X230480520Y-89631284D01*
X230368716Y-89519480D01*
X230368715Y-89519479D01*
X230364385Y-89515149D01*
X230364374Y-89515139D01*
X230087590Y-89238355D01*
X230087588Y-89238352D01*
X229968717Y-89119481D01*
X229968716Y-89119480D01*
X229881904Y-89069360D01*
X229881904Y-89069359D01*
X229881900Y-89069358D01*
X229831785Y-89040423D01*
X229768105Y-89023359D01*
X229708445Y-88986994D01*
X229677917Y-88924147D01*
X229682269Y-88865266D01*
X229730925Y-88715519D01*
X229762000Y-88519321D01*
X229762000Y-88320678D01*
X229730924Y-88124479D01*
X229730924Y-88124476D01*
X229669542Y-87935562D01*
X229579358Y-87758567D01*
X229552268Y-87721283D01*
X228881000Y-88392551D01*
X228881000Y-88369840D01*
X228855036Y-88272939D01*
X228804876Y-88186060D01*
X228733940Y-88115124D01*
X228647061Y-88064964D01*
X228550160Y-88039000D01*
X228527447Y-88039000D01*
X229198716Y-87367731D01*
X229197458Y-87366817D01*
X229154792Y-87311486D01*
X229148814Y-87241873D01*
X229181420Y-87180078D01*
X229242259Y-87145721D01*
X229270343Y-87142499D01*
X229309872Y-87142499D01*
X229369483Y-87136091D01*
X229504331Y-87085796D01*
X229619546Y-86999546D01*
X229705796Y-86884331D01*
X229756091Y-86749483D01*
X229762500Y-86689873D01*
X229762500Y-86604500D01*
X229782185Y-86537461D01*
X229834989Y-86491706D01*
X229886500Y-86480500D01*
X233014217Y-86480500D01*
X233081256Y-86500185D01*
G37*
%TD.AperFunction*%
%TA.AperFunction,Conductor*%
G36*
X217086498Y-90512397D02*
G01*
X217168216Y-90559577D01*
X217320943Y-90600501D01*
X217320945Y-90600501D01*
X217486654Y-90600501D01*
X217486670Y-90600500D01*
X221572479Y-90600500D01*
X221639518Y-90620185D01*
X221685273Y-90672989D01*
X221695217Y-90742147D01*
X221682964Y-90780795D01*
X221609897Y-90924197D01*
X221536934Y-91148752D01*
X221500000Y-91381947D01*
X221500000Y-91618052D01*
X221536934Y-91851247D01*
X221609897Y-92075802D01*
X221717087Y-92286174D01*
X221777338Y-92369104D01*
X221777340Y-92369105D01*
X222517037Y-91629408D01*
X222534075Y-91692993D01*
X222599901Y-91807007D01*
X222692993Y-91900099D01*
X222807007Y-91965925D01*
X222870590Y-91982962D01*
X222130893Y-92722658D01*
X222213828Y-92782914D01*
X222424197Y-92890102D01*
X222648752Y-92963065D01*
X222648751Y-92963065D01*
X222881948Y-93000000D01*
X223118052Y-93000000D01*
X223351247Y-92963065D01*
X223575802Y-92890102D01*
X223786163Y-92782918D01*
X223786169Y-92782914D01*
X223869104Y-92722658D01*
X223869105Y-92722658D01*
X223129408Y-91982962D01*
X223192993Y-91965925D01*
X223307007Y-91900099D01*
X223400099Y-91807007D01*
X223465925Y-91692993D01*
X223482962Y-91629409D01*
X224222658Y-92369105D01*
X224222658Y-92369104D01*
X224282914Y-92286169D01*
X224282918Y-92286163D01*
X224390102Y-92075802D01*
X224463065Y-91851247D01*
X224500000Y-91618052D01*
X224500000Y-91381947D01*
X224463065Y-91148752D01*
X224390102Y-90924197D01*
X224317036Y-90780795D01*
X224304140Y-90712125D01*
X224330417Y-90647385D01*
X224387523Y-90607128D01*
X224427521Y-90600500D01*
X227133517Y-90600500D01*
X227200556Y-90620185D01*
X227246311Y-90672989D01*
X227256255Y-90742147D01*
X227255990Y-90743898D01*
X227237500Y-90860639D01*
X227237500Y-91059360D01*
X227268586Y-91255636D01*
X227269131Y-91257903D01*
X227269086Y-91258790D01*
X227269349Y-91260448D01*
X227269000Y-91260503D01*
X227265638Y-91327685D01*
X227236237Y-91374526D01*
X225171286Y-93439478D01*
X225059481Y-93551282D01*
X225059479Y-93551284D01*
X225044755Y-93576788D01*
X225033007Y-93597137D01*
X224980423Y-93688215D01*
X224939499Y-93840943D01*
X224939499Y-93840945D01*
X224939499Y-94009046D01*
X224939500Y-94009059D01*
X224939500Y-105056424D01*
X224919815Y-105123463D01*
X224867011Y-105169218D01*
X224797853Y-105179162D01*
X224734297Y-105150137D01*
X224712398Y-105125315D01*
X224621789Y-104989711D01*
X224621786Y-104989707D01*
X224510291Y-104878212D01*
X224510288Y-104878210D01*
X224379185Y-104790609D01*
X224379172Y-104790602D01*
X224233501Y-104730264D01*
X224233489Y-104730261D01*
X224078845Y-104699500D01*
X224078842Y-104699500D01*
X223921158Y-104699500D01*
X223921155Y-104699500D01*
X223766510Y-104730261D01*
X223766498Y-104730264D01*
X223620828Y-104790602D01*
X223620817Y-104790608D01*
X223596944Y-104806560D01*
X223530266Y-104827437D01*
X223462886Y-104808952D01*
X223440373Y-104791138D01*
X223236819Y-104587584D01*
X223203334Y-104526261D01*
X223200500Y-104499903D01*
X223200500Y-100089060D01*
X223200501Y-100089047D01*
X223200501Y-99920944D01*
X223183501Y-99857500D01*
X223159577Y-99768216D01*
X223096976Y-99659787D01*
X223080524Y-99631290D01*
X223080518Y-99631282D01*
X219883344Y-96434108D01*
X216597189Y-93147954D01*
X216563705Y-93086632D01*
X216568689Y-93016940D01*
X216610561Y-92961007D01*
X216641540Y-92944091D01*
X216642331Y-92943796D01*
X216757546Y-92857546D01*
X216843796Y-92742331D01*
X216894091Y-92607483D01*
X216900500Y-92547873D01*
X216900499Y-90619784D01*
X216920184Y-90552746D01*
X216972987Y-90506991D01*
X217042146Y-90497047D01*
X217086498Y-90512397D01*
G37*
%TD.AperFunction*%
%TA.AperFunction,Conductor*%
G36*
X224939386Y-84294068D02*
G01*
X224963794Y-84313029D01*
X226895139Y-86244374D01*
X226895149Y-86244385D01*
X226899479Y-86248715D01*
X226899480Y-86248716D01*
X227011284Y-86360520D01*
X227098095Y-86410639D01*
X227098097Y-86410641D01*
X227148212Y-86439576D01*
X227155723Y-86442687D01*
X227154941Y-86444573D01*
X227205252Y-86475237D01*
X227235783Y-86538084D01*
X227237500Y-86558648D01*
X227237500Y-86689869D01*
X227237501Y-86689876D01*
X227243908Y-86749483D01*
X227294202Y-86884328D01*
X227294206Y-86884335D01*
X227380452Y-86999544D01*
X227380455Y-86999547D01*
X227495664Y-87085793D01*
X227495671Y-87085797D01*
X227630517Y-87136091D01*
X227630516Y-87136091D01*
X227637444Y-87136835D01*
X227690127Y-87142500D01*
X227729652Y-87142499D01*
X227796689Y-87162182D01*
X227842445Y-87214985D01*
X227852390Y-87284143D01*
X227823367Y-87347700D01*
X227802538Y-87366816D01*
X227801283Y-87367727D01*
X227801282Y-87367730D01*
X228472554Y-88039000D01*
X228449840Y-88039000D01*
X228352939Y-88064964D01*
X228266060Y-88115124D01*
X228195124Y-88186060D01*
X228144964Y-88272939D01*
X228119000Y-88369840D01*
X228119000Y-88392552D01*
X227447730Y-87721282D01*
X227447729Y-87721283D01*
X227420643Y-87758564D01*
X227330457Y-87935562D01*
X227269075Y-88124476D01*
X227269075Y-88124479D01*
X227238000Y-88320678D01*
X227238000Y-88519321D01*
X227269074Y-88715519D01*
X227308606Y-88837181D01*
X227310601Y-88907022D01*
X227274521Y-88966855D01*
X227211821Y-88997684D01*
X227190675Y-88999500D01*
X217900097Y-88999500D01*
X217833058Y-88979815D01*
X217812416Y-88963181D01*
X216334574Y-87485339D01*
X216301089Y-87424016D01*
X216300638Y-87421849D01*
X216277517Y-87305616D01*
X216269737Y-87266503D01*
X216239236Y-87192867D01*
X216209397Y-87120827D01*
X216209390Y-87120814D01*
X216121789Y-86989711D01*
X216121786Y-86989707D01*
X216010292Y-86878213D01*
X216010288Y-86878210D01*
X215879185Y-86790609D01*
X215879172Y-86790602D01*
X215733501Y-86730264D01*
X215733489Y-86730261D01*
X215578845Y-86699500D01*
X215578842Y-86699500D01*
X215421158Y-86699500D01*
X215421155Y-86699500D01*
X215266510Y-86730261D01*
X215266503Y-86730263D01*
X215249164Y-86737445D01*
X215179695Y-86744912D01*
X215117216Y-86713637D01*
X215081564Y-86653547D01*
X215084059Y-86583722D01*
X215114032Y-86535202D01*
X215939844Y-85709390D01*
X216940374Y-84708859D01*
X217001695Y-84675376D01*
X217071387Y-84680360D01*
X217096945Y-84693441D01*
X217120812Y-84709389D01*
X217120827Y-84709397D01*
X217244094Y-84760455D01*
X217266503Y-84769737D01*
X217420198Y-84800309D01*
X217421153Y-84800499D01*
X217421156Y-84800500D01*
X217575500Y-84800500D01*
X217642539Y-84820185D01*
X217688294Y-84872989D01*
X217699500Y-84924500D01*
X217699500Y-85078846D01*
X217730261Y-85233489D01*
X217730264Y-85233501D01*
X217790602Y-85379172D01*
X217790609Y-85379185D01*
X217878210Y-85510288D01*
X217878213Y-85510292D01*
X217989707Y-85621786D01*
X217989711Y-85621789D01*
X218120814Y-85709390D01*
X218120827Y-85709397D01*
X218220787Y-85750801D01*
X218266503Y-85769737D01*
X218421153Y-85800499D01*
X218421156Y-85800500D01*
X218421158Y-85800500D01*
X218578844Y-85800500D01*
X218578845Y-85800499D01*
X218733497Y-85769737D01*
X218879179Y-85709394D01*
X219010289Y-85621789D01*
X219121789Y-85510289D01*
X219209394Y-85379179D01*
X219266578Y-85241122D01*
X219310416Y-85186723D01*
X219376710Y-85164657D01*
X219444409Y-85181935D01*
X219468818Y-85200897D01*
X219489707Y-85221786D01*
X219489711Y-85221789D01*
X219620814Y-85309390D01*
X219620827Y-85309397D01*
X219726675Y-85353240D01*
X219766503Y-85369737D01*
X219921153Y-85400499D01*
X219921156Y-85400500D01*
X219921158Y-85400500D01*
X220078844Y-85400500D01*
X220078845Y-85400499D01*
X220233497Y-85369737D01*
X220379179Y-85309394D01*
X220431110Y-85274694D01*
X220497785Y-85253816D01*
X220565165Y-85272300D01*
X220568863Y-85274676D01*
X220620821Y-85309394D01*
X220620823Y-85309395D01*
X220620825Y-85309396D01*
X220691372Y-85338617D01*
X220766503Y-85369737D01*
X220921153Y-85400499D01*
X220921156Y-85400500D01*
X220921158Y-85400500D01*
X221078844Y-85400500D01*
X221078845Y-85400499D01*
X221233497Y-85369737D01*
X221379179Y-85309394D01*
X221510289Y-85221789D01*
X221621789Y-85110289D01*
X221709394Y-84979179D01*
X221769737Y-84833497D01*
X221774531Y-84809397D01*
X221776339Y-84800309D01*
X221808724Y-84738398D01*
X221869439Y-84703824D01*
X221897956Y-84700500D01*
X223420234Y-84700500D01*
X223487273Y-84720185D01*
X223489125Y-84721398D01*
X223620814Y-84809390D01*
X223620827Y-84809397D01*
X223701019Y-84842613D01*
X223766503Y-84869737D01*
X223921153Y-84900499D01*
X223921156Y-84900500D01*
X223921158Y-84900500D01*
X224078844Y-84900500D01*
X224078845Y-84900499D01*
X224233497Y-84869737D01*
X224379179Y-84809394D01*
X224510289Y-84721789D01*
X224621789Y-84610289D01*
X224709394Y-84479179D01*
X224761552Y-84353258D01*
X224805392Y-84298854D01*
X224871687Y-84276789D01*
X224939386Y-84294068D01*
G37*
%TD.AperFunction*%
%TA.AperFunction,Conductor*%
G36*
X221282225Y-73406185D02*
G01*
X221327980Y-73458989D01*
X221337924Y-73528147D01*
X221318288Y-73579391D01*
X221290609Y-73620814D01*
X221290602Y-73620827D01*
X221230264Y-73766498D01*
X221230261Y-73766510D01*
X221199500Y-73921153D01*
X221199500Y-74078846D01*
X221230261Y-74233489D01*
X221230264Y-74233501D01*
X221290602Y-74379172D01*
X221290609Y-74379185D01*
X221378210Y-74510288D01*
X221378213Y-74510292D01*
X221489707Y-74621786D01*
X221489711Y-74621789D01*
X221620814Y-74709390D01*
X221620827Y-74709397D01*
X221715799Y-74748735D01*
X221766503Y-74769737D01*
X221901984Y-74796686D01*
X221921153Y-74800499D01*
X221921156Y-74800500D01*
X221921158Y-74800500D01*
X222078844Y-74800500D01*
X222078845Y-74800499D01*
X222233497Y-74769737D01*
X222377557Y-74710066D01*
X222379172Y-74709397D01*
X222379172Y-74709396D01*
X222379179Y-74709394D01*
X222379184Y-74709390D01*
X222379187Y-74709389D01*
X222427063Y-74677399D01*
X222493740Y-74656520D01*
X222495955Y-74656500D01*
X231995080Y-74656500D01*
X232062119Y-74676185D01*
X232107874Y-74728989D01*
X232118018Y-74796683D01*
X232107158Y-74879177D01*
X232103500Y-74906965D01*
X232103500Y-74925901D01*
X232083815Y-74992940D01*
X232067181Y-75013582D01*
X230631286Y-76449478D01*
X230519481Y-76561282D01*
X230519479Y-76561284D01*
X230497169Y-76599929D01*
X230484548Y-76621789D01*
X230473984Y-76640086D01*
X230440422Y-76698215D01*
X230440422Y-76698216D01*
X230412964Y-76800688D01*
X230376599Y-76860348D01*
X230313752Y-76890876D01*
X230244376Y-76882581D01*
X230205509Y-76856274D01*
X228987590Y-75638355D01*
X228987588Y-75638352D01*
X228868717Y-75519481D01*
X228868709Y-75519475D01*
X228757373Y-75455196D01*
X228757372Y-75455195D01*
X228739387Y-75444812D01*
X228731785Y-75440423D01*
X228579057Y-75399499D01*
X228420943Y-75399499D01*
X228413347Y-75399499D01*
X228413331Y-75399500D01*
X220579766Y-75399500D01*
X220512727Y-75379815D01*
X220510875Y-75378602D01*
X220379185Y-75290609D01*
X220379172Y-75290602D01*
X220233501Y-75230264D01*
X220233489Y-75230261D01*
X220078845Y-75199500D01*
X220078842Y-75199500D01*
X219921158Y-75199500D01*
X219921155Y-75199500D01*
X219766510Y-75230261D01*
X219766498Y-75230264D01*
X219620827Y-75290602D01*
X219620814Y-75290609D01*
X219489711Y-75378210D01*
X219489707Y-75378213D01*
X219378213Y-75489707D01*
X219378210Y-75489711D01*
X219290609Y-75620814D01*
X219290602Y-75620827D01*
X219230264Y-75766498D01*
X219230261Y-75766510D01*
X219199500Y-75921153D01*
X219199500Y-76078846D01*
X219230261Y-76233489D01*
X219230264Y-76233501D01*
X219290602Y-76379172D01*
X219290609Y-76379185D01*
X219378210Y-76510288D01*
X219378213Y-76510292D01*
X219489709Y-76621788D01*
X219620814Y-76709390D01*
X219620827Y-76709397D01*
X219752995Y-76764142D01*
X219766503Y-76769737D01*
X219921153Y-76800499D01*
X219921156Y-76800500D01*
X219921158Y-76800500D01*
X220078844Y-76800500D01*
X220078845Y-76800499D01*
X220233497Y-76769737D01*
X220350930Y-76721095D01*
X220379172Y-76709397D01*
X220379172Y-76709396D01*
X220379179Y-76709394D01*
X220403436Y-76693186D01*
X220510875Y-76621398D01*
X220577553Y-76600520D01*
X220579766Y-76600500D01*
X228199903Y-76600500D01*
X228266942Y-76620185D01*
X228287584Y-76636819D01*
X228353584Y-76702819D01*
X228387069Y-76764142D01*
X228382085Y-76833834D01*
X228340213Y-76889767D01*
X228274749Y-76914184D01*
X228265903Y-76914500D01*
X227288149Y-76914500D01*
X227062826Y-76944165D01*
X227034660Y-76947874D01*
X226790680Y-77013248D01*
X226787687Y-77014050D01*
X226787677Y-77014053D01*
X226551468Y-77111894D01*
X226551457Y-77111899D01*
X226330042Y-77239734D01*
X226330026Y-77239745D01*
X226127188Y-77395388D01*
X226127181Y-77395394D01*
X225946394Y-77576181D01*
X225946388Y-77576188D01*
X225790745Y-77779026D01*
X225790734Y-77779042D01*
X225662899Y-78000457D01*
X225662894Y-78000468D01*
X225565054Y-78236676D01*
X225565050Y-78236687D01*
X225516412Y-78418209D01*
X225498874Y-78483661D01*
X225465500Y-78737149D01*
X225465500Y-78992850D01*
X225489078Y-79171936D01*
X225498874Y-79246340D01*
X225554574Y-79454215D01*
X225565050Y-79493312D01*
X225565053Y-79493322D01*
X225662894Y-79729531D01*
X225662899Y-79729542D01*
X225790734Y-79950957D01*
X225790745Y-79950973D01*
X225946388Y-80153811D01*
X225946394Y-80153818D01*
X226127181Y-80334605D01*
X226127188Y-80334611D01*
X226171635Y-80368716D01*
X226330035Y-80490261D01*
X226330042Y-80490265D01*
X226551457Y-80618100D01*
X226551462Y-80618102D01*
X226551465Y-80618104D01*
X226700426Y-80679805D01*
X226779403Y-80712519D01*
X226787687Y-80715950D01*
X227034660Y-80782126D01*
X227288157Y-80815500D01*
X227288164Y-80815500D01*
X228443836Y-80815500D01*
X228443843Y-80815500D01*
X228532443Y-80803835D01*
X228601476Y-80814600D01*
X228653732Y-80860980D01*
X228672618Y-80928248D01*
X228652138Y-80995049D01*
X228636308Y-81014455D01*
X227631286Y-82019478D01*
X227519481Y-82131282D01*
X227519479Y-82131284D01*
X227491797Y-82179232D01*
X227480096Y-82199500D01*
X227440423Y-82268215D01*
X227399499Y-82420943D01*
X227399499Y-82420945D01*
X227399499Y-82589046D01*
X227399500Y-82589059D01*
X227399500Y-83520234D01*
X227379815Y-83587273D01*
X227378602Y-83589125D01*
X227290609Y-83720814D01*
X227290602Y-83720827D01*
X227230264Y-83866498D01*
X227230261Y-83866510D01*
X227199500Y-84021153D01*
X227199500Y-84178846D01*
X227230261Y-84333489D01*
X227230264Y-84333501D01*
X227290602Y-84479172D01*
X227290609Y-84479185D01*
X227381595Y-84615354D01*
X227379990Y-84616426D01*
X227403811Y-84672507D01*
X227392022Y-84741375D01*
X227379910Y-84761180D01*
X227350292Y-84800743D01*
X227294358Y-84842613D01*
X227224666Y-84847596D01*
X227163346Y-84814111D01*
X222987590Y-80638355D01*
X222987588Y-80638352D01*
X222868717Y-80519481D01*
X222868716Y-80519480D01*
X222769245Y-80462051D01*
X222769244Y-80462050D01*
X222731783Y-80440422D01*
X222659877Y-80421155D01*
X222579057Y-80399499D01*
X222420943Y-80399499D01*
X222413347Y-80399499D01*
X222413331Y-80399500D01*
X221974000Y-80399500D01*
X221906961Y-80379815D01*
X221861206Y-80327011D01*
X221850000Y-80275500D01*
X221850000Y-79750000D01*
X220933012Y-79750000D01*
X220965925Y-79692993D01*
X221000000Y-79565826D01*
X221000000Y-79434174D01*
X220965925Y-79307007D01*
X220933012Y-79250000D01*
X221850000Y-79250000D01*
X221850000Y-78602172D01*
X221849999Y-78602155D01*
X221843598Y-78542627D01*
X221843596Y-78542620D01*
X221793354Y-78407913D01*
X221793350Y-78407906D01*
X221707190Y-78292812D01*
X221707187Y-78292809D01*
X221592093Y-78206649D01*
X221592086Y-78206645D01*
X221457379Y-78156403D01*
X221457372Y-78156401D01*
X221397844Y-78150000D01*
X220750000Y-78150000D01*
X220750000Y-79066988D01*
X220692993Y-79034075D01*
X220565826Y-79000000D01*
X220434174Y-79000000D01*
X220307007Y-79034075D01*
X220250000Y-79066988D01*
X220250000Y-78150000D01*
X219602155Y-78150000D01*
X219542627Y-78156401D01*
X219542620Y-78156403D01*
X219407913Y-78206645D01*
X219407906Y-78206649D01*
X219292812Y-78292809D01*
X219292809Y-78292812D01*
X219206649Y-78407906D01*
X219206646Y-78407912D01*
X219157577Y-78539471D01*
X219115705Y-78595404D01*
X219050241Y-78619821D01*
X218981968Y-78604969D01*
X218953714Y-78583818D01*
X218839786Y-78469890D01*
X218667820Y-78344951D01*
X218478414Y-78248444D01*
X218478413Y-78248443D01*
X218478412Y-78248443D01*
X218276243Y-78182754D01*
X218276241Y-78182753D01*
X218276240Y-78182753D01*
X218114957Y-78157208D01*
X218066287Y-78149500D01*
X217853713Y-78149500D01*
X217814202Y-78155757D01*
X217643759Y-78182753D01*
X217643755Y-78182754D01*
X217572817Y-78205803D01*
X217502976Y-78207798D01*
X217443143Y-78171717D01*
X217412316Y-78109016D01*
X217410500Y-78087872D01*
X217410500Y-75490097D01*
X217430185Y-75423058D01*
X217446819Y-75402416D01*
X219426416Y-73422819D01*
X219487739Y-73389334D01*
X219514097Y-73386500D01*
X221215186Y-73386500D01*
X221282225Y-73406185D01*
G37*
%TD.AperFunction*%
%TD*%
M02*
